G04 #@! TF.GenerationSoftware,KiCad,Pcbnew,10.0.1*
G04 #@! TF.CreationDate,2026-06-28T00:30:35-07:00*
G04 #@! TF.ProjectId,fz10_oled_IDC_adapter,667a3130-5f6f-46c6-9564-5f4944435f61,rev?*
G04 #@! TF.SameCoordinates,Original*
G04 #@! TF.FileFunction,Copper,L1,Top*
G04 #@! TF.FilePolarity,Positive*
%FSLAX46Y46*%
G04 Gerber Fmt 4.6, Leading zero omitted, Abs format (unit mm)*
G04 Created by KiCad (PCBNEW 10.0.1) date 2026-06-28 00:30:35*
%MOMM*%
%LPD*%
G01*
G04 APERTURE LIST*
G04 #@! TA.AperFunction,ConnectorPad*
%ADD10R,1.500000X7.620000*%
G04 #@! TD*
G04 #@! TA.AperFunction,ComponentPad*
%ADD11R,1.350000X1.350000*%
G04 #@! TD*
G04 #@! TA.AperFunction,ComponentPad*
%ADD12C,1.350000*%
G04 #@! TD*
G04 #@! TA.AperFunction,ViaPad*
%ADD13C,0.800000*%
G04 #@! TD*
G04 #@! TA.AperFunction,Conductor*
%ADD14C,0.250000*%
G04 #@! TD*
G04 APERTURE END LIST*
D10*
X138050000Y-58290000D03*
X140550000Y-58290000D03*
X143050000Y-58290000D03*
X145550000Y-58290000D03*
X148050000Y-58290000D03*
X150550000Y-58290000D03*
X153050000Y-58290000D03*
X155550000Y-58290000D03*
X158050000Y-58290000D03*
X160550000Y-58282000D03*
X163050000Y-58290000D03*
D11*
X146500000Y-48000000D03*
D12*
X146500000Y-50000000D03*
X148500000Y-48000000D03*
X148500000Y-50000000D03*
X150500000Y-48000000D03*
X150500000Y-50000000D03*
X152500000Y-48000000D03*
X152500000Y-50000000D03*
X154500000Y-48000000D03*
X154500000Y-50000000D03*
D13*
X160300000Y-52600000D03*
X162300000Y-51500000D03*
D14*
X156100000Y-51600000D02*
X153050000Y-54650000D01*
X152500000Y-48000000D02*
X153500000Y-49000000D01*
X153050000Y-54650000D02*
X153050000Y-58290000D01*
X153500000Y-49000000D02*
X155500000Y-49000000D01*
X155500000Y-49000000D02*
X156100000Y-49600000D01*
X156100000Y-49600000D02*
X156100000Y-51600000D01*
X150000000Y-52000000D02*
X141500000Y-52000000D01*
X150500000Y-50000000D02*
X150500000Y-51500000D01*
X141500000Y-52000000D02*
X140550000Y-52950000D01*
X140550000Y-52950000D02*
X140550000Y-58290000D01*
X150500000Y-51500000D02*
X150000000Y-52000000D01*
X147700000Y-45400000D02*
X146500000Y-46600000D01*
X158050000Y-58290000D02*
X158050000Y-46550000D01*
X146500000Y-46600000D02*
X146500000Y-48000000D01*
X158050000Y-46550000D02*
X156900000Y-45400000D01*
X156900000Y-45400000D02*
X147700000Y-45400000D01*
X160550000Y-58282000D02*
X160550000Y-52850000D01*
X160550000Y-52850000D02*
X160300000Y-52600000D01*
X150900000Y-53700000D02*
X150550000Y-54050000D01*
X153600000Y-50900000D02*
X153600000Y-51800000D01*
X153600000Y-51800000D02*
X151700000Y-53700000D01*
X154500000Y-50000000D02*
X153600000Y-50900000D01*
X150550000Y-54050000D02*
X150550000Y-58290000D01*
X151700000Y-53700000D02*
X150900000Y-53700000D01*
X150500000Y-52500000D02*
X144100000Y-52500000D01*
X150500000Y-48000000D02*
X151500000Y-49000000D01*
X151500000Y-49000000D02*
X151500000Y-51500000D01*
X143050000Y-53550000D02*
X144100000Y-52500000D01*
X143050000Y-53550000D02*
X143050000Y-58290000D01*
X154500000Y-47000000D02*
X154000000Y-46500000D01*
X150500000Y-47000000D02*
X150500000Y-48000000D01*
X151500000Y-51500000D02*
X150500000Y-52500000D01*
X154000000Y-46500000D02*
X151000000Y-46500000D01*
X154500000Y-48000000D02*
X154500000Y-47000000D01*
X151000000Y-46500000D02*
X150500000Y-47000000D01*
X149000000Y-53100000D02*
X148050000Y-54050000D01*
X151200000Y-53100000D02*
X149000000Y-53100000D01*
X152500000Y-51800000D02*
X151200000Y-53100000D01*
X148050000Y-54050000D02*
X148050000Y-58290000D01*
X152500000Y-50000000D02*
X152500000Y-51800000D01*
X155550000Y-58290000D02*
X155550000Y-53450000D01*
X149500000Y-46500000D02*
X149500000Y-51000000D01*
X149100000Y-51400000D02*
X146700000Y-51400000D01*
X146500000Y-51200000D02*
X146500000Y-50000000D01*
X156600000Y-46000000D02*
X150000000Y-46000000D01*
X150000000Y-46000000D02*
X149500000Y-46500000D01*
X155550000Y-53450000D02*
X157000000Y-52000000D01*
X157000000Y-46400000D02*
X156600000Y-46000000D01*
X157000000Y-52000000D02*
X157000000Y-46400000D01*
X146700000Y-51400000D02*
X146500000Y-51200000D01*
X149500000Y-51000000D02*
X149100000Y-51400000D01*
X163050000Y-52250000D02*
X162300000Y-51500000D01*
X163050000Y-58290000D02*
X163050000Y-52250000D01*
M02*
