G04 #@! TF.GenerationSoftware,KiCad,Pcbnew,10.0.1*
G04 #@! TF.CreationDate,2026-06-28T00:30:35-07:00*
G04 #@! TF.ProjectId,fz10_oled_IDC_adapter,667a3130-5f6f-46c6-9564-5f4944435f61,rev?*
G04 #@! TF.SameCoordinates,Original*
G04 #@! TF.FileFunction,Legend,Top*
G04 #@! TF.FilePolarity,Positive*
%FSLAX46Y46*%
G04 Gerber Fmt 4.6, Leading zero omitted, Abs format (unit mm)*
G04 Created by KiCad (PCBNEW 10.0.1) date 2026-06-28 00:30:35*
%MOMM*%
%LPD*%
G01*
G04 APERTURE LIST*
%ADD10C,0.150000*%
%ADD11C,0.010000*%
G04 APERTURE END LIST*
D10*
X143523808Y-53213575D02*
X143190475Y-53213575D01*
X143190475Y-53737385D02*
X143190475Y-52737385D01*
X143190475Y-52737385D02*
X143666665Y-52737385D01*
X143952380Y-52737385D02*
X144619046Y-52737385D01*
X144619046Y-52737385D02*
X143952380Y-53737385D01*
X143952380Y-53737385D02*
X144619046Y-53737385D01*
X144999999Y-53356432D02*
X145761904Y-53356432D01*
X146761903Y-53737385D02*
X146190475Y-53737385D01*
X146476189Y-53737385D02*
X146476189Y-52737385D01*
X146476189Y-52737385D02*
X146380951Y-52880242D01*
X146380951Y-52880242D02*
X146285713Y-52975480D01*
X146285713Y-52975480D02*
X146190475Y-53023099D01*
X147380951Y-52737385D02*
X147476189Y-52737385D01*
X147476189Y-52737385D02*
X147571427Y-52785004D01*
X147571427Y-52785004D02*
X147619046Y-52832623D01*
X147619046Y-52832623D02*
X147666665Y-52927861D01*
X147666665Y-52927861D02*
X147714284Y-53118337D01*
X147714284Y-53118337D02*
X147714284Y-53356432D01*
X147714284Y-53356432D02*
X147666665Y-53546908D01*
X147666665Y-53546908D02*
X147619046Y-53642146D01*
X147619046Y-53642146D02*
X147571427Y-53689766D01*
X147571427Y-53689766D02*
X147476189Y-53737385D01*
X147476189Y-53737385D02*
X147380951Y-53737385D01*
X147380951Y-53737385D02*
X147285713Y-53689766D01*
X147285713Y-53689766D02*
X147238094Y-53642146D01*
X147238094Y-53642146D02*
X147190475Y-53546908D01*
X147190475Y-53546908D02*
X147142856Y-53356432D01*
X147142856Y-53356432D02*
X147142856Y-53118337D01*
X147142856Y-53118337D02*
X147190475Y-52927861D01*
X147190475Y-52927861D02*
X147238094Y-52832623D01*
X147238094Y-52832623D02*
X147285713Y-52785004D01*
X147285713Y-52785004D02*
X147380951Y-52737385D01*
X148142856Y-53737385D02*
X148142856Y-53070718D01*
X148142856Y-53165956D02*
X148190475Y-53118337D01*
X148190475Y-53118337D02*
X148285713Y-53070718D01*
X148285713Y-53070718D02*
X148428570Y-53070718D01*
X148428570Y-53070718D02*
X148523808Y-53118337D01*
X148523808Y-53118337D02*
X148571427Y-53213575D01*
X148571427Y-53213575D02*
X148571427Y-53737385D01*
X148571427Y-53213575D02*
X148619046Y-53118337D01*
X148619046Y-53118337D02*
X148714284Y-53070718D01*
X148714284Y-53070718D02*
X148857141Y-53070718D01*
X148857141Y-53070718D02*
X148952380Y-53118337D01*
X148952380Y-53118337D02*
X148999999Y-53213575D01*
X148999999Y-53213575D02*
X148999999Y-53737385D01*
X150238094Y-53213575D02*
X150571427Y-53213575D01*
X150714284Y-53737385D02*
X150238094Y-53737385D01*
X150238094Y-53737385D02*
X150238094Y-52737385D01*
X150238094Y-52737385D02*
X150714284Y-52737385D01*
X151571427Y-53737385D02*
X151571427Y-52737385D01*
X151571427Y-53689766D02*
X151476189Y-53737385D01*
X151476189Y-53737385D02*
X151285713Y-53737385D01*
X151285713Y-53737385D02*
X151190475Y-53689766D01*
X151190475Y-53689766D02*
X151142856Y-53642146D01*
X151142856Y-53642146D02*
X151095237Y-53546908D01*
X151095237Y-53546908D02*
X151095237Y-53261194D01*
X151095237Y-53261194D02*
X151142856Y-53165956D01*
X151142856Y-53165956D02*
X151190475Y-53118337D01*
X151190475Y-53118337D02*
X151285713Y-53070718D01*
X151285713Y-53070718D02*
X151476189Y-53070718D01*
X151476189Y-53070718D02*
X151571427Y-53118337D01*
X152476189Y-53070718D02*
X152476189Y-53880242D01*
X152476189Y-53880242D02*
X152428570Y-53975480D01*
X152428570Y-53975480D02*
X152380951Y-54023099D01*
X152380951Y-54023099D02*
X152285713Y-54070718D01*
X152285713Y-54070718D02*
X152142856Y-54070718D01*
X152142856Y-54070718D02*
X152047618Y-54023099D01*
X152476189Y-53689766D02*
X152380951Y-53737385D01*
X152380951Y-53737385D02*
X152190475Y-53737385D01*
X152190475Y-53737385D02*
X152095237Y-53689766D01*
X152095237Y-53689766D02*
X152047618Y-53642146D01*
X152047618Y-53642146D02*
X151999999Y-53546908D01*
X151999999Y-53546908D02*
X151999999Y-53261194D01*
X151999999Y-53261194D02*
X152047618Y-53165956D01*
X152047618Y-53165956D02*
X152095237Y-53118337D01*
X152095237Y-53118337D02*
X152190475Y-53070718D01*
X152190475Y-53070718D02*
X152380951Y-53070718D01*
X152380951Y-53070718D02*
X152476189Y-53118337D01*
X153333332Y-53689766D02*
X153238094Y-53737385D01*
X153238094Y-53737385D02*
X153047618Y-53737385D01*
X153047618Y-53737385D02*
X152952380Y-53689766D01*
X152952380Y-53689766D02*
X152904761Y-53594527D01*
X152904761Y-53594527D02*
X152904761Y-53213575D01*
X152904761Y-53213575D02*
X152952380Y-53118337D01*
X152952380Y-53118337D02*
X153047618Y-53070718D01*
X153047618Y-53070718D02*
X153238094Y-53070718D01*
X153238094Y-53070718D02*
X153333332Y-53118337D01*
X153333332Y-53118337D02*
X153380951Y-53213575D01*
X153380951Y-53213575D02*
X153380951Y-53308813D01*
X153380951Y-53308813D02*
X152904761Y-53404051D01*
X155142856Y-53642146D02*
X155095237Y-53689766D01*
X155095237Y-53689766D02*
X154952380Y-53737385D01*
X154952380Y-53737385D02*
X154857142Y-53737385D01*
X154857142Y-53737385D02*
X154714285Y-53689766D01*
X154714285Y-53689766D02*
X154619047Y-53594527D01*
X154619047Y-53594527D02*
X154571428Y-53499289D01*
X154571428Y-53499289D02*
X154523809Y-53308813D01*
X154523809Y-53308813D02*
X154523809Y-53165956D01*
X154523809Y-53165956D02*
X154571428Y-52975480D01*
X154571428Y-52975480D02*
X154619047Y-52880242D01*
X154619047Y-52880242D02*
X154714285Y-52785004D01*
X154714285Y-52785004D02*
X154857142Y-52737385D01*
X154857142Y-52737385D02*
X154952380Y-52737385D01*
X154952380Y-52737385D02*
X155095237Y-52785004D01*
X155095237Y-52785004D02*
X155142856Y-52832623D01*
X155714285Y-53737385D02*
X155619047Y-53689766D01*
X155619047Y-53689766D02*
X155571428Y-53642146D01*
X155571428Y-53642146D02*
X155523809Y-53546908D01*
X155523809Y-53546908D02*
X155523809Y-53261194D01*
X155523809Y-53261194D02*
X155571428Y-53165956D01*
X155571428Y-53165956D02*
X155619047Y-53118337D01*
X155619047Y-53118337D02*
X155714285Y-53070718D01*
X155714285Y-53070718D02*
X155857142Y-53070718D01*
X155857142Y-53070718D02*
X155952380Y-53118337D01*
X155952380Y-53118337D02*
X155999999Y-53165956D01*
X155999999Y-53165956D02*
X156047618Y-53261194D01*
X156047618Y-53261194D02*
X156047618Y-53546908D01*
X156047618Y-53546908D02*
X155999999Y-53642146D01*
X155999999Y-53642146D02*
X155952380Y-53689766D01*
X155952380Y-53689766D02*
X155857142Y-53737385D01*
X155857142Y-53737385D02*
X155714285Y-53737385D01*
X156476190Y-53070718D02*
X156476190Y-53737385D01*
X156476190Y-53165956D02*
X156523809Y-53118337D01*
X156523809Y-53118337D02*
X156619047Y-53070718D01*
X156619047Y-53070718D02*
X156761904Y-53070718D01*
X156761904Y-53070718D02*
X156857142Y-53118337D01*
X156857142Y-53118337D02*
X156904761Y-53213575D01*
X156904761Y-53213575D02*
X156904761Y-53737385D01*
X157380952Y-53070718D02*
X157380952Y-53737385D01*
X157380952Y-53165956D02*
X157428571Y-53118337D01*
X157428571Y-53118337D02*
X157523809Y-53070718D01*
X157523809Y-53070718D02*
X157666666Y-53070718D01*
X157666666Y-53070718D02*
X157761904Y-53118337D01*
X157761904Y-53118337D02*
X157809523Y-53213575D01*
X157809523Y-53213575D02*
X157809523Y-53737385D01*
D11*
X137619000Y-46426600D02*
X137415800Y-46426600D01*
X137415800Y-46198000D01*
X137619000Y-46198000D01*
X137619000Y-46426600D01*
G36*
X137619000Y-46426600D02*
G01*
X137415800Y-46426600D01*
X137415800Y-46198000D01*
X137619000Y-46198000D01*
X137619000Y-46426600D01*
G37*
X139041400Y-46426600D02*
X137822200Y-46426600D01*
X137822200Y-46223400D01*
X139041400Y-46223400D01*
X139041400Y-46426600D01*
G36*
X139041400Y-46426600D02*
G01*
X137822200Y-46426600D01*
X137822200Y-46223400D01*
X139041400Y-46223400D01*
X139041400Y-46426600D01*
G37*
X139041400Y-48026800D02*
X139037943Y-48092251D01*
X139021601Y-48121342D01*
X138983411Y-48128362D01*
X138977682Y-48128400D01*
X138913965Y-48128400D01*
X138990382Y-48263804D01*
X139051483Y-48409499D01*
X139063780Y-48545558D01*
X139027555Y-48675442D01*
X139024240Y-48682315D01*
X138990299Y-48740116D01*
X138948153Y-48784501D01*
X138891095Y-48817173D01*
X138812421Y-48839838D01*
X138705428Y-48854200D01*
X138563409Y-48861964D01*
X138379662Y-48864836D01*
X138305811Y-48865000D01*
X137822200Y-48865000D01*
X137822200Y-48692135D01*
X138274214Y-48683318D01*
X138444194Y-48679221D01*
X138570997Y-48673995D01*
X138662242Y-48666879D01*
X138725552Y-48657111D01*
X138768546Y-48643929D01*
X138791657Y-48631599D01*
X138852270Y-48563906D01*
X138873604Y-48470154D01*
X138855712Y-48356435D01*
X138798647Y-48228838D01*
X138787987Y-48210950D01*
X138737346Y-48128400D01*
X137822200Y-48128400D01*
X137822200Y-47925200D01*
X139041400Y-47925200D01*
X139041400Y-48026800D01*
G36*
X139041400Y-48026800D02*
G01*
X139037943Y-48092251D01*
X139021601Y-48121342D01*
X138983411Y-48128362D01*
X138977682Y-48128400D01*
X138913965Y-48128400D01*
X138990382Y-48263804D01*
X139051483Y-48409499D01*
X139063780Y-48545558D01*
X139027555Y-48675442D01*
X139024240Y-48682315D01*
X138990299Y-48740116D01*
X138948153Y-48784501D01*
X138891095Y-48817173D01*
X138812421Y-48839838D01*
X138705428Y-48854200D01*
X138563409Y-48861964D01*
X138379662Y-48864836D01*
X138305811Y-48865000D01*
X137822200Y-48865000D01*
X137822200Y-48692135D01*
X138274214Y-48683318D01*
X138444194Y-48679221D01*
X138570997Y-48673995D01*
X138662242Y-48666879D01*
X138725552Y-48657111D01*
X138768546Y-48643929D01*
X138791657Y-48631599D01*
X138852270Y-48563906D01*
X138873604Y-48470154D01*
X138855712Y-48356435D01*
X138798647Y-48228838D01*
X138787987Y-48210950D01*
X138737346Y-48128400D01*
X137822200Y-48128400D01*
X137822200Y-47925200D01*
X139041400Y-47925200D01*
X139041400Y-48026800D01*
G37*
X138650549Y-44957828D02*
X138718195Y-44975040D01*
X138856400Y-45048360D01*
X138963065Y-45155991D01*
X139034121Y-45289517D01*
X139065500Y-45440517D01*
X139053135Y-45600575D01*
X139041694Y-45644500D01*
X138976563Y-45779113D01*
X138872530Y-45881716D01*
X138730600Y-45951735D01*
X138551778Y-45988593D01*
X138431799Y-45994485D01*
X138430437Y-45994552D01*
X138312028Y-45992090D01*
X138225470Y-45982014D01*
X138151973Y-45960770D01*
X138079481Y-45928179D01*
X137946959Y-45837704D01*
X137857031Y-45719553D01*
X137809649Y-45573658D01*
X137806039Y-45547960D01*
X137806928Y-45482114D01*
X137974600Y-45482114D01*
X137996302Y-45598478D01*
X138060574Y-45688300D01*
X138166157Y-45750731D01*
X138311796Y-45784918D01*
X138431799Y-45791600D01*
X138591936Y-45780620D01*
X138713468Y-45745911D01*
X138804016Y-45684819D01*
X138833935Y-45651553D01*
X138877519Y-45559127D01*
X138887777Y-45447473D01*
X138863646Y-45336601D01*
X138852018Y-45311164D01*
X138781206Y-45229194D01*
X138668046Y-45175069D01*
X138512729Y-45148863D01*
X138431800Y-45146196D01*
X138259572Y-45159833D01*
X138129092Y-45201385D01*
X138039044Y-45271820D01*
X137988115Y-45372103D01*
X137974600Y-45482114D01*
X137806928Y-45482114D01*
X137808291Y-45381220D01*
X137853590Y-45232669D01*
X137938245Y-45108862D01*
X138058569Y-45016359D01*
X138121409Y-44987435D01*
X138234104Y-44958900D01*
X138373606Y-44944168D01*
X138519294Y-44943668D01*
X138650549Y-44957828D01*
G36*
X138650549Y-44957828D02*
G01*
X138718195Y-44975040D01*
X138856400Y-45048360D01*
X138963065Y-45155991D01*
X139034121Y-45289517D01*
X139065500Y-45440517D01*
X139053135Y-45600575D01*
X139041694Y-45644500D01*
X138976563Y-45779113D01*
X138872530Y-45881716D01*
X138730600Y-45951735D01*
X138551778Y-45988593D01*
X138431799Y-45994485D01*
X138430437Y-45994552D01*
X138312028Y-45992090D01*
X138225470Y-45982014D01*
X138151973Y-45960770D01*
X138079481Y-45928179D01*
X137946959Y-45837704D01*
X137857031Y-45719553D01*
X137809649Y-45573658D01*
X137806039Y-45547960D01*
X137806928Y-45482114D01*
X137974600Y-45482114D01*
X137996302Y-45598478D01*
X138060574Y-45688300D01*
X138166157Y-45750731D01*
X138311796Y-45784918D01*
X138431799Y-45791600D01*
X138591936Y-45780620D01*
X138713468Y-45745911D01*
X138804016Y-45684819D01*
X138833935Y-45651553D01*
X138877519Y-45559127D01*
X138887777Y-45447473D01*
X138863646Y-45336601D01*
X138852018Y-45311164D01*
X138781206Y-45229194D01*
X138668046Y-45175069D01*
X138512729Y-45148863D01*
X138431800Y-45146196D01*
X138259572Y-45159833D01*
X138129092Y-45201385D01*
X138039044Y-45271820D01*
X137988115Y-45372103D01*
X137974600Y-45482114D01*
X137806928Y-45482114D01*
X137808291Y-45381220D01*
X137853590Y-45232669D01*
X137938245Y-45108862D01*
X138058569Y-45016359D01*
X138121409Y-44987435D01*
X138234104Y-44958900D01*
X138373606Y-44944168D01*
X138519294Y-44943668D01*
X138650549Y-44957828D01*
G37*
X138000000Y-52554689D02*
X138105750Y-52540505D01*
X138234555Y-52501391D01*
X138332182Y-52426706D01*
X138396384Y-52322639D01*
X138424913Y-52195377D01*
X138415521Y-52051107D01*
X138365961Y-51896017D01*
X138351250Y-51864688D01*
X138287167Y-51735200D01*
X138394825Y-51735200D01*
X138463032Y-51738658D01*
X138501939Y-51757811D01*
X138530273Y-51805832D01*
X138544651Y-51840587D01*
X138574186Y-51944211D01*
X138593322Y-52070378D01*
X138600210Y-52197834D01*
X138593003Y-52305328D01*
X138587402Y-52332100D01*
X138524046Y-52490829D01*
X138427590Y-52611416D01*
X138297667Y-52694093D01*
X138133909Y-52739091D01*
X137935947Y-52746641D01*
X137927609Y-52746185D01*
X137847600Y-52733756D01*
X137737516Y-52716653D01*
X137583703Y-52652710D01*
X137467164Y-52555224D01*
X137388892Y-52425069D01*
X137349880Y-52263114D01*
X137347583Y-52237625D01*
X137349602Y-52192550D01*
X137510975Y-52192550D01*
X137515409Y-52284184D01*
X137519632Y-52303045D01*
X137568580Y-52400176D01*
X137649365Y-52482076D01*
X137745257Y-52532787D01*
X137765968Y-52538024D01*
X137847600Y-52554350D01*
X137847600Y-52233675D01*
X137847202Y-52101270D01*
X137845097Y-52011428D01*
X137839916Y-51955915D01*
X137830289Y-51926498D01*
X137814848Y-51914939D01*
X137794288Y-51913000D01*
X137734651Y-51924294D01*
X137660535Y-51951976D01*
X137592883Y-51986748D01*
X137552637Y-52019313D01*
X137551739Y-52020685D01*
X137524124Y-52095574D01*
X137510975Y-52192550D01*
X137349602Y-52192550D01*
X137354898Y-52074284D01*
X137402956Y-51941266D01*
X137491690Y-51838644D01*
X137621032Y-51766491D01*
X137790914Y-51724879D01*
X137829088Y-51720296D01*
X138000000Y-51702785D01*
X138000000Y-52554689D01*
G36*
X138000000Y-52554689D02*
G01*
X138105750Y-52540505D01*
X138234555Y-52501391D01*
X138332182Y-52426706D01*
X138396384Y-52322639D01*
X138424913Y-52195377D01*
X138415521Y-52051107D01*
X138365961Y-51896017D01*
X138351250Y-51864688D01*
X138287167Y-51735200D01*
X138394825Y-51735200D01*
X138463032Y-51738658D01*
X138501939Y-51757811D01*
X138530273Y-51805832D01*
X138544651Y-51840587D01*
X138574186Y-51944211D01*
X138593322Y-52070378D01*
X138600210Y-52197834D01*
X138593003Y-52305328D01*
X138587402Y-52332100D01*
X138524046Y-52490829D01*
X138427590Y-52611416D01*
X138297667Y-52694093D01*
X138133909Y-52739091D01*
X137935947Y-52746641D01*
X137927609Y-52746185D01*
X137847600Y-52733756D01*
X137737516Y-52716653D01*
X137583703Y-52652710D01*
X137467164Y-52555224D01*
X137388892Y-52425069D01*
X137349880Y-52263114D01*
X137347583Y-52237625D01*
X137349602Y-52192550D01*
X137510975Y-52192550D01*
X137515409Y-52284184D01*
X137519632Y-52303045D01*
X137568580Y-52400176D01*
X137649365Y-52482076D01*
X137745257Y-52532787D01*
X137765968Y-52538024D01*
X137847600Y-52554350D01*
X137847600Y-52233675D01*
X137847202Y-52101270D01*
X137845097Y-52011428D01*
X137839916Y-51955915D01*
X137830289Y-51926498D01*
X137814848Y-51914939D01*
X137794288Y-51913000D01*
X137734651Y-51924294D01*
X137660535Y-51951976D01*
X137592883Y-51986748D01*
X137552637Y-52019313D01*
X137551739Y-52020685D01*
X137524124Y-52095574D01*
X137510975Y-52192550D01*
X137349602Y-52192550D01*
X137354898Y-52074284D01*
X137402956Y-51941266D01*
X137491690Y-51838644D01*
X137621032Y-51766491D01*
X137790914Y-51724879D01*
X137829088Y-51720296D01*
X138000000Y-51702785D01*
X138000000Y-52554689D01*
G37*
X138584200Y-53056000D02*
X138580897Y-53121323D01*
X138564618Y-53150363D01*
X138525802Y-53157523D01*
X138516763Y-53157600D01*
X138470779Y-53160667D01*
X138469006Y-53177362D01*
X138490394Y-53202980D01*
X138562468Y-53316848D01*
X138599682Y-53451284D01*
X138599814Y-53589782D01*
X138560639Y-53715835D01*
X138559708Y-53717608D01*
X138484751Y-53808847D01*
X138371638Y-53882402D01*
X138230858Y-53935217D01*
X138072903Y-53964238D01*
X137987300Y-53965367D01*
X137908265Y-53966411D01*
X137775422Y-53945966D01*
X137620309Y-53887436D01*
X137495309Y-53797527D01*
X137404552Y-53683275D01*
X137352165Y-53551720D01*
X137342278Y-53409899D01*
X137353203Y-53366126D01*
X137528375Y-53366126D01*
X137535780Y-53495513D01*
X137589003Y-53608381D01*
X137683637Y-53695836D01*
X137695200Y-53702836D01*
X137758424Y-53731606D01*
X137834615Y-53747671D01*
X137939661Y-53753821D01*
X137987300Y-53754146D01*
X138145172Y-53744250D01*
X138261784Y-53713458D01*
X138343265Y-53659172D01*
X138394623Y-53581407D01*
X138419991Y-53517413D01*
X138427006Y-53469092D01*
X138415705Y-53413562D01*
X138395000Y-53352769D01*
X138366349Y-53278499D01*
X138336101Y-53225936D01*
X138295398Y-53191334D01*
X138235382Y-53170949D01*
X138147195Y-53161035D01*
X138021980Y-53157845D01*
X137933456Y-53157600D01*
X137787644Y-53158202D01*
X137684516Y-53162792D01*
X137615957Y-53175548D01*
X137573852Y-53200647D01*
X137550085Y-53242267D01*
X137536542Y-53304585D01*
X137528375Y-53366126D01*
X137353203Y-53366126D01*
X137377699Y-53267983D01*
X137402044Y-53207488D01*
X137415099Y-53170706D01*
X137415799Y-53167199D01*
X137392193Y-53163169D01*
X137328540Y-53159973D01*
X137235596Y-53158016D01*
X137161800Y-53157600D01*
X136907800Y-53157600D01*
X136907800Y-52954400D01*
X138584200Y-52954400D01*
X138584200Y-53056000D01*
G36*
X138584200Y-53056000D02*
G01*
X138580897Y-53121323D01*
X138564618Y-53150363D01*
X138525802Y-53157523D01*
X138516763Y-53157600D01*
X138470779Y-53160667D01*
X138469006Y-53177362D01*
X138490394Y-53202980D01*
X138562468Y-53316848D01*
X138599682Y-53451284D01*
X138599814Y-53589782D01*
X138560639Y-53715835D01*
X138559708Y-53717608D01*
X138484751Y-53808847D01*
X138371638Y-53882402D01*
X138230858Y-53935217D01*
X138072903Y-53964238D01*
X137987300Y-53965367D01*
X137908265Y-53966411D01*
X137775422Y-53945966D01*
X137620309Y-53887436D01*
X137495309Y-53797527D01*
X137404552Y-53683275D01*
X137352165Y-53551720D01*
X137342278Y-53409899D01*
X137353203Y-53366126D01*
X137528375Y-53366126D01*
X137535780Y-53495513D01*
X137589003Y-53608381D01*
X137683637Y-53695836D01*
X137695200Y-53702836D01*
X137758424Y-53731606D01*
X137834615Y-53747671D01*
X137939661Y-53753821D01*
X137987300Y-53754146D01*
X138145172Y-53744250D01*
X138261784Y-53713458D01*
X138343265Y-53659172D01*
X138394623Y-53581407D01*
X138419991Y-53517413D01*
X138427006Y-53469092D01*
X138415705Y-53413562D01*
X138395000Y-53352769D01*
X138366349Y-53278499D01*
X138336101Y-53225936D01*
X138295398Y-53191334D01*
X138235382Y-53170949D01*
X138147195Y-53161035D01*
X138021980Y-53157845D01*
X137933456Y-53157600D01*
X137787644Y-53158202D01*
X137684516Y-53162792D01*
X137615957Y-53175548D01*
X137573852Y-53200647D01*
X137550085Y-53242267D01*
X137536542Y-53304585D01*
X137528375Y-53366126D01*
X137353203Y-53366126D01*
X137377699Y-53267983D01*
X137402044Y-53207488D01*
X137415099Y-53170706D01*
X137415799Y-53167199D01*
X137392193Y-53163169D01*
X137328540Y-53159973D01*
X137235596Y-53158016D01*
X137161800Y-53157600D01*
X136907800Y-53157600D01*
X136907800Y-52954400D01*
X138584200Y-52954400D01*
X138584200Y-53056000D01*
G37*
X139041400Y-46820300D02*
X139035717Y-46881572D01*
X139013533Y-46906295D01*
X138990600Y-46909200D01*
X138957256Y-46910671D01*
X138944452Y-46921960D01*
X138953108Y-46953384D01*
X138984147Y-47015258D01*
X139003300Y-47051340D01*
X139055993Y-47195502D01*
X139061659Y-47336771D01*
X139020007Y-47467753D01*
X139019665Y-47468397D01*
X138970143Y-47533300D01*
X138895925Y-47600900D01*
X138850228Y-47633100D01*
X138792167Y-47667339D01*
X138741169Y-47689425D01*
X138683635Y-47702008D01*
X138605966Y-47707738D01*
X138494562Y-47709265D01*
X138459212Y-47709300D01*
X138397759Y-47708533D01*
X138330146Y-47707689D01*
X138238588Y-47701551D01*
X138171312Y-47688936D01*
X138115092Y-47667889D01*
X138088900Y-47654622D01*
X137955554Y-47558505D01*
X137860917Y-47438432D01*
X137807986Y-47301903D01*
X137801129Y-47180583D01*
X137988944Y-47180583D01*
X137992828Y-47267972D01*
X138012293Y-47327852D01*
X138054988Y-47382892D01*
X138058412Y-47386490D01*
X138152343Y-47456172D01*
X138268849Y-47500472D01*
X138397759Y-47520437D01*
X138528900Y-47517114D01*
X138652101Y-47491552D01*
X138757190Y-47444797D01*
X138833995Y-47377897D01*
X138870178Y-47302900D01*
X138871512Y-47209532D01*
X138841917Y-47087729D01*
X138832712Y-47061647D01*
X138808385Y-47003229D01*
X138779884Y-46961995D01*
X138738540Y-46934965D01*
X138675685Y-46919160D01*
X138582650Y-46911602D01*
X138450768Y-46909310D01*
X138389134Y-46909200D01*
X138049542Y-46909200D01*
X138020065Y-46979050D01*
X138002280Y-47046200D01*
X137990894Y-47136552D01*
X137988944Y-47180583D01*
X137801129Y-47180583D01*
X137799763Y-47156420D01*
X137834899Y-47019583D01*
X137859244Y-46959088D01*
X137872299Y-46922306D01*
X137873000Y-46918799D01*
X137849393Y-46914769D01*
X137785740Y-46911573D01*
X137692796Y-46909616D01*
X137619000Y-46909200D01*
X137365000Y-46909200D01*
X137365000Y-46731400D01*
X139041400Y-46731400D01*
X139041400Y-46820300D01*
G36*
X139041400Y-46820300D02*
G01*
X139035717Y-46881572D01*
X139013533Y-46906295D01*
X138990600Y-46909200D01*
X138957256Y-46910671D01*
X138944452Y-46921960D01*
X138953108Y-46953384D01*
X138984147Y-47015258D01*
X139003300Y-47051340D01*
X139055993Y-47195502D01*
X139061659Y-47336771D01*
X139020007Y-47467753D01*
X139019665Y-47468397D01*
X138970143Y-47533300D01*
X138895925Y-47600900D01*
X138850228Y-47633100D01*
X138792167Y-47667339D01*
X138741169Y-47689425D01*
X138683635Y-47702008D01*
X138605966Y-47707738D01*
X138494562Y-47709265D01*
X138459212Y-47709300D01*
X138397759Y-47708533D01*
X138330146Y-47707689D01*
X138238588Y-47701551D01*
X138171312Y-47688936D01*
X138115092Y-47667889D01*
X138088900Y-47654622D01*
X137955554Y-47558505D01*
X137860917Y-47438432D01*
X137807986Y-47301903D01*
X137801129Y-47180583D01*
X137988944Y-47180583D01*
X137992828Y-47267972D01*
X138012293Y-47327852D01*
X138054988Y-47382892D01*
X138058412Y-47386490D01*
X138152343Y-47456172D01*
X138268849Y-47500472D01*
X138397759Y-47520437D01*
X138528900Y-47517114D01*
X138652101Y-47491552D01*
X138757190Y-47444797D01*
X138833995Y-47377897D01*
X138870178Y-47302900D01*
X138871512Y-47209532D01*
X138841917Y-47087729D01*
X138832712Y-47061647D01*
X138808385Y-47003229D01*
X138779884Y-46961995D01*
X138738540Y-46934965D01*
X138675685Y-46919160D01*
X138582650Y-46911602D01*
X138450768Y-46909310D01*
X138389134Y-46909200D01*
X138049542Y-46909200D01*
X138020065Y-46979050D01*
X138002280Y-47046200D01*
X137990894Y-47136552D01*
X137988944Y-47180583D01*
X137801129Y-47180583D01*
X137799763Y-47156420D01*
X137834899Y-47019583D01*
X137859244Y-46959088D01*
X137872299Y-46922306D01*
X137873000Y-46918799D01*
X137849393Y-46914769D01*
X137785740Y-46911573D01*
X137692796Y-46909616D01*
X137619000Y-46909200D01*
X137365000Y-46909200D01*
X137365000Y-46731400D01*
X139041400Y-46731400D01*
X139041400Y-46820300D01*
G37*
X137542800Y-50592200D02*
X138166769Y-50592200D01*
X138364046Y-50591149D01*
X138534533Y-50588136D01*
X138672714Y-50583372D01*
X138773070Y-50577068D01*
X138830085Y-50569436D01*
X138838776Y-50566492D01*
X138880738Y-50518595D01*
X138903645Y-50441463D01*
X138903613Y-50354341D01*
X138891313Y-50306186D01*
X138877163Y-50261603D01*
X138887791Y-50241820D01*
X138933986Y-50236760D01*
X138965828Y-50236600D01*
X139032582Y-50241235D01*
X139061817Y-50259151D01*
X139066800Y-50284225D01*
X139070584Y-50345221D01*
X139077801Y-50404875D01*
X139079362Y-50483760D01*
X139068341Y-50560294D01*
X139049212Y-50624927D01*
X139023744Y-50676557D01*
X138986464Y-50716629D01*
X138931895Y-50746592D01*
X138854563Y-50767891D01*
X138748992Y-50781974D01*
X138609707Y-50790287D01*
X138431232Y-50794277D01*
X138208094Y-50795391D01*
X138178615Y-50795400D01*
X137542800Y-50795400D01*
X137542800Y-51303400D01*
X139066800Y-51303400D01*
X139066800Y-51481200D01*
X137542800Y-51481200D01*
X137542800Y-51557400D01*
X137537844Y-51608596D01*
X137512707Y-51629595D01*
X137453900Y-51633600D01*
X137394171Y-51629353D01*
X137369673Y-51607807D01*
X137365000Y-51557400D01*
X137359896Y-51505871D01*
X137334241Y-51484991D01*
X137277753Y-51481200D01*
X137135461Y-51460039D01*
X137022361Y-51399434D01*
X136941851Y-51303708D01*
X136897329Y-51177181D01*
X136892191Y-51024174D01*
X136895574Y-50995148D01*
X136907691Y-50921472D01*
X136924894Y-50885085D01*
X136958360Y-50872843D01*
X137000639Y-50871600D01*
X137088712Y-50871600D01*
X137071519Y-50986251D01*
X137069170Y-51111672D01*
X137102900Y-51206515D01*
X137171133Y-51267030D01*
X137193388Y-51276352D01*
X137267403Y-51300176D01*
X137316339Y-51305527D01*
X137345380Y-51285547D01*
X137359714Y-51233380D01*
X137364523Y-51142167D01*
X137365000Y-51049400D01*
X137365000Y-50795400D01*
X137034800Y-50795400D01*
X137034800Y-50592200D01*
X137365000Y-50592200D01*
X137365000Y-50236600D01*
X137542800Y-50236600D01*
X137542800Y-50592200D01*
G36*
X137542800Y-50592200D02*
G01*
X138166769Y-50592200D01*
X138364046Y-50591149D01*
X138534533Y-50588136D01*
X138672714Y-50583372D01*
X138773070Y-50577068D01*
X138830085Y-50569436D01*
X138838776Y-50566492D01*
X138880738Y-50518595D01*
X138903645Y-50441463D01*
X138903613Y-50354341D01*
X138891313Y-50306186D01*
X138877163Y-50261603D01*
X138887791Y-50241820D01*
X138933986Y-50236760D01*
X138965828Y-50236600D01*
X139032582Y-50241235D01*
X139061817Y-50259151D01*
X139066800Y-50284225D01*
X139070584Y-50345221D01*
X139077801Y-50404875D01*
X139079362Y-50483760D01*
X139068341Y-50560294D01*
X139049212Y-50624927D01*
X139023744Y-50676557D01*
X138986464Y-50716629D01*
X138931895Y-50746592D01*
X138854563Y-50767891D01*
X138748992Y-50781974D01*
X138609707Y-50790287D01*
X138431232Y-50794277D01*
X138208094Y-50795391D01*
X138178615Y-50795400D01*
X137542800Y-50795400D01*
X137542800Y-51303400D01*
X139066800Y-51303400D01*
X139066800Y-51481200D01*
X137542800Y-51481200D01*
X137542800Y-51557400D01*
X137537844Y-51608596D01*
X137512707Y-51629595D01*
X137453900Y-51633600D01*
X137394171Y-51629353D01*
X137369673Y-51607807D01*
X137365000Y-51557400D01*
X137359896Y-51505871D01*
X137334241Y-51484991D01*
X137277753Y-51481200D01*
X137135461Y-51460039D01*
X137022361Y-51399434D01*
X136941851Y-51303708D01*
X136897329Y-51177181D01*
X136892191Y-51024174D01*
X136895574Y-50995148D01*
X136907691Y-50921472D01*
X136924894Y-50885085D01*
X136958360Y-50872843D01*
X137000639Y-50871600D01*
X137088712Y-50871600D01*
X137071519Y-50986251D01*
X137069170Y-51111672D01*
X137102900Y-51206515D01*
X137171133Y-51267030D01*
X137193388Y-51276352D01*
X137267403Y-51300176D01*
X137316339Y-51305527D01*
X137345380Y-51285547D01*
X137359714Y-51233380D01*
X137364523Y-51142167D01*
X137365000Y-51049400D01*
X137365000Y-50795400D01*
X137034800Y-50795400D01*
X137034800Y-50592200D01*
X137365000Y-50592200D01*
X137365000Y-50236600D01*
X137542800Y-50236600D01*
X137542800Y-50592200D01*
G37*
X139041400Y-49244058D02*
X139038093Y-49310301D01*
X139022356Y-49340063D01*
X138985460Y-49347527D01*
X138977682Y-49347600D01*
X138913965Y-49347600D01*
X138990382Y-49483004D01*
X139052469Y-49631092D01*
X139066575Y-49768832D01*
X139032600Y-49893822D01*
X139009143Y-49934394D01*
X138914326Y-50034699D01*
X138794791Y-50091109D01*
X138655548Y-50101887D01*
X138653986Y-50102008D01*
X138652157Y-50101854D01*
X138521837Y-50070444D01*
X138418562Y-49999946D01*
X138341104Y-49888667D01*
X138288232Y-49734913D01*
X138261101Y-49563500D01*
X138249753Y-49461449D01*
X138237742Y-49399590D01*
X138221380Y-49367406D01*
X138196979Y-49354378D01*
X138187161Y-49352579D01*
X138132046Y-49363172D01*
X138069925Y-49399318D01*
X138064012Y-49404217D01*
X138005053Y-49487437D01*
X137979513Y-49602945D01*
X137988228Y-49744054D01*
X138009816Y-49836739D01*
X138032003Y-49915487D01*
X138046886Y-49972958D01*
X138050800Y-49992860D01*
X138028261Y-50002389D01*
X137972037Y-50007643D01*
X137950350Y-50008000D01*
X137884747Y-50004359D01*
X137852065Y-49984022D01*
X137834490Y-49932866D01*
X137830192Y-49912750D01*
X137813943Y-49789798D01*
X137810255Y-49652732D01*
X137818282Y-49518526D01*
X137837180Y-49404159D01*
X137856178Y-49347600D01*
X138399838Y-49347600D01*
X138417675Y-49505259D01*
X138448517Y-49673263D01*
X138498066Y-49794538D01*
X138566888Y-49869807D01*
X138655548Y-49899792D01*
X138723557Y-49895441D01*
X138811130Y-49857013D01*
X138865539Y-49785372D01*
X138884238Y-49687841D01*
X138864683Y-49571740D01*
X138849931Y-49531864D01*
X138804875Y-49438588D01*
X138756343Y-49383079D01*
X138689769Y-49355942D01*
X138590589Y-49347782D01*
X138564282Y-49347600D01*
X138399838Y-49347600D01*
X137856178Y-49347600D01*
X137858686Y-49340132D01*
X137890158Y-49282521D01*
X137926424Y-49238308D01*
X137974405Y-49205586D01*
X138041020Y-49182446D01*
X138133188Y-49166979D01*
X138257828Y-49157278D01*
X138421860Y-49151435D01*
X138552450Y-49148808D01*
X139041400Y-49140516D01*
X139041400Y-49244058D01*
G36*
X139041400Y-49244058D02*
G01*
X139038093Y-49310301D01*
X139022356Y-49340063D01*
X138985460Y-49347527D01*
X138977682Y-49347600D01*
X138913965Y-49347600D01*
X138990382Y-49483004D01*
X139052469Y-49631092D01*
X139066575Y-49768832D01*
X139032600Y-49893822D01*
X139009143Y-49934394D01*
X138914326Y-50034699D01*
X138794791Y-50091109D01*
X138655548Y-50101887D01*
X138653986Y-50102008D01*
X138652157Y-50101854D01*
X138521837Y-50070444D01*
X138418562Y-49999946D01*
X138341104Y-49888667D01*
X138288232Y-49734913D01*
X138261101Y-49563500D01*
X138249753Y-49461449D01*
X138237742Y-49399590D01*
X138221380Y-49367406D01*
X138196979Y-49354378D01*
X138187161Y-49352579D01*
X138132046Y-49363172D01*
X138069925Y-49399318D01*
X138064012Y-49404217D01*
X138005053Y-49487437D01*
X137979513Y-49602945D01*
X137988228Y-49744054D01*
X138009816Y-49836739D01*
X138032003Y-49915487D01*
X138046886Y-49972958D01*
X138050800Y-49992860D01*
X138028261Y-50002389D01*
X137972037Y-50007643D01*
X137950350Y-50008000D01*
X137884747Y-50004359D01*
X137852065Y-49984022D01*
X137834490Y-49932866D01*
X137830192Y-49912750D01*
X137813943Y-49789798D01*
X137810255Y-49652732D01*
X137818282Y-49518526D01*
X137837180Y-49404159D01*
X137856178Y-49347600D01*
X138399838Y-49347600D01*
X138417675Y-49505259D01*
X138448517Y-49673263D01*
X138498066Y-49794538D01*
X138566888Y-49869807D01*
X138655548Y-49899792D01*
X138723557Y-49895441D01*
X138811130Y-49857013D01*
X138865539Y-49785372D01*
X138884238Y-49687841D01*
X138864683Y-49571740D01*
X138849931Y-49531864D01*
X138804875Y-49438588D01*
X138756343Y-49383079D01*
X138689769Y-49355942D01*
X138590589Y-49347782D01*
X138564282Y-49347600D01*
X138399838Y-49347600D01*
X137856178Y-49347600D01*
X137858686Y-49340132D01*
X137890158Y-49282521D01*
X137926424Y-49238308D01*
X137974405Y-49205586D01*
X138041020Y-49182446D01*
X138133188Y-49166979D01*
X138257828Y-49157278D01*
X138421860Y-49151435D01*
X138552450Y-49148808D01*
X139041400Y-49140516D01*
X139041400Y-49244058D01*
G37*
M02*
