M48
; DRILL file KiCad 10.0.1 date 2026-06-04T08:24:55
; FORMAT={-:-/ absolute / metric / decimal}
; #@! TF.CreationDate,2026-06-04T08:24:55-07:00
; #@! TF.GenerationSoftware,Kicad,Pcbnew,10.0.1
; #@! TF.FileFunction,Plated,1,2,PTH
FMAT,2
METRIC
; #@! TA.AperFunction,Plated,PTH,ComponentDrill
T1C0.800
; #@! TA.AperFunction,Plated,PTH,ComponentDrill
T2C1.000
%
G90
G05
T1
X84.928Y-89.118
X84.928Y-91.118
X84.928Y-93.118
X84.928Y-95.118
X84.928Y-97.118
X86.928Y-89.118
X86.928Y-91.118
X86.928Y-93.118
X86.928Y-95.118
X86.928Y-97.118
X93.808Y-67.468
X93.808Y-71.518
X93.808Y-75.568
X93.808Y-79.618
X93.808Y-83.668
X93.808Y-87.718
X93.808Y-91.768
X93.808Y-95.818
X93.808Y-99.868
X93.808Y-103.918
X93.808Y-107.968
X93.808Y-112.018
X93.808Y-116.068
X93.808Y-120.118
X101.428Y-67.468
X101.428Y-71.518
X101.428Y-75.568
X101.428Y-79.618
X101.428Y-83.668
X101.428Y-87.718
X101.428Y-91.768
X101.428Y-95.818
X101.428Y-99.868
X101.428Y-103.918
X101.428Y-107.968
X101.428Y-112.018
X101.428Y-116.068
X101.428Y-120.118
T2
X110.238Y-69.725
X110.238Y-72.265
X110.238Y-74.805
X110.238Y-77.345
X110.238Y-79.885
X110.238Y-82.425
X110.238Y-84.965
X110.238Y-87.505
X110.238Y-90.045
X110.238Y-92.585
X110.238Y-95.125
X110.238Y-97.665
X110.238Y-100.205
X110.238Y-102.745
X110.238Y-105.285
X110.238Y-107.825
X110.238Y-110.365
X110.238Y-112.905
X110.238Y-115.445
X110.238Y-117.985
X128.018Y-69.725
X128.018Y-72.265
X128.018Y-74.805
X128.018Y-77.345
X128.018Y-79.885
X128.018Y-82.425
X128.018Y-84.965
X128.018Y-87.505
X128.018Y-90.045
X128.018Y-92.585
X128.018Y-95.125
X128.018Y-97.665
X128.018Y-100.205
X128.018Y-102.745
X128.018Y-105.285
X128.018Y-107.825
X128.018Y-110.365
X128.018Y-112.905
X128.018Y-115.445
X128.018Y-117.985
X136.728Y-86.298
X136.728Y-88.838
X136.728Y-91.378
X136.728Y-93.918
X136.728Y-96.458
X136.728Y-98.998
X136.728Y-101.538
M30
