G04 #@! TF.GenerationSoftware,KiCad,Pcbnew,10.0.1*
G04 #@! TF.CreationDate,2026-06-04T08:24:52-07:00*
G04 #@! TF.ProjectId,Pico_FZ1_OLED_PCB,5069636f-5f46-45a3-915f-4f4c45445f50,rev?*
G04 #@! TF.SameCoordinates,Original*
G04 #@! TF.FileFunction,Legend,Top*
G04 #@! TF.FilePolarity,Positive*
%FSLAX46Y46*%
G04 Gerber Fmt 4.6, Leading zero omitted, Abs format (unit mm)*
G04 Created by KiCad (PCBNEW 10.0.1) date 2026-06-04 08:24:52*
%MOMM*%
%LPD*%
G01*
G04 APERTURE LIST*
%ADD10C,0.150000*%
%ADD11C,0.200000*%
%ADD12C,1.250000*%
%ADD13C,0.120000*%
G04 APERTURE END LIST*
D10*
X137000000Y-109000000D02*
X145000000Y-109000000D01*
X145000000Y-110000000D01*
X137000000Y-110000000D01*
X137000000Y-109000000D01*
G36*
X137000000Y-109000000D02*
G01*
X145000000Y-109000000D01*
X145000000Y-110000000D01*
X137000000Y-110000000D01*
X137000000Y-109000000D01*
G37*
D11*
X151117799Y-109395915D02*
X143000000Y-113395915D01*
X143000000Y-105395915D01*
X151117799Y-109395915D01*
G36*
X151117799Y-109395915D02*
G01*
X143000000Y-113395915D01*
X143000000Y-105395915D01*
X151117799Y-109395915D01*
G37*
D12*
X149948904Y-92012844D02*
X145901285Y-92012844D01*
X145901285Y-92012844D02*
X145425095Y-92250939D01*
X145425095Y-92250939D02*
X145187000Y-92489034D01*
X145187000Y-92489034D02*
X144948904Y-92965225D01*
X144948904Y-92965225D02*
X144948904Y-93917606D01*
X144948904Y-93917606D02*
X145187000Y-94393796D01*
X145187000Y-94393796D02*
X145425095Y-94631891D01*
X145425095Y-94631891D02*
X145901285Y-94869987D01*
X145901285Y-94869987D02*
X149948904Y-94869987D01*
X144948904Y-97250939D02*
X149948904Y-97250939D01*
X149948904Y-97250939D02*
X149948904Y-99155701D01*
X149948904Y-99155701D02*
X149710809Y-99631891D01*
X149710809Y-99631891D02*
X149472714Y-99869986D01*
X149472714Y-99869986D02*
X148996523Y-100108082D01*
X148996523Y-100108082D02*
X148282238Y-100108082D01*
X148282238Y-100108082D02*
X147806047Y-99869986D01*
X147806047Y-99869986D02*
X147567952Y-99631891D01*
X147567952Y-99631891D02*
X147329857Y-99155701D01*
X147329857Y-99155701D02*
X147329857Y-97250939D01*
D10*
X83328236Y-89117799D02*
X82328236Y-90117799D01*
X82328236Y-88117799D01*
X83328236Y-89117799D01*
G36*
X83328236Y-89117799D02*
G01*
X82328236Y-90117799D01*
X82328236Y-88117799D01*
X83328236Y-89117799D01*
G37*
X104065015Y-125357786D02*
X104065015Y-124357786D01*
X104065015Y-124357786D02*
X104303110Y-124357786D01*
X104303110Y-124357786D02*
X104445967Y-124405405D01*
X104445967Y-124405405D02*
X104541205Y-124500643D01*
X104541205Y-124500643D02*
X104588824Y-124595881D01*
X104588824Y-124595881D02*
X104636443Y-124786357D01*
X104636443Y-124786357D02*
X104636443Y-124929214D01*
X104636443Y-124929214D02*
X104588824Y-125119690D01*
X104588824Y-125119690D02*
X104541205Y-125214928D01*
X104541205Y-125214928D02*
X104445967Y-125310167D01*
X104445967Y-125310167D02*
X104303110Y-125357786D01*
X104303110Y-125357786D02*
X104065015Y-125357786D01*
X105445967Y-125310167D02*
X105350729Y-125357786D01*
X105350729Y-125357786D02*
X105160253Y-125357786D01*
X105160253Y-125357786D02*
X105065015Y-125310167D01*
X105065015Y-125310167D02*
X105017396Y-125214928D01*
X105017396Y-125214928D02*
X105017396Y-124833976D01*
X105017396Y-124833976D02*
X105065015Y-124738738D01*
X105065015Y-124738738D02*
X105160253Y-124691119D01*
X105160253Y-124691119D02*
X105350729Y-124691119D01*
X105350729Y-124691119D02*
X105445967Y-124738738D01*
X105445967Y-124738738D02*
X105493586Y-124833976D01*
X105493586Y-124833976D02*
X105493586Y-124929214D01*
X105493586Y-124929214D02*
X105017396Y-125024452D01*
X105874539Y-125310167D02*
X105969777Y-125357786D01*
X105969777Y-125357786D02*
X106160253Y-125357786D01*
X106160253Y-125357786D02*
X106255491Y-125310167D01*
X106255491Y-125310167D02*
X106303110Y-125214928D01*
X106303110Y-125214928D02*
X106303110Y-125167309D01*
X106303110Y-125167309D02*
X106255491Y-125072071D01*
X106255491Y-125072071D02*
X106160253Y-125024452D01*
X106160253Y-125024452D02*
X106017396Y-125024452D01*
X106017396Y-125024452D02*
X105922158Y-124976833D01*
X105922158Y-124976833D02*
X105874539Y-124881595D01*
X105874539Y-124881595D02*
X105874539Y-124833976D01*
X105874539Y-124833976D02*
X105922158Y-124738738D01*
X105922158Y-124738738D02*
X106017396Y-124691119D01*
X106017396Y-124691119D02*
X106160253Y-124691119D01*
X106160253Y-124691119D02*
X106255491Y-124738738D01*
X106731682Y-125357786D02*
X106731682Y-124691119D01*
X106731682Y-124357786D02*
X106684063Y-124405405D01*
X106684063Y-124405405D02*
X106731682Y-124453024D01*
X106731682Y-124453024D02*
X106779301Y-124405405D01*
X106779301Y-124405405D02*
X106731682Y-124357786D01*
X106731682Y-124357786D02*
X106731682Y-124453024D01*
X107636443Y-124691119D02*
X107636443Y-125500643D01*
X107636443Y-125500643D02*
X107588824Y-125595881D01*
X107588824Y-125595881D02*
X107541205Y-125643500D01*
X107541205Y-125643500D02*
X107445967Y-125691119D01*
X107445967Y-125691119D02*
X107303110Y-125691119D01*
X107303110Y-125691119D02*
X107207872Y-125643500D01*
X107636443Y-125310167D02*
X107541205Y-125357786D01*
X107541205Y-125357786D02*
X107350729Y-125357786D01*
X107350729Y-125357786D02*
X107255491Y-125310167D01*
X107255491Y-125310167D02*
X107207872Y-125262547D01*
X107207872Y-125262547D02*
X107160253Y-125167309D01*
X107160253Y-125167309D02*
X107160253Y-124881595D01*
X107160253Y-124881595D02*
X107207872Y-124786357D01*
X107207872Y-124786357D02*
X107255491Y-124738738D01*
X107255491Y-124738738D02*
X107350729Y-124691119D01*
X107350729Y-124691119D02*
X107541205Y-124691119D01*
X107541205Y-124691119D02*
X107636443Y-124738738D01*
X108112634Y-124691119D02*
X108112634Y-125357786D01*
X108112634Y-124786357D02*
X108160253Y-124738738D01*
X108160253Y-124738738D02*
X108255491Y-124691119D01*
X108255491Y-124691119D02*
X108398348Y-124691119D01*
X108398348Y-124691119D02*
X108493586Y-124738738D01*
X108493586Y-124738738D02*
X108541205Y-124833976D01*
X108541205Y-124833976D02*
X108541205Y-125357786D01*
X109398348Y-125310167D02*
X109303110Y-125357786D01*
X109303110Y-125357786D02*
X109112634Y-125357786D01*
X109112634Y-125357786D02*
X109017396Y-125310167D01*
X109017396Y-125310167D02*
X108969777Y-125214928D01*
X108969777Y-125214928D02*
X108969777Y-124833976D01*
X108969777Y-124833976D02*
X109017396Y-124738738D01*
X109017396Y-124738738D02*
X109112634Y-124691119D01*
X109112634Y-124691119D02*
X109303110Y-124691119D01*
X109303110Y-124691119D02*
X109398348Y-124738738D01*
X109398348Y-124738738D02*
X109445967Y-124833976D01*
X109445967Y-124833976D02*
X109445967Y-124929214D01*
X109445967Y-124929214D02*
X108969777Y-125024452D01*
X110303110Y-125357786D02*
X110303110Y-124357786D01*
X110303110Y-125310167D02*
X110207872Y-125357786D01*
X110207872Y-125357786D02*
X110017396Y-125357786D01*
X110017396Y-125357786D02*
X109922158Y-125310167D01*
X109922158Y-125310167D02*
X109874539Y-125262547D01*
X109874539Y-125262547D02*
X109826920Y-125167309D01*
X109826920Y-125167309D02*
X109826920Y-124881595D01*
X109826920Y-124881595D02*
X109874539Y-124786357D01*
X109874539Y-124786357D02*
X109922158Y-124738738D01*
X109922158Y-124738738D02*
X110017396Y-124691119D01*
X110017396Y-124691119D02*
X110207872Y-124691119D01*
X110207872Y-124691119D02*
X110303110Y-124738738D01*
X111541206Y-125357786D02*
X111541206Y-124357786D01*
X111541206Y-124738738D02*
X111636444Y-124691119D01*
X111636444Y-124691119D02*
X111826920Y-124691119D01*
X111826920Y-124691119D02*
X111922158Y-124738738D01*
X111922158Y-124738738D02*
X111969777Y-124786357D01*
X111969777Y-124786357D02*
X112017396Y-124881595D01*
X112017396Y-124881595D02*
X112017396Y-125167309D01*
X112017396Y-125167309D02*
X111969777Y-125262547D01*
X111969777Y-125262547D02*
X111922158Y-125310167D01*
X111922158Y-125310167D02*
X111826920Y-125357786D01*
X111826920Y-125357786D02*
X111636444Y-125357786D01*
X111636444Y-125357786D02*
X111541206Y-125310167D01*
X112350730Y-124691119D02*
X112588825Y-125357786D01*
X112826920Y-124691119D02*
X112588825Y-125357786D01*
X112588825Y-125357786D02*
X112493587Y-125595881D01*
X112493587Y-125595881D02*
X112445968Y-125643500D01*
X112445968Y-125643500D02*
X112350730Y-125691119D01*
X114255492Y-124357786D02*
X114255492Y-125072071D01*
X114255492Y-125072071D02*
X114207873Y-125214928D01*
X114207873Y-125214928D02*
X114112635Y-125310167D01*
X114112635Y-125310167D02*
X113969778Y-125357786D01*
X113969778Y-125357786D02*
X113874540Y-125357786D01*
X114874540Y-125357786D02*
X114779302Y-125310167D01*
X114779302Y-125310167D02*
X114731683Y-125262547D01*
X114731683Y-125262547D02*
X114684064Y-125167309D01*
X114684064Y-125167309D02*
X114684064Y-124881595D01*
X114684064Y-124881595D02*
X114731683Y-124786357D01*
X114731683Y-124786357D02*
X114779302Y-124738738D01*
X114779302Y-124738738D02*
X114874540Y-124691119D01*
X114874540Y-124691119D02*
X115017397Y-124691119D01*
X115017397Y-124691119D02*
X115112635Y-124738738D01*
X115112635Y-124738738D02*
X115160254Y-124786357D01*
X115160254Y-124786357D02*
X115207873Y-124881595D01*
X115207873Y-124881595D02*
X115207873Y-125167309D01*
X115207873Y-125167309D02*
X115160254Y-125262547D01*
X115160254Y-125262547D02*
X115112635Y-125310167D01*
X115112635Y-125310167D02*
X115017397Y-125357786D01*
X115017397Y-125357786D02*
X114874540Y-125357786D01*
X115636445Y-124691119D02*
X115636445Y-125357786D01*
X115636445Y-124786357D02*
X115684064Y-124738738D01*
X115684064Y-124738738D02*
X115779302Y-124691119D01*
X115779302Y-124691119D02*
X115922159Y-124691119D01*
X115922159Y-124691119D02*
X116017397Y-124738738D01*
X116017397Y-124738738D02*
X116065016Y-124833976D01*
X116065016Y-124833976D02*
X116065016Y-125357786D01*
X116541207Y-124691119D02*
X116541207Y-125357786D01*
X116541207Y-124786357D02*
X116588826Y-124738738D01*
X116588826Y-124738738D02*
X116684064Y-124691119D01*
X116684064Y-124691119D02*
X116826921Y-124691119D01*
X116826921Y-124691119D02*
X116922159Y-124738738D01*
X116922159Y-124738738D02*
X116969778Y-124833976D01*
X116969778Y-124833976D02*
X116969778Y-125357786D01*
X117350731Y-124691119D02*
X117588826Y-125357786D01*
X117826921Y-124691119D02*
X117588826Y-125357786D01*
X117588826Y-125357786D02*
X117493588Y-125595881D01*
X117493588Y-125595881D02*
X117445969Y-125643500D01*
X117445969Y-125643500D02*
X117350731Y-125691119D01*
X118874541Y-124357786D02*
X119112636Y-125357786D01*
X119112636Y-125357786D02*
X119303112Y-124643500D01*
X119303112Y-124643500D02*
X119493588Y-125357786D01*
X119493588Y-125357786D02*
X119731684Y-124357786D01*
X120255493Y-125357786D02*
X120160255Y-125310167D01*
X120160255Y-125310167D02*
X120112636Y-125262547D01*
X120112636Y-125262547D02*
X120065017Y-125167309D01*
X120065017Y-125167309D02*
X120065017Y-124881595D01*
X120065017Y-124881595D02*
X120112636Y-124786357D01*
X120112636Y-124786357D02*
X120160255Y-124738738D01*
X120160255Y-124738738D02*
X120255493Y-124691119D01*
X120255493Y-124691119D02*
X120398350Y-124691119D01*
X120398350Y-124691119D02*
X120493588Y-124738738D01*
X120493588Y-124738738D02*
X120541207Y-124786357D01*
X120541207Y-124786357D02*
X120588826Y-124881595D01*
X120588826Y-124881595D02*
X120588826Y-125167309D01*
X120588826Y-125167309D02*
X120541207Y-125262547D01*
X120541207Y-125262547D02*
X120493588Y-125310167D01*
X120493588Y-125310167D02*
X120398350Y-125357786D01*
X120398350Y-125357786D02*
X120255493Y-125357786D01*
X121160255Y-125357786D02*
X121065017Y-125310167D01*
X121065017Y-125310167D02*
X121017398Y-125262547D01*
X121017398Y-125262547D02*
X120969779Y-125167309D01*
X120969779Y-125167309D02*
X120969779Y-124881595D01*
X120969779Y-124881595D02*
X121017398Y-124786357D01*
X121017398Y-124786357D02*
X121065017Y-124738738D01*
X121065017Y-124738738D02*
X121160255Y-124691119D01*
X121160255Y-124691119D02*
X121303112Y-124691119D01*
X121303112Y-124691119D02*
X121398350Y-124738738D01*
X121398350Y-124738738D02*
X121445969Y-124786357D01*
X121445969Y-124786357D02*
X121493588Y-124881595D01*
X121493588Y-124881595D02*
X121493588Y-125167309D01*
X121493588Y-125167309D02*
X121445969Y-125262547D01*
X121445969Y-125262547D02*
X121398350Y-125310167D01*
X121398350Y-125310167D02*
X121303112Y-125357786D01*
X121303112Y-125357786D02*
X121160255Y-125357786D01*
X122350731Y-125357786D02*
X122350731Y-124357786D01*
X122350731Y-125310167D02*
X122255493Y-125357786D01*
X122255493Y-125357786D02*
X122065017Y-125357786D01*
X122065017Y-125357786D02*
X121969779Y-125310167D01*
X121969779Y-125310167D02*
X121922160Y-125262547D01*
X121922160Y-125262547D02*
X121874541Y-125167309D01*
X121874541Y-125167309D02*
X121874541Y-124881595D01*
X121874541Y-124881595D02*
X121922160Y-124786357D01*
X121922160Y-124786357D02*
X121969779Y-124738738D01*
X121969779Y-124738738D02*
X122065017Y-124691119D01*
X122065017Y-124691119D02*
X122255493Y-124691119D01*
X122255493Y-124691119D02*
X122350731Y-124738738D01*
X122731684Y-124691119D02*
X122922160Y-125357786D01*
X122922160Y-125357786D02*
X123112636Y-124881595D01*
X123112636Y-124881595D02*
X123303112Y-125357786D01*
X123303112Y-125357786D02*
X123493588Y-124691119D01*
X124303112Y-125357786D02*
X124303112Y-124833976D01*
X124303112Y-124833976D02*
X124255493Y-124738738D01*
X124255493Y-124738738D02*
X124160255Y-124691119D01*
X124160255Y-124691119D02*
X123969779Y-124691119D01*
X123969779Y-124691119D02*
X123874541Y-124738738D01*
X124303112Y-125310167D02*
X124207874Y-125357786D01*
X124207874Y-125357786D02*
X123969779Y-125357786D01*
X123969779Y-125357786D02*
X123874541Y-125310167D01*
X123874541Y-125310167D02*
X123826922Y-125214928D01*
X123826922Y-125214928D02*
X123826922Y-125119690D01*
X123826922Y-125119690D02*
X123874541Y-125024452D01*
X123874541Y-125024452D02*
X123969779Y-124976833D01*
X123969779Y-124976833D02*
X124207874Y-124976833D01*
X124207874Y-124976833D02*
X124303112Y-124929214D01*
X124779303Y-125357786D02*
X124779303Y-124691119D01*
X124779303Y-124881595D02*
X124826922Y-124786357D01*
X124826922Y-124786357D02*
X124874541Y-124738738D01*
X124874541Y-124738738D02*
X124969779Y-124691119D01*
X124969779Y-124691119D02*
X125065017Y-124691119D01*
X125826922Y-125357786D02*
X125826922Y-124357786D01*
X125826922Y-125310167D02*
X125731684Y-125357786D01*
X125731684Y-125357786D02*
X125541208Y-125357786D01*
X125541208Y-125357786D02*
X125445970Y-125310167D01*
X125445970Y-125310167D02*
X125398351Y-125262547D01*
X125398351Y-125262547D02*
X125350732Y-125167309D01*
X125350732Y-125167309D02*
X125350732Y-124881595D01*
X125350732Y-124881595D02*
X125398351Y-124786357D01*
X125398351Y-124786357D02*
X125445970Y-124738738D01*
X125445970Y-124738738D02*
X125541208Y-124691119D01*
X125541208Y-124691119D02*
X125731684Y-124691119D01*
X125731684Y-124691119D02*
X125826922Y-124738738D01*
X104493586Y-126967730D02*
X104493586Y-126443920D01*
X104493586Y-126443920D02*
X104445967Y-126348682D01*
X104445967Y-126348682D02*
X104350729Y-126301063D01*
X104350729Y-126301063D02*
X104160253Y-126301063D01*
X104160253Y-126301063D02*
X104065015Y-126348682D01*
X104493586Y-126920111D02*
X104398348Y-126967730D01*
X104398348Y-126967730D02*
X104160253Y-126967730D01*
X104160253Y-126967730D02*
X104065015Y-126920111D01*
X104065015Y-126920111D02*
X104017396Y-126824872D01*
X104017396Y-126824872D02*
X104017396Y-126729634D01*
X104017396Y-126729634D02*
X104065015Y-126634396D01*
X104065015Y-126634396D02*
X104160253Y-126586777D01*
X104160253Y-126586777D02*
X104398348Y-126586777D01*
X104398348Y-126586777D02*
X104493586Y-126539158D01*
X104969777Y-126301063D02*
X104969777Y-126967730D01*
X104969777Y-126396301D02*
X105017396Y-126348682D01*
X105017396Y-126348682D02*
X105112634Y-126301063D01*
X105112634Y-126301063D02*
X105255491Y-126301063D01*
X105255491Y-126301063D02*
X105350729Y-126348682D01*
X105350729Y-126348682D02*
X105398348Y-126443920D01*
X105398348Y-126443920D02*
X105398348Y-126967730D01*
X106303110Y-126967730D02*
X106303110Y-125967730D01*
X106303110Y-126920111D02*
X106207872Y-126967730D01*
X106207872Y-126967730D02*
X106017396Y-126967730D01*
X106017396Y-126967730D02*
X105922158Y-126920111D01*
X105922158Y-126920111D02*
X105874539Y-126872491D01*
X105874539Y-126872491D02*
X105826920Y-126777253D01*
X105826920Y-126777253D02*
X105826920Y-126491539D01*
X105826920Y-126491539D02*
X105874539Y-126396301D01*
X105874539Y-126396301D02*
X105922158Y-126348682D01*
X105922158Y-126348682D02*
X106017396Y-126301063D01*
X106017396Y-126301063D02*
X106207872Y-126301063D01*
X106207872Y-126301063D02*
X106303110Y-126348682D01*
X107541206Y-126967730D02*
X107541206Y-125967730D01*
X107541206Y-125967730D02*
X107779301Y-125967730D01*
X107779301Y-125967730D02*
X107922158Y-126015349D01*
X107922158Y-126015349D02*
X108017396Y-126110587D01*
X108017396Y-126110587D02*
X108065015Y-126205825D01*
X108065015Y-126205825D02*
X108112634Y-126396301D01*
X108112634Y-126396301D02*
X108112634Y-126539158D01*
X108112634Y-126539158D02*
X108065015Y-126729634D01*
X108065015Y-126729634D02*
X108017396Y-126824872D01*
X108017396Y-126824872D02*
X107922158Y-126920111D01*
X107922158Y-126920111D02*
X107779301Y-126967730D01*
X107779301Y-126967730D02*
X107541206Y-126967730D01*
X108922158Y-126920111D02*
X108826920Y-126967730D01*
X108826920Y-126967730D02*
X108636444Y-126967730D01*
X108636444Y-126967730D02*
X108541206Y-126920111D01*
X108541206Y-126920111D02*
X108493587Y-126824872D01*
X108493587Y-126824872D02*
X108493587Y-126443920D01*
X108493587Y-126443920D02*
X108541206Y-126348682D01*
X108541206Y-126348682D02*
X108636444Y-126301063D01*
X108636444Y-126301063D02*
X108826920Y-126301063D01*
X108826920Y-126301063D02*
X108922158Y-126348682D01*
X108922158Y-126348682D02*
X108969777Y-126443920D01*
X108969777Y-126443920D02*
X108969777Y-126539158D01*
X108969777Y-126539158D02*
X108493587Y-126634396D01*
X109255492Y-126301063D02*
X109636444Y-126301063D01*
X109398349Y-126967730D02*
X109398349Y-126110587D01*
X109398349Y-126110587D02*
X109445968Y-126015349D01*
X109445968Y-126015349D02*
X109541206Y-125967730D01*
X109541206Y-125967730D02*
X109636444Y-125967730D01*
X109826921Y-126301063D02*
X110207873Y-126301063D01*
X109969778Y-125967730D02*
X109969778Y-126824872D01*
X109969778Y-126824872D02*
X110017397Y-126920111D01*
X110017397Y-126920111D02*
X110112635Y-126967730D01*
X110112635Y-126967730D02*
X110207873Y-126967730D01*
X110969778Y-126967730D02*
X110969778Y-126443920D01*
X110969778Y-126443920D02*
X110922159Y-126348682D01*
X110922159Y-126348682D02*
X110826921Y-126301063D01*
X110826921Y-126301063D02*
X110636445Y-126301063D01*
X110636445Y-126301063D02*
X110541207Y-126348682D01*
X110969778Y-126920111D02*
X110874540Y-126967730D01*
X110874540Y-126967730D02*
X110636445Y-126967730D01*
X110636445Y-126967730D02*
X110541207Y-126920111D01*
X110541207Y-126920111D02*
X110493588Y-126824872D01*
X110493588Y-126824872D02*
X110493588Y-126729634D01*
X110493588Y-126729634D02*
X110541207Y-126634396D01*
X110541207Y-126634396D02*
X110636445Y-126586777D01*
X110636445Y-126586777D02*
X110874540Y-126586777D01*
X110874540Y-126586777D02*
X110969778Y-126539158D01*
X111874540Y-126301063D02*
X111874540Y-126967730D01*
X111445969Y-126301063D02*
X111445969Y-126824872D01*
X111445969Y-126824872D02*
X111493588Y-126920111D01*
X111493588Y-126920111D02*
X111588826Y-126967730D01*
X111588826Y-126967730D02*
X111731683Y-126967730D01*
X111731683Y-126967730D02*
X111826921Y-126920111D01*
X111826921Y-126920111D02*
X111874540Y-126872491D01*
X112779302Y-126967730D02*
X112779302Y-125967730D01*
X112779302Y-126920111D02*
X112684064Y-126967730D01*
X112684064Y-126967730D02*
X112493588Y-126967730D01*
X112493588Y-126967730D02*
X112398350Y-126920111D01*
X112398350Y-126920111D02*
X112350731Y-126872491D01*
X112350731Y-126872491D02*
X112303112Y-126777253D01*
X112303112Y-126777253D02*
X112303112Y-126491539D01*
X112303112Y-126491539D02*
X112350731Y-126396301D01*
X112350731Y-126396301D02*
X112398350Y-126348682D01*
X112398350Y-126348682D02*
X112493588Y-126301063D01*
X112493588Y-126301063D02*
X112684064Y-126301063D01*
X112684064Y-126301063D02*
X112779302Y-126348682D01*
X113255493Y-126967730D02*
X113255493Y-126301063D01*
X113255493Y-125967730D02*
X113207874Y-126015349D01*
X113207874Y-126015349D02*
X113255493Y-126062968D01*
X113255493Y-126062968D02*
X113303112Y-126015349D01*
X113303112Y-126015349D02*
X113255493Y-125967730D01*
X113255493Y-125967730D02*
X113255493Y-126062968D01*
X113874540Y-126967730D02*
X113779302Y-126920111D01*
X113779302Y-126920111D02*
X113731683Y-126872491D01*
X113731683Y-126872491D02*
X113684064Y-126777253D01*
X113684064Y-126777253D02*
X113684064Y-126491539D01*
X113684064Y-126491539D02*
X113731683Y-126396301D01*
X113731683Y-126396301D02*
X113779302Y-126348682D01*
X113779302Y-126348682D02*
X113874540Y-126301063D01*
X113874540Y-126301063D02*
X114017397Y-126301063D01*
X114017397Y-126301063D02*
X114112635Y-126348682D01*
X114112635Y-126348682D02*
X114160254Y-126396301D01*
X114160254Y-126396301D02*
X114207873Y-126491539D01*
X114207873Y-126491539D02*
X114207873Y-126777253D01*
X114207873Y-126777253D02*
X114160254Y-126872491D01*
X114160254Y-126872491D02*
X114112635Y-126920111D01*
X114112635Y-126920111D02*
X114017397Y-126967730D01*
X114017397Y-126967730D02*
X113874540Y-126967730D01*
X115350731Y-126062968D02*
X115398350Y-126015349D01*
X115398350Y-126015349D02*
X115493588Y-125967730D01*
X115493588Y-125967730D02*
X115731683Y-125967730D01*
X115731683Y-125967730D02*
X115826921Y-126015349D01*
X115826921Y-126015349D02*
X115874540Y-126062968D01*
X115874540Y-126062968D02*
X115922159Y-126158206D01*
X115922159Y-126158206D02*
X115922159Y-126253444D01*
X115922159Y-126253444D02*
X115874540Y-126396301D01*
X115874540Y-126396301D02*
X115303112Y-126967730D01*
X115303112Y-126967730D02*
X115922159Y-126967730D01*
X116541207Y-125967730D02*
X116636445Y-125967730D01*
X116636445Y-125967730D02*
X116731683Y-126015349D01*
X116731683Y-126015349D02*
X116779302Y-126062968D01*
X116779302Y-126062968D02*
X116826921Y-126158206D01*
X116826921Y-126158206D02*
X116874540Y-126348682D01*
X116874540Y-126348682D02*
X116874540Y-126586777D01*
X116874540Y-126586777D02*
X116826921Y-126777253D01*
X116826921Y-126777253D02*
X116779302Y-126872491D01*
X116779302Y-126872491D02*
X116731683Y-126920111D01*
X116731683Y-126920111D02*
X116636445Y-126967730D01*
X116636445Y-126967730D02*
X116541207Y-126967730D01*
X116541207Y-126967730D02*
X116445969Y-126920111D01*
X116445969Y-126920111D02*
X116398350Y-126872491D01*
X116398350Y-126872491D02*
X116350731Y-126777253D01*
X116350731Y-126777253D02*
X116303112Y-126586777D01*
X116303112Y-126586777D02*
X116303112Y-126348682D01*
X116303112Y-126348682D02*
X116350731Y-126158206D01*
X116350731Y-126158206D02*
X116398350Y-126062968D01*
X116398350Y-126062968D02*
X116445969Y-126015349D01*
X116445969Y-126015349D02*
X116541207Y-125967730D01*
X117255493Y-126062968D02*
X117303112Y-126015349D01*
X117303112Y-126015349D02*
X117398350Y-125967730D01*
X117398350Y-125967730D02*
X117636445Y-125967730D01*
X117636445Y-125967730D02*
X117731683Y-126015349D01*
X117731683Y-126015349D02*
X117779302Y-126062968D01*
X117779302Y-126062968D02*
X117826921Y-126158206D01*
X117826921Y-126158206D02*
X117826921Y-126253444D01*
X117826921Y-126253444D02*
X117779302Y-126396301D01*
X117779302Y-126396301D02*
X117207874Y-126967730D01*
X117207874Y-126967730D02*
X117826921Y-126967730D01*
X118684064Y-125967730D02*
X118493588Y-125967730D01*
X118493588Y-125967730D02*
X118398350Y-126015349D01*
X118398350Y-126015349D02*
X118350731Y-126062968D01*
X118350731Y-126062968D02*
X118255493Y-126205825D01*
X118255493Y-126205825D02*
X118207874Y-126396301D01*
X118207874Y-126396301D02*
X118207874Y-126777253D01*
X118207874Y-126777253D02*
X118255493Y-126872491D01*
X118255493Y-126872491D02*
X118303112Y-126920111D01*
X118303112Y-126920111D02*
X118398350Y-126967730D01*
X118398350Y-126967730D02*
X118588826Y-126967730D01*
X118588826Y-126967730D02*
X118684064Y-126920111D01*
X118684064Y-126920111D02*
X118731683Y-126872491D01*
X118731683Y-126872491D02*
X118779302Y-126777253D01*
X118779302Y-126777253D02*
X118779302Y-126539158D01*
X118779302Y-126539158D02*
X118731683Y-126443920D01*
X118731683Y-126443920D02*
X118684064Y-126396301D01*
X118684064Y-126396301D02*
X118588826Y-126348682D01*
X118588826Y-126348682D02*
X118398350Y-126348682D01*
X118398350Y-126348682D02*
X118303112Y-126396301D01*
X118303112Y-126396301D02*
X118255493Y-126443920D01*
X118255493Y-126443920D02*
X118207874Y-126539158D01*
X104065015Y-130187618D02*
X104065015Y-129187618D01*
X104493586Y-130187618D02*
X104493586Y-129663808D01*
X104493586Y-129663808D02*
X104445967Y-129568570D01*
X104445967Y-129568570D02*
X104350729Y-129520951D01*
X104350729Y-129520951D02*
X104207872Y-129520951D01*
X104207872Y-129520951D02*
X104112634Y-129568570D01*
X104112634Y-129568570D02*
X104065015Y-129616189D01*
X104826920Y-129520951D02*
X105207872Y-129520951D01*
X104969777Y-129187618D02*
X104969777Y-130044760D01*
X104969777Y-130044760D02*
X105017396Y-130139999D01*
X105017396Y-130139999D02*
X105112634Y-130187618D01*
X105112634Y-130187618D02*
X105207872Y-130187618D01*
X105398349Y-129520951D02*
X105779301Y-129520951D01*
X105541206Y-129187618D02*
X105541206Y-130044760D01*
X105541206Y-130044760D02*
X105588825Y-130139999D01*
X105588825Y-130139999D02*
X105684063Y-130187618D01*
X105684063Y-130187618D02*
X105779301Y-130187618D01*
X106112635Y-129520951D02*
X106112635Y-130520951D01*
X106112635Y-129568570D02*
X106207873Y-129520951D01*
X106207873Y-129520951D02*
X106398349Y-129520951D01*
X106398349Y-129520951D02*
X106493587Y-129568570D01*
X106493587Y-129568570D02*
X106541206Y-129616189D01*
X106541206Y-129616189D02*
X106588825Y-129711427D01*
X106588825Y-129711427D02*
X106588825Y-129997141D01*
X106588825Y-129997141D02*
X106541206Y-130092379D01*
X106541206Y-130092379D02*
X106493587Y-130139999D01*
X106493587Y-130139999D02*
X106398349Y-130187618D01*
X106398349Y-130187618D02*
X106207873Y-130187618D01*
X106207873Y-130187618D02*
X106112635Y-130139999D01*
X106969778Y-130139999D02*
X107065016Y-130187618D01*
X107065016Y-130187618D02*
X107255492Y-130187618D01*
X107255492Y-130187618D02*
X107350730Y-130139999D01*
X107350730Y-130139999D02*
X107398349Y-130044760D01*
X107398349Y-130044760D02*
X107398349Y-129997141D01*
X107398349Y-129997141D02*
X107350730Y-129901903D01*
X107350730Y-129901903D02*
X107255492Y-129854284D01*
X107255492Y-129854284D02*
X107112635Y-129854284D01*
X107112635Y-129854284D02*
X107017397Y-129806665D01*
X107017397Y-129806665D02*
X106969778Y-129711427D01*
X106969778Y-129711427D02*
X106969778Y-129663808D01*
X106969778Y-129663808D02*
X107017397Y-129568570D01*
X107017397Y-129568570D02*
X107112635Y-129520951D01*
X107112635Y-129520951D02*
X107255492Y-129520951D01*
X107255492Y-129520951D02*
X107350730Y-129568570D01*
X107826921Y-130092379D02*
X107874540Y-130139999D01*
X107874540Y-130139999D02*
X107826921Y-130187618D01*
X107826921Y-130187618D02*
X107779302Y-130139999D01*
X107779302Y-130139999D02*
X107826921Y-130092379D01*
X107826921Y-130092379D02*
X107826921Y-130187618D01*
X107826921Y-129568570D02*
X107874540Y-129616189D01*
X107874540Y-129616189D02*
X107826921Y-129663808D01*
X107826921Y-129663808D02*
X107779302Y-129616189D01*
X107779302Y-129616189D02*
X107826921Y-129568570D01*
X107826921Y-129568570D02*
X107826921Y-129663808D01*
X109017396Y-129139999D02*
X108160254Y-130425713D01*
X110065015Y-129139999D02*
X109207873Y-130425713D01*
X110826920Y-129520951D02*
X110826920Y-130330475D01*
X110826920Y-130330475D02*
X110779301Y-130425713D01*
X110779301Y-130425713D02*
X110731682Y-130473332D01*
X110731682Y-130473332D02*
X110636444Y-130520951D01*
X110636444Y-130520951D02*
X110493587Y-130520951D01*
X110493587Y-130520951D02*
X110398349Y-130473332D01*
X110826920Y-130139999D02*
X110731682Y-130187618D01*
X110731682Y-130187618D02*
X110541206Y-130187618D01*
X110541206Y-130187618D02*
X110445968Y-130139999D01*
X110445968Y-130139999D02*
X110398349Y-130092379D01*
X110398349Y-130092379D02*
X110350730Y-129997141D01*
X110350730Y-129997141D02*
X110350730Y-129711427D01*
X110350730Y-129711427D02*
X110398349Y-129616189D01*
X110398349Y-129616189D02*
X110445968Y-129568570D01*
X110445968Y-129568570D02*
X110541206Y-129520951D01*
X110541206Y-129520951D02*
X110731682Y-129520951D01*
X110731682Y-129520951D02*
X110826920Y-129568570D01*
X111303111Y-130187618D02*
X111303111Y-129520951D01*
X111303111Y-129187618D02*
X111255492Y-129235237D01*
X111255492Y-129235237D02*
X111303111Y-129282856D01*
X111303111Y-129282856D02*
X111350730Y-129235237D01*
X111350730Y-129235237D02*
X111303111Y-129187618D01*
X111303111Y-129187618D02*
X111303111Y-129282856D01*
X111636444Y-129520951D02*
X112017396Y-129520951D01*
X111779301Y-129187618D02*
X111779301Y-130044760D01*
X111779301Y-130044760D02*
X111826920Y-130139999D01*
X111826920Y-130139999D02*
X111922158Y-130187618D01*
X111922158Y-130187618D02*
X112017396Y-130187618D01*
X112350730Y-130187618D02*
X112350730Y-129187618D01*
X112779301Y-130187618D02*
X112779301Y-129663808D01*
X112779301Y-129663808D02*
X112731682Y-129568570D01*
X112731682Y-129568570D02*
X112636444Y-129520951D01*
X112636444Y-129520951D02*
X112493587Y-129520951D01*
X112493587Y-129520951D02*
X112398349Y-129568570D01*
X112398349Y-129568570D02*
X112350730Y-129616189D01*
X113684063Y-129520951D02*
X113684063Y-130187618D01*
X113255492Y-129520951D02*
X113255492Y-130044760D01*
X113255492Y-130044760D02*
X113303111Y-130139999D01*
X113303111Y-130139999D02*
X113398349Y-130187618D01*
X113398349Y-130187618D02*
X113541206Y-130187618D01*
X113541206Y-130187618D02*
X113636444Y-130139999D01*
X113636444Y-130139999D02*
X113684063Y-130092379D01*
X114160254Y-130187618D02*
X114160254Y-129187618D01*
X114160254Y-129568570D02*
X114255492Y-129520951D01*
X114255492Y-129520951D02*
X114445968Y-129520951D01*
X114445968Y-129520951D02*
X114541206Y-129568570D01*
X114541206Y-129568570D02*
X114588825Y-129616189D01*
X114588825Y-129616189D02*
X114636444Y-129711427D01*
X114636444Y-129711427D02*
X114636444Y-129997141D01*
X114636444Y-129997141D02*
X114588825Y-130092379D01*
X114588825Y-130092379D02*
X114541206Y-130139999D01*
X114541206Y-130139999D02*
X114445968Y-130187618D01*
X114445968Y-130187618D02*
X114255492Y-130187618D01*
X114255492Y-130187618D02*
X114160254Y-130139999D01*
X115065016Y-130092379D02*
X115112635Y-130139999D01*
X115112635Y-130139999D02*
X115065016Y-130187618D01*
X115065016Y-130187618D02*
X115017397Y-130139999D01*
X115017397Y-130139999D02*
X115065016Y-130092379D01*
X115065016Y-130092379D02*
X115065016Y-130187618D01*
X115969777Y-130139999D02*
X115874539Y-130187618D01*
X115874539Y-130187618D02*
X115684063Y-130187618D01*
X115684063Y-130187618D02*
X115588825Y-130139999D01*
X115588825Y-130139999D02*
X115541206Y-130092379D01*
X115541206Y-130092379D02*
X115493587Y-129997141D01*
X115493587Y-129997141D02*
X115493587Y-129711427D01*
X115493587Y-129711427D02*
X115541206Y-129616189D01*
X115541206Y-129616189D02*
X115588825Y-129568570D01*
X115588825Y-129568570D02*
X115684063Y-129520951D01*
X115684063Y-129520951D02*
X115874539Y-129520951D01*
X115874539Y-129520951D02*
X115969777Y-129568570D01*
X116541206Y-130187618D02*
X116445968Y-130139999D01*
X116445968Y-130139999D02*
X116398349Y-130092379D01*
X116398349Y-130092379D02*
X116350730Y-129997141D01*
X116350730Y-129997141D02*
X116350730Y-129711427D01*
X116350730Y-129711427D02*
X116398349Y-129616189D01*
X116398349Y-129616189D02*
X116445968Y-129568570D01*
X116445968Y-129568570D02*
X116541206Y-129520951D01*
X116541206Y-129520951D02*
X116684063Y-129520951D01*
X116684063Y-129520951D02*
X116779301Y-129568570D01*
X116779301Y-129568570D02*
X116826920Y-129616189D01*
X116826920Y-129616189D02*
X116874539Y-129711427D01*
X116874539Y-129711427D02*
X116874539Y-129997141D01*
X116874539Y-129997141D02*
X116826920Y-130092379D01*
X116826920Y-130092379D02*
X116779301Y-130139999D01*
X116779301Y-130139999D02*
X116684063Y-130187618D01*
X116684063Y-130187618D02*
X116541206Y-130187618D01*
X117303111Y-130187618D02*
X117303111Y-129520951D01*
X117303111Y-129616189D02*
X117350730Y-129568570D01*
X117350730Y-129568570D02*
X117445968Y-129520951D01*
X117445968Y-129520951D02*
X117588825Y-129520951D01*
X117588825Y-129520951D02*
X117684063Y-129568570D01*
X117684063Y-129568570D02*
X117731682Y-129663808D01*
X117731682Y-129663808D02*
X117731682Y-130187618D01*
X117731682Y-129663808D02*
X117779301Y-129568570D01*
X117779301Y-129568570D02*
X117874539Y-129520951D01*
X117874539Y-129520951D02*
X118017396Y-129520951D01*
X118017396Y-129520951D02*
X118112635Y-129568570D01*
X118112635Y-129568570D02*
X118160254Y-129663808D01*
X118160254Y-129663808D02*
X118160254Y-130187618D01*
X119350729Y-129139999D02*
X118493587Y-130425713D01*
X119684063Y-130187618D02*
X119684063Y-129187618D01*
X119684063Y-129187618D02*
X119922158Y-129187618D01*
X119922158Y-129187618D02*
X120065015Y-129235237D01*
X120065015Y-129235237D02*
X120160253Y-129330475D01*
X120160253Y-129330475D02*
X120207872Y-129425713D01*
X120207872Y-129425713D02*
X120255491Y-129616189D01*
X120255491Y-129616189D02*
X120255491Y-129759046D01*
X120255491Y-129759046D02*
X120207872Y-129949522D01*
X120207872Y-129949522D02*
X120160253Y-130044760D01*
X120160253Y-130044760D02*
X120065015Y-130139999D01*
X120065015Y-130139999D02*
X119922158Y-130187618D01*
X119922158Y-130187618D02*
X119684063Y-130187618D01*
X120684063Y-130187618D02*
X120684063Y-129520951D01*
X120684063Y-129711427D02*
X120731682Y-129616189D01*
X120731682Y-129616189D02*
X120779301Y-129568570D01*
X120779301Y-129568570D02*
X120874539Y-129520951D01*
X120874539Y-129520951D02*
X120969777Y-129520951D01*
X121684063Y-130139999D02*
X121588825Y-130187618D01*
X121588825Y-130187618D02*
X121398349Y-130187618D01*
X121398349Y-130187618D02*
X121303111Y-130139999D01*
X121303111Y-130139999D02*
X121255492Y-130044760D01*
X121255492Y-130044760D02*
X121255492Y-129663808D01*
X121255492Y-129663808D02*
X121303111Y-129568570D01*
X121303111Y-129568570D02*
X121398349Y-129520951D01*
X121398349Y-129520951D02*
X121588825Y-129520951D01*
X121588825Y-129520951D02*
X121684063Y-129568570D01*
X121684063Y-129568570D02*
X121731682Y-129663808D01*
X121731682Y-129663808D02*
X121731682Y-129759046D01*
X121731682Y-129759046D02*
X121255492Y-129854284D01*
X122588825Y-130187618D02*
X122588825Y-129663808D01*
X122588825Y-129663808D02*
X122541206Y-129568570D01*
X122541206Y-129568570D02*
X122445968Y-129520951D01*
X122445968Y-129520951D02*
X122255492Y-129520951D01*
X122255492Y-129520951D02*
X122160254Y-129568570D01*
X122588825Y-130139999D02*
X122493587Y-130187618D01*
X122493587Y-130187618D02*
X122255492Y-130187618D01*
X122255492Y-130187618D02*
X122160254Y-130139999D01*
X122160254Y-130139999D02*
X122112635Y-130044760D01*
X122112635Y-130044760D02*
X122112635Y-129949522D01*
X122112635Y-129949522D02*
X122160254Y-129854284D01*
X122160254Y-129854284D02*
X122255492Y-129806665D01*
X122255492Y-129806665D02*
X122493587Y-129806665D01*
X122493587Y-129806665D02*
X122588825Y-129759046D01*
X123065016Y-130187618D02*
X123065016Y-129520951D01*
X123065016Y-129616189D02*
X123112635Y-129568570D01*
X123112635Y-129568570D02*
X123207873Y-129520951D01*
X123207873Y-129520951D02*
X123350730Y-129520951D01*
X123350730Y-129520951D02*
X123445968Y-129568570D01*
X123445968Y-129568570D02*
X123493587Y-129663808D01*
X123493587Y-129663808D02*
X123493587Y-130187618D01*
X123493587Y-129663808D02*
X123541206Y-129568570D01*
X123541206Y-129568570D02*
X123636444Y-129520951D01*
X123636444Y-129520951D02*
X123779301Y-129520951D01*
X123779301Y-129520951D02*
X123874540Y-129568570D01*
X123874540Y-129568570D02*
X123922159Y-129663808D01*
X123922159Y-129663808D02*
X123922159Y-130187618D01*
X124398349Y-130187618D02*
X124398349Y-129187618D01*
X124398349Y-129568570D02*
X124493587Y-129520951D01*
X124493587Y-129520951D02*
X124684063Y-129520951D01*
X124684063Y-129520951D02*
X124779301Y-129568570D01*
X124779301Y-129568570D02*
X124826920Y-129616189D01*
X124826920Y-129616189D02*
X124874539Y-129711427D01*
X124874539Y-129711427D02*
X124874539Y-129997141D01*
X124874539Y-129997141D02*
X124826920Y-130092379D01*
X124826920Y-130092379D02*
X124779301Y-130139999D01*
X124779301Y-130139999D02*
X124684063Y-130187618D01*
X124684063Y-130187618D02*
X124493587Y-130187618D01*
X124493587Y-130187618D02*
X124398349Y-130139999D01*
X125303111Y-130187618D02*
X125303111Y-129520951D01*
X125303111Y-129711427D02*
X125350730Y-129616189D01*
X125350730Y-129616189D02*
X125398349Y-129568570D01*
X125398349Y-129568570D02*
X125493587Y-129520951D01*
X125493587Y-129520951D02*
X125588825Y-129520951D01*
X126065016Y-130187618D02*
X125969778Y-130139999D01*
X125969778Y-130139999D02*
X125922159Y-130092379D01*
X125922159Y-130092379D02*
X125874540Y-129997141D01*
X125874540Y-129997141D02*
X125874540Y-129711427D01*
X125874540Y-129711427D02*
X125922159Y-129616189D01*
X125922159Y-129616189D02*
X125969778Y-129568570D01*
X125969778Y-129568570D02*
X126065016Y-129520951D01*
X126065016Y-129520951D02*
X126207873Y-129520951D01*
X126207873Y-129520951D02*
X126303111Y-129568570D01*
X126303111Y-129568570D02*
X126350730Y-129616189D01*
X126350730Y-129616189D02*
X126398349Y-129711427D01*
X126398349Y-129711427D02*
X126398349Y-129997141D01*
X126398349Y-129997141D02*
X126350730Y-130092379D01*
X126350730Y-130092379D02*
X126303111Y-130139999D01*
X126303111Y-130139999D02*
X126207873Y-130187618D01*
X126207873Y-130187618D02*
X126065016Y-130187618D01*
X126684064Y-129520951D02*
X127065016Y-129520951D01*
X126826921Y-129187618D02*
X126826921Y-130044760D01*
X126826921Y-130044760D02*
X126874540Y-130139999D01*
X126874540Y-130139999D02*
X126969778Y-130187618D01*
X126969778Y-130187618D02*
X127065016Y-130187618D01*
X127398350Y-130187618D02*
X127398350Y-129187618D01*
X127826921Y-130187618D02*
X127826921Y-129663808D01*
X127826921Y-129663808D02*
X127779302Y-129568570D01*
X127779302Y-129568570D02*
X127684064Y-129520951D01*
X127684064Y-129520951D02*
X127541207Y-129520951D01*
X127541207Y-129520951D02*
X127445969Y-129568570D01*
X127445969Y-129568570D02*
X127398350Y-129616189D01*
X128684064Y-130139999D02*
X128588826Y-130187618D01*
X128588826Y-130187618D02*
X128398350Y-130187618D01*
X128398350Y-130187618D02*
X128303112Y-130139999D01*
X128303112Y-130139999D02*
X128255493Y-130044760D01*
X128255493Y-130044760D02*
X128255493Y-129663808D01*
X128255493Y-129663808D02*
X128303112Y-129568570D01*
X128303112Y-129568570D02*
X128398350Y-129520951D01*
X128398350Y-129520951D02*
X128588826Y-129520951D01*
X128588826Y-129520951D02*
X128684064Y-129568570D01*
X128684064Y-129568570D02*
X128731683Y-129663808D01*
X128731683Y-129663808D02*
X128731683Y-129759046D01*
X128731683Y-129759046D02*
X128255493Y-129854284D01*
X129160255Y-130187618D02*
X129160255Y-129520951D01*
X129160255Y-129711427D02*
X129207874Y-129616189D01*
X129207874Y-129616189D02*
X129255493Y-129568570D01*
X129255493Y-129568570D02*
X129350731Y-129520951D01*
X129350731Y-129520951D02*
X129445969Y-129520951D01*
X129684065Y-129187618D02*
X130350731Y-129187618D01*
X130350731Y-129187618D02*
X129922160Y-130187618D01*
X131445969Y-129139999D02*
X130588827Y-130425713D01*
X132112636Y-129663808D02*
X131779303Y-129663808D01*
X131779303Y-130187618D02*
X131779303Y-129187618D01*
X131779303Y-129187618D02*
X132255493Y-129187618D01*
X132541208Y-129187618D02*
X133207874Y-129187618D01*
X133207874Y-129187618D02*
X132541208Y-130187618D01*
X132541208Y-130187618D02*
X133207874Y-130187618D01*
X134112636Y-130187618D02*
X133541208Y-130187618D01*
X133826922Y-130187618D02*
X133826922Y-129187618D01*
X133826922Y-129187618D02*
X133731684Y-129330475D01*
X133731684Y-129330475D02*
X133636446Y-129425713D01*
X133636446Y-129425713D02*
X133541208Y-129473332D01*
X134684065Y-130187618D02*
X134588827Y-130139999D01*
X134588827Y-130139999D02*
X134541208Y-130092379D01*
X134541208Y-130092379D02*
X134493589Y-129997141D01*
X134493589Y-129997141D02*
X134493589Y-129711427D01*
X134493589Y-129711427D02*
X134541208Y-129616189D01*
X134541208Y-129616189D02*
X134588827Y-129568570D01*
X134588827Y-129568570D02*
X134684065Y-129520951D01*
X134684065Y-129520951D02*
X134826922Y-129520951D01*
X134826922Y-129520951D02*
X134922160Y-129568570D01*
X134922160Y-129568570D02*
X134969779Y-129616189D01*
X134969779Y-129616189D02*
X135017398Y-129711427D01*
X135017398Y-129711427D02*
X135017398Y-129997141D01*
X135017398Y-129997141D02*
X134969779Y-130092379D01*
X134969779Y-130092379D02*
X134922160Y-130139999D01*
X134922160Y-130139999D02*
X134826922Y-130187618D01*
X134826922Y-130187618D02*
X134684065Y-130187618D01*
X135588827Y-130187618D02*
X135493589Y-130139999D01*
X135493589Y-130139999D02*
X135445970Y-130044760D01*
X135445970Y-130044760D02*
X135445970Y-129187618D01*
X136350732Y-130139999D02*
X136255494Y-130187618D01*
X136255494Y-130187618D02*
X136065018Y-130187618D01*
X136065018Y-130187618D02*
X135969780Y-130139999D01*
X135969780Y-130139999D02*
X135922161Y-130044760D01*
X135922161Y-130044760D02*
X135922161Y-129663808D01*
X135922161Y-129663808D02*
X135969780Y-129568570D01*
X135969780Y-129568570D02*
X136065018Y-129520951D01*
X136065018Y-129520951D02*
X136255494Y-129520951D01*
X136255494Y-129520951D02*
X136350732Y-129568570D01*
X136350732Y-129568570D02*
X136398351Y-129663808D01*
X136398351Y-129663808D02*
X136398351Y-129759046D01*
X136398351Y-129759046D02*
X135922161Y-129854284D01*
X137255494Y-130187618D02*
X137255494Y-129187618D01*
X137255494Y-130139999D02*
X137160256Y-130187618D01*
X137160256Y-130187618D02*
X136969780Y-130187618D01*
X136969780Y-130187618D02*
X136874542Y-130139999D01*
X136874542Y-130139999D02*
X136826923Y-130092379D01*
X136826923Y-130092379D02*
X136779304Y-129997141D01*
X136779304Y-129997141D02*
X136779304Y-129711427D01*
X136779304Y-129711427D02*
X136826923Y-129616189D01*
X136826923Y-129616189D02*
X136874542Y-129568570D01*
X136874542Y-129568570D02*
X136969780Y-129520951D01*
X136969780Y-129520951D02*
X137160256Y-129520951D01*
X137160256Y-129520951D02*
X137255494Y-129568570D01*
X137874542Y-130187618D02*
X137779304Y-130139999D01*
X137779304Y-130139999D02*
X137731685Y-130044760D01*
X137731685Y-130044760D02*
X137731685Y-129187618D01*
X138684066Y-130139999D02*
X138588828Y-130187618D01*
X138588828Y-130187618D02*
X138398352Y-130187618D01*
X138398352Y-130187618D02*
X138303114Y-130139999D01*
X138303114Y-130139999D02*
X138255495Y-130092379D01*
X138255495Y-130092379D02*
X138207876Y-129997141D01*
X138207876Y-129997141D02*
X138207876Y-129711427D01*
X138207876Y-129711427D02*
X138255495Y-129616189D01*
X138255495Y-129616189D02*
X138303114Y-129568570D01*
X138303114Y-129568570D02*
X138398352Y-129520951D01*
X138398352Y-129520951D02*
X138588828Y-129520951D01*
X138588828Y-129520951D02*
X138684066Y-129568570D01*
X95885378Y-104372618D02*
X95552045Y-103896427D01*
X95313950Y-104372618D02*
X95313950Y-103372618D01*
X95313950Y-103372618D02*
X95694902Y-103372618D01*
X95694902Y-103372618D02*
X95790140Y-103420237D01*
X95790140Y-103420237D02*
X95837759Y-103467856D01*
X95837759Y-103467856D02*
X95885378Y-103563094D01*
X95885378Y-103563094D02*
X95885378Y-103705951D01*
X95885378Y-103705951D02*
X95837759Y-103801189D01*
X95837759Y-103801189D02*
X95790140Y-103848808D01*
X95790140Y-103848808D02*
X95694902Y-103896427D01*
X95694902Y-103896427D02*
X95313950Y-103896427D01*
X96837759Y-104372618D02*
X96266331Y-104372618D01*
X96552045Y-104372618D02*
X96552045Y-103372618D01*
X96552045Y-103372618D02*
X96456807Y-103515475D01*
X96456807Y-103515475D02*
X96361569Y-103610713D01*
X96361569Y-103610713D02*
X96266331Y-103658332D01*
X97456807Y-103372618D02*
X97552045Y-103372618D01*
X97552045Y-103372618D02*
X97647283Y-103420237D01*
X97647283Y-103420237D02*
X97694902Y-103467856D01*
X97694902Y-103467856D02*
X97742521Y-103563094D01*
X97742521Y-103563094D02*
X97790140Y-103753570D01*
X97790140Y-103753570D02*
X97790140Y-103991665D01*
X97790140Y-103991665D02*
X97742521Y-104182141D01*
X97742521Y-104182141D02*
X97694902Y-104277379D01*
X97694902Y-104277379D02*
X97647283Y-104324999D01*
X97647283Y-104324999D02*
X97552045Y-104372618D01*
X97552045Y-104372618D02*
X97456807Y-104372618D01*
X97456807Y-104372618D02*
X97361569Y-104324999D01*
X97361569Y-104324999D02*
X97313950Y-104277379D01*
X97313950Y-104277379D02*
X97266331Y-104182141D01*
X97266331Y-104182141D02*
X97218712Y-103991665D01*
X97218712Y-103991665D02*
X97218712Y-103753570D01*
X97218712Y-103753570D02*
X97266331Y-103563094D01*
X97266331Y-103563094D02*
X97313950Y-103467856D01*
X97313950Y-103467856D02*
X97361569Y-103420237D01*
X97361569Y-103420237D02*
X97456807Y-103372618D01*
X99209188Y-104372618D02*
X98637760Y-104372618D01*
X98923474Y-104372618D02*
X98923474Y-103372618D01*
X98923474Y-103372618D02*
X98828236Y-103515475D01*
X98828236Y-103515475D02*
X98732998Y-103610713D01*
X98732998Y-103610713D02*
X98637760Y-103658332D01*
X99637760Y-104372618D02*
X99637760Y-103372618D01*
X99732998Y-103991665D02*
X100018712Y-104372618D01*
X100018712Y-103705951D02*
X99637760Y-104086903D01*
X131212515Y-118075118D02*
X131212515Y-118884641D01*
X131212515Y-118884641D02*
X131260134Y-118979879D01*
X131260134Y-118979879D02*
X131307753Y-119027499D01*
X131307753Y-119027499D02*
X131402991Y-119075118D01*
X131402991Y-119075118D02*
X131593467Y-119075118D01*
X131593467Y-119075118D02*
X131688705Y-119027499D01*
X131688705Y-119027499D02*
X131736324Y-118979879D01*
X131736324Y-118979879D02*
X131783943Y-118884641D01*
X131783943Y-118884641D02*
X131783943Y-118075118D01*
X132783943Y-119075118D02*
X132212515Y-119075118D01*
X132498229Y-119075118D02*
X132498229Y-118075118D01*
X132498229Y-118075118D02*
X132402991Y-118217975D01*
X132402991Y-118217975D02*
X132307753Y-118313213D01*
X132307753Y-118313213D02*
X132212515Y-118360832D01*
X95961569Y-88172618D02*
X95628236Y-87696427D01*
X95390141Y-88172618D02*
X95390141Y-87172618D01*
X95390141Y-87172618D02*
X95771093Y-87172618D01*
X95771093Y-87172618D02*
X95866331Y-87220237D01*
X95866331Y-87220237D02*
X95913950Y-87267856D01*
X95913950Y-87267856D02*
X95961569Y-87363094D01*
X95961569Y-87363094D02*
X95961569Y-87505951D01*
X95961569Y-87505951D02*
X95913950Y-87601189D01*
X95913950Y-87601189D02*
X95866331Y-87648808D01*
X95866331Y-87648808D02*
X95771093Y-87696427D01*
X95771093Y-87696427D02*
X95390141Y-87696427D01*
X96818712Y-87172618D02*
X96628236Y-87172618D01*
X96628236Y-87172618D02*
X96532998Y-87220237D01*
X96532998Y-87220237D02*
X96485379Y-87267856D01*
X96485379Y-87267856D02*
X96390141Y-87410713D01*
X96390141Y-87410713D02*
X96342522Y-87601189D01*
X96342522Y-87601189D02*
X96342522Y-87982141D01*
X96342522Y-87982141D02*
X96390141Y-88077379D01*
X96390141Y-88077379D02*
X96437760Y-88124999D01*
X96437760Y-88124999D02*
X96532998Y-88172618D01*
X96532998Y-88172618D02*
X96723474Y-88172618D01*
X96723474Y-88172618D02*
X96818712Y-88124999D01*
X96818712Y-88124999D02*
X96866331Y-88077379D01*
X96866331Y-88077379D02*
X96913950Y-87982141D01*
X96913950Y-87982141D02*
X96913950Y-87744046D01*
X96913950Y-87744046D02*
X96866331Y-87648808D01*
X96866331Y-87648808D02*
X96818712Y-87601189D01*
X96818712Y-87601189D02*
X96723474Y-87553570D01*
X96723474Y-87553570D02*
X96532998Y-87553570D01*
X96532998Y-87553570D02*
X96437760Y-87601189D01*
X96437760Y-87601189D02*
X96390141Y-87648808D01*
X96390141Y-87648808D02*
X96342522Y-87744046D01*
X99209188Y-88172618D02*
X98637760Y-88172618D01*
X98923474Y-88172618D02*
X98923474Y-87172618D01*
X98923474Y-87172618D02*
X98828236Y-87315475D01*
X98828236Y-87315475D02*
X98732998Y-87410713D01*
X98732998Y-87410713D02*
X98637760Y-87458332D01*
X99637760Y-88172618D02*
X99637760Y-87172618D01*
X99732998Y-87791665D02*
X100018712Y-88172618D01*
X100018712Y-87505951D02*
X99637760Y-87886903D01*
X95961569Y-84172618D02*
X95628236Y-83696427D01*
X95390141Y-84172618D02*
X95390141Y-83172618D01*
X95390141Y-83172618D02*
X95771093Y-83172618D01*
X95771093Y-83172618D02*
X95866331Y-83220237D01*
X95866331Y-83220237D02*
X95913950Y-83267856D01*
X95913950Y-83267856D02*
X95961569Y-83363094D01*
X95961569Y-83363094D02*
X95961569Y-83505951D01*
X95961569Y-83505951D02*
X95913950Y-83601189D01*
X95913950Y-83601189D02*
X95866331Y-83648808D01*
X95866331Y-83648808D02*
X95771093Y-83696427D01*
X95771093Y-83696427D02*
X95390141Y-83696427D01*
X96866331Y-83172618D02*
X96390141Y-83172618D01*
X96390141Y-83172618D02*
X96342522Y-83648808D01*
X96342522Y-83648808D02*
X96390141Y-83601189D01*
X96390141Y-83601189D02*
X96485379Y-83553570D01*
X96485379Y-83553570D02*
X96723474Y-83553570D01*
X96723474Y-83553570D02*
X96818712Y-83601189D01*
X96818712Y-83601189D02*
X96866331Y-83648808D01*
X96866331Y-83648808D02*
X96913950Y-83744046D01*
X96913950Y-83744046D02*
X96913950Y-83982141D01*
X96913950Y-83982141D02*
X96866331Y-84077379D01*
X96866331Y-84077379D02*
X96818712Y-84124999D01*
X96818712Y-84124999D02*
X96723474Y-84172618D01*
X96723474Y-84172618D02*
X96485379Y-84172618D01*
X96485379Y-84172618D02*
X96390141Y-84124999D01*
X96390141Y-84124999D02*
X96342522Y-84077379D01*
X98637760Y-83267856D02*
X98685379Y-83220237D01*
X98685379Y-83220237D02*
X98780617Y-83172618D01*
X98780617Y-83172618D02*
X99018712Y-83172618D01*
X99018712Y-83172618D02*
X99113950Y-83220237D01*
X99113950Y-83220237D02*
X99161569Y-83267856D01*
X99161569Y-83267856D02*
X99209188Y-83363094D01*
X99209188Y-83363094D02*
X99209188Y-83458332D01*
X99209188Y-83458332D02*
X99161569Y-83601189D01*
X99161569Y-83601189D02*
X98590141Y-84172618D01*
X98590141Y-84172618D02*
X99209188Y-84172618D01*
X99637760Y-84172618D02*
X99637760Y-83172618D01*
X99732998Y-83791665D02*
X100018712Y-84172618D01*
X100018712Y-83505951D02*
X99637760Y-83886903D01*
X85594902Y-86462618D02*
X85594902Y-87176903D01*
X85594902Y-87176903D02*
X85547283Y-87319760D01*
X85547283Y-87319760D02*
X85452045Y-87414999D01*
X85452045Y-87414999D02*
X85309188Y-87462618D01*
X85309188Y-87462618D02*
X85213950Y-87462618D01*
X86023474Y-86557856D02*
X86071093Y-86510237D01*
X86071093Y-86510237D02*
X86166331Y-86462618D01*
X86166331Y-86462618D02*
X86404426Y-86462618D01*
X86404426Y-86462618D02*
X86499664Y-86510237D01*
X86499664Y-86510237D02*
X86547283Y-86557856D01*
X86547283Y-86557856D02*
X86594902Y-86653094D01*
X86594902Y-86653094D02*
X86594902Y-86748332D01*
X86594902Y-86748332D02*
X86547283Y-86891189D01*
X86547283Y-86891189D02*
X85975855Y-87462618D01*
X85975855Y-87462618D02*
X86594902Y-87462618D01*
X95961569Y-92172618D02*
X95628236Y-91696427D01*
X95390141Y-92172618D02*
X95390141Y-91172618D01*
X95390141Y-91172618D02*
X95771093Y-91172618D01*
X95771093Y-91172618D02*
X95866331Y-91220237D01*
X95866331Y-91220237D02*
X95913950Y-91267856D01*
X95913950Y-91267856D02*
X95961569Y-91363094D01*
X95961569Y-91363094D02*
X95961569Y-91505951D01*
X95961569Y-91505951D02*
X95913950Y-91601189D01*
X95913950Y-91601189D02*
X95866331Y-91648808D01*
X95866331Y-91648808D02*
X95771093Y-91696427D01*
X95771093Y-91696427D02*
X95390141Y-91696427D01*
X96294903Y-91172618D02*
X96961569Y-91172618D01*
X96961569Y-91172618D02*
X96532998Y-92172618D01*
X98637760Y-91267856D02*
X98685379Y-91220237D01*
X98685379Y-91220237D02*
X98780617Y-91172618D01*
X98780617Y-91172618D02*
X99018712Y-91172618D01*
X99018712Y-91172618D02*
X99113950Y-91220237D01*
X99113950Y-91220237D02*
X99161569Y-91267856D01*
X99161569Y-91267856D02*
X99209188Y-91363094D01*
X99209188Y-91363094D02*
X99209188Y-91458332D01*
X99209188Y-91458332D02*
X99161569Y-91601189D01*
X99161569Y-91601189D02*
X98590141Y-92172618D01*
X98590141Y-92172618D02*
X99209188Y-92172618D01*
X99637760Y-92172618D02*
X99637760Y-91172618D01*
X99732998Y-91791665D02*
X100018712Y-92172618D01*
X100018712Y-91505951D02*
X99637760Y-91886903D01*
X95885378Y-112372618D02*
X95552045Y-111896427D01*
X95313950Y-112372618D02*
X95313950Y-111372618D01*
X95313950Y-111372618D02*
X95694902Y-111372618D01*
X95694902Y-111372618D02*
X95790140Y-111420237D01*
X95790140Y-111420237D02*
X95837759Y-111467856D01*
X95837759Y-111467856D02*
X95885378Y-111563094D01*
X95885378Y-111563094D02*
X95885378Y-111705951D01*
X95885378Y-111705951D02*
X95837759Y-111801189D01*
X95837759Y-111801189D02*
X95790140Y-111848808D01*
X95790140Y-111848808D02*
X95694902Y-111896427D01*
X95694902Y-111896427D02*
X95313950Y-111896427D01*
X96837759Y-112372618D02*
X96266331Y-112372618D01*
X96552045Y-112372618D02*
X96552045Y-111372618D01*
X96552045Y-111372618D02*
X96456807Y-111515475D01*
X96456807Y-111515475D02*
X96361569Y-111610713D01*
X96361569Y-111610713D02*
X96266331Y-111658332D01*
X97218712Y-111467856D02*
X97266331Y-111420237D01*
X97266331Y-111420237D02*
X97361569Y-111372618D01*
X97361569Y-111372618D02*
X97599664Y-111372618D01*
X97599664Y-111372618D02*
X97694902Y-111420237D01*
X97694902Y-111420237D02*
X97742521Y-111467856D01*
X97742521Y-111467856D02*
X97790140Y-111563094D01*
X97790140Y-111563094D02*
X97790140Y-111658332D01*
X97790140Y-111658332D02*
X97742521Y-111801189D01*
X97742521Y-111801189D02*
X97171093Y-112372618D01*
X97171093Y-112372618D02*
X97790140Y-112372618D01*
X99209188Y-112372618D02*
X98637760Y-112372618D01*
X98923474Y-112372618D02*
X98923474Y-111372618D01*
X98923474Y-111372618D02*
X98828236Y-111515475D01*
X98828236Y-111515475D02*
X98732998Y-111610713D01*
X98732998Y-111610713D02*
X98637760Y-111658332D01*
X99637760Y-112372618D02*
X99637760Y-111372618D01*
X99732998Y-111991665D02*
X100018712Y-112372618D01*
X100018712Y-111705951D02*
X99637760Y-112086903D01*
X95961569Y-75972618D02*
X95628236Y-75496427D01*
X95390141Y-75972618D02*
X95390141Y-74972618D01*
X95390141Y-74972618D02*
X95771093Y-74972618D01*
X95771093Y-74972618D02*
X95866331Y-75020237D01*
X95866331Y-75020237D02*
X95913950Y-75067856D01*
X95913950Y-75067856D02*
X95961569Y-75163094D01*
X95961569Y-75163094D02*
X95961569Y-75305951D01*
X95961569Y-75305951D02*
X95913950Y-75401189D01*
X95913950Y-75401189D02*
X95866331Y-75448808D01*
X95866331Y-75448808D02*
X95771093Y-75496427D01*
X95771093Y-75496427D02*
X95390141Y-75496427D01*
X96294903Y-74972618D02*
X96913950Y-74972618D01*
X96913950Y-74972618D02*
X96580617Y-75353570D01*
X96580617Y-75353570D02*
X96723474Y-75353570D01*
X96723474Y-75353570D02*
X96818712Y-75401189D01*
X96818712Y-75401189D02*
X96866331Y-75448808D01*
X96866331Y-75448808D02*
X96913950Y-75544046D01*
X96913950Y-75544046D02*
X96913950Y-75782141D01*
X96913950Y-75782141D02*
X96866331Y-75877379D01*
X96866331Y-75877379D02*
X96818712Y-75924999D01*
X96818712Y-75924999D02*
X96723474Y-75972618D01*
X96723474Y-75972618D02*
X96437760Y-75972618D01*
X96437760Y-75972618D02*
X96342522Y-75924999D01*
X96342522Y-75924999D02*
X96294903Y-75877379D01*
X98637760Y-75067856D02*
X98685379Y-75020237D01*
X98685379Y-75020237D02*
X98780617Y-74972618D01*
X98780617Y-74972618D02*
X99018712Y-74972618D01*
X99018712Y-74972618D02*
X99113950Y-75020237D01*
X99113950Y-75020237D02*
X99161569Y-75067856D01*
X99161569Y-75067856D02*
X99209188Y-75163094D01*
X99209188Y-75163094D02*
X99209188Y-75258332D01*
X99209188Y-75258332D02*
X99161569Y-75401189D01*
X99161569Y-75401189D02*
X98590141Y-75972618D01*
X98590141Y-75972618D02*
X99209188Y-75972618D01*
X99637760Y-75972618D02*
X99637760Y-74972618D01*
X99732998Y-75591665D02*
X100018712Y-75972618D01*
X100018712Y-75305951D02*
X99637760Y-75686903D01*
X136394902Y-83372618D02*
X136394902Y-84086903D01*
X136394902Y-84086903D02*
X136347283Y-84229760D01*
X136347283Y-84229760D02*
X136252045Y-84324999D01*
X136252045Y-84324999D02*
X136109188Y-84372618D01*
X136109188Y-84372618D02*
X136013950Y-84372618D01*
X137394902Y-84372618D02*
X136823474Y-84372618D01*
X137109188Y-84372618D02*
X137109188Y-83372618D01*
X137109188Y-83372618D02*
X137013950Y-83515475D01*
X137013950Y-83515475D02*
X136918712Y-83610713D01*
X136918712Y-83610713D02*
X136823474Y-83658332D01*
X131960028Y-82347600D02*
X132102885Y-82395219D01*
X132102885Y-82395219D02*
X132340980Y-82395219D01*
X132340980Y-82395219D02*
X132436218Y-82347600D01*
X132436218Y-82347600D02*
X132483837Y-82299980D01*
X132483837Y-82299980D02*
X132531456Y-82204742D01*
X132531456Y-82204742D02*
X132531456Y-82109504D01*
X132531456Y-82109504D02*
X132483837Y-82014266D01*
X132483837Y-82014266D02*
X132436218Y-81966647D01*
X132436218Y-81966647D02*
X132340980Y-81919028D01*
X132340980Y-81919028D02*
X132150504Y-81871409D01*
X132150504Y-81871409D02*
X132055266Y-81823790D01*
X132055266Y-81823790D02*
X132007647Y-81776171D01*
X132007647Y-81776171D02*
X131960028Y-81680933D01*
X131960028Y-81680933D02*
X131960028Y-81585695D01*
X131960028Y-81585695D02*
X132007647Y-81490457D01*
X132007647Y-81490457D02*
X132055266Y-81442838D01*
X132055266Y-81442838D02*
X132150504Y-81395219D01*
X132150504Y-81395219D02*
X132388599Y-81395219D01*
X132388599Y-81395219D02*
X132531456Y-81442838D01*
X132912409Y-82347600D02*
X133055266Y-82395219D01*
X133055266Y-82395219D02*
X133293361Y-82395219D01*
X133293361Y-82395219D02*
X133388599Y-82347600D01*
X133388599Y-82347600D02*
X133436218Y-82299980D01*
X133436218Y-82299980D02*
X133483837Y-82204742D01*
X133483837Y-82204742D02*
X133483837Y-82109504D01*
X133483837Y-82109504D02*
X133436218Y-82014266D01*
X133436218Y-82014266D02*
X133388599Y-81966647D01*
X133388599Y-81966647D02*
X133293361Y-81919028D01*
X133293361Y-81919028D02*
X133102885Y-81871409D01*
X133102885Y-81871409D02*
X133007647Y-81823790D01*
X133007647Y-81823790D02*
X132960028Y-81776171D01*
X132960028Y-81776171D02*
X132912409Y-81680933D01*
X132912409Y-81680933D02*
X132912409Y-81585695D01*
X132912409Y-81585695D02*
X132960028Y-81490457D01*
X132960028Y-81490457D02*
X133007647Y-81442838D01*
X133007647Y-81442838D02*
X133102885Y-81395219D01*
X133102885Y-81395219D02*
X133340980Y-81395219D01*
X133340980Y-81395219D02*
X133483837Y-81442838D01*
X133912409Y-82395219D02*
X133912409Y-81395219D01*
X133912409Y-81395219D02*
X134150504Y-81395219D01*
X134150504Y-81395219D02*
X134293361Y-81442838D01*
X134293361Y-81442838D02*
X134388599Y-81538076D01*
X134388599Y-81538076D02*
X134436218Y-81633314D01*
X134436218Y-81633314D02*
X134483837Y-81823790D01*
X134483837Y-81823790D02*
X134483837Y-81966647D01*
X134483837Y-81966647D02*
X134436218Y-82157123D01*
X134436218Y-82157123D02*
X134388599Y-82252361D01*
X134388599Y-82252361D02*
X134293361Y-82347600D01*
X134293361Y-82347600D02*
X134150504Y-82395219D01*
X134150504Y-82395219D02*
X133912409Y-82395219D01*
X135436218Y-82395219D02*
X134864790Y-82395219D01*
X135150504Y-82395219D02*
X135150504Y-81395219D01*
X135150504Y-81395219D02*
X135055266Y-81538076D01*
X135055266Y-81538076D02*
X134960028Y-81633314D01*
X134960028Y-81633314D02*
X134864790Y-81680933D01*
X135769552Y-81395219D02*
X136388599Y-81395219D01*
X136388599Y-81395219D02*
X136055266Y-81776171D01*
X136055266Y-81776171D02*
X136198123Y-81776171D01*
X136198123Y-81776171D02*
X136293361Y-81823790D01*
X136293361Y-81823790D02*
X136340980Y-81871409D01*
X136340980Y-81871409D02*
X136388599Y-81966647D01*
X136388599Y-81966647D02*
X136388599Y-82204742D01*
X136388599Y-82204742D02*
X136340980Y-82299980D01*
X136340980Y-82299980D02*
X136293361Y-82347600D01*
X136293361Y-82347600D02*
X136198123Y-82395219D01*
X136198123Y-82395219D02*
X135912409Y-82395219D01*
X135912409Y-82395219D02*
X135817171Y-82347600D01*
X135817171Y-82347600D02*
X135769552Y-82299980D01*
X137007647Y-81395219D02*
X137102885Y-81395219D01*
X137102885Y-81395219D02*
X137198123Y-81442838D01*
X137198123Y-81442838D02*
X137245742Y-81490457D01*
X137245742Y-81490457D02*
X137293361Y-81585695D01*
X137293361Y-81585695D02*
X137340980Y-81776171D01*
X137340980Y-81776171D02*
X137340980Y-82014266D01*
X137340980Y-82014266D02*
X137293361Y-82204742D01*
X137293361Y-82204742D02*
X137245742Y-82299980D01*
X137245742Y-82299980D02*
X137198123Y-82347600D01*
X137198123Y-82347600D02*
X137102885Y-82395219D01*
X137102885Y-82395219D02*
X137007647Y-82395219D01*
X137007647Y-82395219D02*
X136912409Y-82347600D01*
X136912409Y-82347600D02*
X136864790Y-82299980D01*
X136864790Y-82299980D02*
X136817171Y-82204742D01*
X136817171Y-82204742D02*
X136769552Y-82014266D01*
X136769552Y-82014266D02*
X136769552Y-81776171D01*
X136769552Y-81776171D02*
X136817171Y-81585695D01*
X136817171Y-81585695D02*
X136864790Y-81490457D01*
X136864790Y-81490457D02*
X136912409Y-81442838D01*
X136912409Y-81442838D02*
X137007647Y-81395219D01*
X137817171Y-82395219D02*
X138007647Y-82395219D01*
X138007647Y-82395219D02*
X138102885Y-82347600D01*
X138102885Y-82347600D02*
X138150504Y-82299980D01*
X138150504Y-82299980D02*
X138245742Y-82157123D01*
X138245742Y-82157123D02*
X138293361Y-81966647D01*
X138293361Y-81966647D02*
X138293361Y-81585695D01*
X138293361Y-81585695D02*
X138245742Y-81490457D01*
X138245742Y-81490457D02*
X138198123Y-81442838D01*
X138198123Y-81442838D02*
X138102885Y-81395219D01*
X138102885Y-81395219D02*
X137912409Y-81395219D01*
X137912409Y-81395219D02*
X137817171Y-81442838D01*
X137817171Y-81442838D02*
X137769552Y-81490457D01*
X137769552Y-81490457D02*
X137721933Y-81585695D01*
X137721933Y-81585695D02*
X137721933Y-81823790D01*
X137721933Y-81823790D02*
X137769552Y-81919028D01*
X137769552Y-81919028D02*
X137817171Y-81966647D01*
X137817171Y-81966647D02*
X137912409Y-82014266D01*
X137912409Y-82014266D02*
X138102885Y-82014266D01*
X138102885Y-82014266D02*
X138198123Y-81966647D01*
X138198123Y-81966647D02*
X138245742Y-81919028D01*
X138245742Y-81919028D02*
X138293361Y-81823790D01*
X139674314Y-81395219D02*
X139864790Y-81395219D01*
X139864790Y-81395219D02*
X139960028Y-81442838D01*
X139960028Y-81442838D02*
X140055266Y-81538076D01*
X140055266Y-81538076D02*
X140102885Y-81728552D01*
X140102885Y-81728552D02*
X140102885Y-82061885D01*
X140102885Y-82061885D02*
X140055266Y-82252361D01*
X140055266Y-82252361D02*
X139960028Y-82347600D01*
X139960028Y-82347600D02*
X139864790Y-82395219D01*
X139864790Y-82395219D02*
X139674314Y-82395219D01*
X139674314Y-82395219D02*
X139579076Y-82347600D01*
X139579076Y-82347600D02*
X139483838Y-82252361D01*
X139483838Y-82252361D02*
X139436219Y-82061885D01*
X139436219Y-82061885D02*
X139436219Y-81728552D01*
X139436219Y-81728552D02*
X139483838Y-81538076D01*
X139483838Y-81538076D02*
X139579076Y-81442838D01*
X139579076Y-81442838D02*
X139674314Y-81395219D01*
X141007647Y-82395219D02*
X140531457Y-82395219D01*
X140531457Y-82395219D02*
X140531457Y-81395219D01*
X141340981Y-81871409D02*
X141674314Y-81871409D01*
X141817171Y-82395219D02*
X141340981Y-82395219D01*
X141340981Y-82395219D02*
X141340981Y-81395219D01*
X141340981Y-81395219D02*
X141817171Y-81395219D01*
X142245743Y-82395219D02*
X142245743Y-81395219D01*
X142245743Y-81395219D02*
X142483838Y-81395219D01*
X142483838Y-81395219D02*
X142626695Y-81442838D01*
X142626695Y-81442838D02*
X142721933Y-81538076D01*
X142721933Y-81538076D02*
X142769552Y-81633314D01*
X142769552Y-81633314D02*
X142817171Y-81823790D01*
X142817171Y-81823790D02*
X142817171Y-81966647D01*
X142817171Y-81966647D02*
X142769552Y-82157123D01*
X142769552Y-82157123D02*
X142721933Y-82252361D01*
X142721933Y-82252361D02*
X142626695Y-82347600D01*
X142626695Y-82347600D02*
X142483838Y-82395219D01*
X142483838Y-82395219D02*
X142245743Y-82395219D01*
X95961569Y-79972618D02*
X95628236Y-79496427D01*
X95390141Y-79972618D02*
X95390141Y-78972618D01*
X95390141Y-78972618D02*
X95771093Y-78972618D01*
X95771093Y-78972618D02*
X95866331Y-79020237D01*
X95866331Y-79020237D02*
X95913950Y-79067856D01*
X95913950Y-79067856D02*
X95961569Y-79163094D01*
X95961569Y-79163094D02*
X95961569Y-79305951D01*
X95961569Y-79305951D02*
X95913950Y-79401189D01*
X95913950Y-79401189D02*
X95866331Y-79448808D01*
X95866331Y-79448808D02*
X95771093Y-79496427D01*
X95771093Y-79496427D02*
X95390141Y-79496427D01*
X96818712Y-79305951D02*
X96818712Y-79972618D01*
X96580617Y-78924999D02*
X96342522Y-79639284D01*
X96342522Y-79639284D02*
X96961569Y-79639284D01*
X99209188Y-79972618D02*
X98637760Y-79972618D01*
X98923474Y-79972618D02*
X98923474Y-78972618D01*
X98923474Y-78972618D02*
X98828236Y-79115475D01*
X98828236Y-79115475D02*
X98732998Y-79210713D01*
X98732998Y-79210713D02*
X98637760Y-79258332D01*
X99637760Y-79972618D02*
X99637760Y-78972618D01*
X99732998Y-79591665D02*
X100018712Y-79972618D01*
X100018712Y-79305951D02*
X99637760Y-79686903D01*
X95961569Y-67972618D02*
X95628236Y-67496427D01*
X95390141Y-67972618D02*
X95390141Y-66972618D01*
X95390141Y-66972618D02*
X95771093Y-66972618D01*
X95771093Y-66972618D02*
X95866331Y-67020237D01*
X95866331Y-67020237D02*
X95913950Y-67067856D01*
X95913950Y-67067856D02*
X95961569Y-67163094D01*
X95961569Y-67163094D02*
X95961569Y-67305951D01*
X95961569Y-67305951D02*
X95913950Y-67401189D01*
X95913950Y-67401189D02*
X95866331Y-67448808D01*
X95866331Y-67448808D02*
X95771093Y-67496427D01*
X95771093Y-67496427D02*
X95390141Y-67496427D01*
X96913950Y-67972618D02*
X96342522Y-67972618D01*
X96628236Y-67972618D02*
X96628236Y-66972618D01*
X96628236Y-66972618D02*
X96532998Y-67115475D01*
X96532998Y-67115475D02*
X96437760Y-67210713D01*
X96437760Y-67210713D02*
X96342522Y-67258332D01*
X98637760Y-67067856D02*
X98685379Y-67020237D01*
X98685379Y-67020237D02*
X98780617Y-66972618D01*
X98780617Y-66972618D02*
X99018712Y-66972618D01*
X99018712Y-66972618D02*
X99113950Y-67020237D01*
X99113950Y-67020237D02*
X99161569Y-67067856D01*
X99161569Y-67067856D02*
X99209188Y-67163094D01*
X99209188Y-67163094D02*
X99209188Y-67258332D01*
X99209188Y-67258332D02*
X99161569Y-67401189D01*
X99161569Y-67401189D02*
X98590141Y-67972618D01*
X98590141Y-67972618D02*
X99209188Y-67972618D01*
X99637760Y-67972618D02*
X99637760Y-66972618D01*
X99732998Y-67591665D02*
X100018712Y-67972618D01*
X100018712Y-67305951D02*
X99637760Y-67686903D01*
X95961569Y-100372618D02*
X95628236Y-99896427D01*
X95390141Y-100372618D02*
X95390141Y-99372618D01*
X95390141Y-99372618D02*
X95771093Y-99372618D01*
X95771093Y-99372618D02*
X95866331Y-99420237D01*
X95866331Y-99420237D02*
X95913950Y-99467856D01*
X95913950Y-99467856D02*
X95961569Y-99563094D01*
X95961569Y-99563094D02*
X95961569Y-99705951D01*
X95961569Y-99705951D02*
X95913950Y-99801189D01*
X95913950Y-99801189D02*
X95866331Y-99848808D01*
X95866331Y-99848808D02*
X95771093Y-99896427D01*
X95771093Y-99896427D02*
X95390141Y-99896427D01*
X96437760Y-100372618D02*
X96628236Y-100372618D01*
X96628236Y-100372618D02*
X96723474Y-100324999D01*
X96723474Y-100324999D02*
X96771093Y-100277379D01*
X96771093Y-100277379D02*
X96866331Y-100134522D01*
X96866331Y-100134522D02*
X96913950Y-99944046D01*
X96913950Y-99944046D02*
X96913950Y-99563094D01*
X96913950Y-99563094D02*
X96866331Y-99467856D01*
X96866331Y-99467856D02*
X96818712Y-99420237D01*
X96818712Y-99420237D02*
X96723474Y-99372618D01*
X96723474Y-99372618D02*
X96532998Y-99372618D01*
X96532998Y-99372618D02*
X96437760Y-99420237D01*
X96437760Y-99420237D02*
X96390141Y-99467856D01*
X96390141Y-99467856D02*
X96342522Y-99563094D01*
X96342522Y-99563094D02*
X96342522Y-99801189D01*
X96342522Y-99801189D02*
X96390141Y-99896427D01*
X96390141Y-99896427D02*
X96437760Y-99944046D01*
X96437760Y-99944046D02*
X96532998Y-99991665D01*
X96532998Y-99991665D02*
X96723474Y-99991665D01*
X96723474Y-99991665D02*
X96818712Y-99944046D01*
X96818712Y-99944046D02*
X96866331Y-99896427D01*
X96866331Y-99896427D02*
X96913950Y-99801189D01*
X98637760Y-99467856D02*
X98685379Y-99420237D01*
X98685379Y-99420237D02*
X98780617Y-99372618D01*
X98780617Y-99372618D02*
X99018712Y-99372618D01*
X99018712Y-99372618D02*
X99113950Y-99420237D01*
X99113950Y-99420237D02*
X99161569Y-99467856D01*
X99161569Y-99467856D02*
X99209188Y-99563094D01*
X99209188Y-99563094D02*
X99209188Y-99658332D01*
X99209188Y-99658332D02*
X99161569Y-99801189D01*
X99161569Y-99801189D02*
X98590141Y-100372618D01*
X98590141Y-100372618D02*
X99209188Y-100372618D01*
X99637760Y-100372618D02*
X99637760Y-99372618D01*
X99732998Y-99991665D02*
X100018712Y-100372618D01*
X100018712Y-99705951D02*
X99637760Y-100086903D01*
X95885378Y-108372618D02*
X95552045Y-107896427D01*
X95313950Y-108372618D02*
X95313950Y-107372618D01*
X95313950Y-107372618D02*
X95694902Y-107372618D01*
X95694902Y-107372618D02*
X95790140Y-107420237D01*
X95790140Y-107420237D02*
X95837759Y-107467856D01*
X95837759Y-107467856D02*
X95885378Y-107563094D01*
X95885378Y-107563094D02*
X95885378Y-107705951D01*
X95885378Y-107705951D02*
X95837759Y-107801189D01*
X95837759Y-107801189D02*
X95790140Y-107848808D01*
X95790140Y-107848808D02*
X95694902Y-107896427D01*
X95694902Y-107896427D02*
X95313950Y-107896427D01*
X96837759Y-108372618D02*
X96266331Y-108372618D01*
X96552045Y-108372618D02*
X96552045Y-107372618D01*
X96552045Y-107372618D02*
X96456807Y-107515475D01*
X96456807Y-107515475D02*
X96361569Y-107610713D01*
X96361569Y-107610713D02*
X96266331Y-107658332D01*
X97790140Y-108372618D02*
X97218712Y-108372618D01*
X97504426Y-108372618D02*
X97504426Y-107372618D01*
X97504426Y-107372618D02*
X97409188Y-107515475D01*
X97409188Y-107515475D02*
X97313950Y-107610713D01*
X97313950Y-107610713D02*
X97218712Y-107658332D01*
X98637760Y-107467856D02*
X98685379Y-107420237D01*
X98685379Y-107420237D02*
X98780617Y-107372618D01*
X98780617Y-107372618D02*
X99018712Y-107372618D01*
X99018712Y-107372618D02*
X99113950Y-107420237D01*
X99113950Y-107420237D02*
X99161569Y-107467856D01*
X99161569Y-107467856D02*
X99209188Y-107563094D01*
X99209188Y-107563094D02*
X99209188Y-107658332D01*
X99209188Y-107658332D02*
X99161569Y-107801189D01*
X99161569Y-107801189D02*
X98590141Y-108372618D01*
X98590141Y-108372618D02*
X99209188Y-108372618D01*
X99637760Y-108372618D02*
X99637760Y-107372618D01*
X99732998Y-107991665D02*
X100018712Y-108372618D01*
X100018712Y-107705951D02*
X99637760Y-108086903D01*
X95961569Y-71972618D02*
X95628236Y-71496427D01*
X95390141Y-71972618D02*
X95390141Y-70972618D01*
X95390141Y-70972618D02*
X95771093Y-70972618D01*
X95771093Y-70972618D02*
X95866331Y-71020237D01*
X95866331Y-71020237D02*
X95913950Y-71067856D01*
X95913950Y-71067856D02*
X95961569Y-71163094D01*
X95961569Y-71163094D02*
X95961569Y-71305951D01*
X95961569Y-71305951D02*
X95913950Y-71401189D01*
X95913950Y-71401189D02*
X95866331Y-71448808D01*
X95866331Y-71448808D02*
X95771093Y-71496427D01*
X95771093Y-71496427D02*
X95390141Y-71496427D01*
X96342522Y-71067856D02*
X96390141Y-71020237D01*
X96390141Y-71020237D02*
X96485379Y-70972618D01*
X96485379Y-70972618D02*
X96723474Y-70972618D01*
X96723474Y-70972618D02*
X96818712Y-71020237D01*
X96818712Y-71020237D02*
X96866331Y-71067856D01*
X96866331Y-71067856D02*
X96913950Y-71163094D01*
X96913950Y-71163094D02*
X96913950Y-71258332D01*
X96913950Y-71258332D02*
X96866331Y-71401189D01*
X96866331Y-71401189D02*
X96294903Y-71972618D01*
X96294903Y-71972618D02*
X96913950Y-71972618D01*
X99209188Y-71972618D02*
X98637760Y-71972618D01*
X98923474Y-71972618D02*
X98923474Y-70972618D01*
X98923474Y-70972618D02*
X98828236Y-71115475D01*
X98828236Y-71115475D02*
X98732998Y-71210713D01*
X98732998Y-71210713D02*
X98637760Y-71258332D01*
X99637760Y-71972618D02*
X99637760Y-70972618D01*
X99732998Y-71591665D02*
X100018712Y-71972618D01*
X100018712Y-71305951D02*
X99637760Y-71686903D01*
X95961569Y-96372618D02*
X95628236Y-95896427D01*
X95390141Y-96372618D02*
X95390141Y-95372618D01*
X95390141Y-95372618D02*
X95771093Y-95372618D01*
X95771093Y-95372618D02*
X95866331Y-95420237D01*
X95866331Y-95420237D02*
X95913950Y-95467856D01*
X95913950Y-95467856D02*
X95961569Y-95563094D01*
X95961569Y-95563094D02*
X95961569Y-95705951D01*
X95961569Y-95705951D02*
X95913950Y-95801189D01*
X95913950Y-95801189D02*
X95866331Y-95848808D01*
X95866331Y-95848808D02*
X95771093Y-95896427D01*
X95771093Y-95896427D02*
X95390141Y-95896427D01*
X96532998Y-95801189D02*
X96437760Y-95753570D01*
X96437760Y-95753570D02*
X96390141Y-95705951D01*
X96390141Y-95705951D02*
X96342522Y-95610713D01*
X96342522Y-95610713D02*
X96342522Y-95563094D01*
X96342522Y-95563094D02*
X96390141Y-95467856D01*
X96390141Y-95467856D02*
X96437760Y-95420237D01*
X96437760Y-95420237D02*
X96532998Y-95372618D01*
X96532998Y-95372618D02*
X96723474Y-95372618D01*
X96723474Y-95372618D02*
X96818712Y-95420237D01*
X96818712Y-95420237D02*
X96866331Y-95467856D01*
X96866331Y-95467856D02*
X96913950Y-95563094D01*
X96913950Y-95563094D02*
X96913950Y-95610713D01*
X96913950Y-95610713D02*
X96866331Y-95705951D01*
X96866331Y-95705951D02*
X96818712Y-95753570D01*
X96818712Y-95753570D02*
X96723474Y-95801189D01*
X96723474Y-95801189D02*
X96532998Y-95801189D01*
X96532998Y-95801189D02*
X96437760Y-95848808D01*
X96437760Y-95848808D02*
X96390141Y-95896427D01*
X96390141Y-95896427D02*
X96342522Y-95991665D01*
X96342522Y-95991665D02*
X96342522Y-96182141D01*
X96342522Y-96182141D02*
X96390141Y-96277379D01*
X96390141Y-96277379D02*
X96437760Y-96324999D01*
X96437760Y-96324999D02*
X96532998Y-96372618D01*
X96532998Y-96372618D02*
X96723474Y-96372618D01*
X96723474Y-96372618D02*
X96818712Y-96324999D01*
X96818712Y-96324999D02*
X96866331Y-96277379D01*
X96866331Y-96277379D02*
X96913950Y-96182141D01*
X96913950Y-96182141D02*
X96913950Y-95991665D01*
X96913950Y-95991665D02*
X96866331Y-95896427D01*
X96866331Y-95896427D02*
X96818712Y-95848808D01*
X96818712Y-95848808D02*
X96723474Y-95801189D01*
X99209188Y-96372618D02*
X98637760Y-96372618D01*
X98923474Y-96372618D02*
X98923474Y-95372618D01*
X98923474Y-95372618D02*
X98828236Y-95515475D01*
X98828236Y-95515475D02*
X98732998Y-95610713D01*
X98732998Y-95610713D02*
X98637760Y-95658332D01*
X99637760Y-96372618D02*
X99637760Y-95372618D01*
X99732998Y-95991665D02*
X100018712Y-96372618D01*
X100018712Y-95705951D02*
X99637760Y-96086903D01*
X95885378Y-116572618D02*
X95552045Y-116096427D01*
X95313950Y-116572618D02*
X95313950Y-115572618D01*
X95313950Y-115572618D02*
X95694902Y-115572618D01*
X95694902Y-115572618D02*
X95790140Y-115620237D01*
X95790140Y-115620237D02*
X95837759Y-115667856D01*
X95837759Y-115667856D02*
X95885378Y-115763094D01*
X95885378Y-115763094D02*
X95885378Y-115905951D01*
X95885378Y-115905951D02*
X95837759Y-116001189D01*
X95837759Y-116001189D02*
X95790140Y-116048808D01*
X95790140Y-116048808D02*
X95694902Y-116096427D01*
X95694902Y-116096427D02*
X95313950Y-116096427D01*
X96837759Y-116572618D02*
X96266331Y-116572618D01*
X96552045Y-116572618D02*
X96552045Y-115572618D01*
X96552045Y-115572618D02*
X96456807Y-115715475D01*
X96456807Y-115715475D02*
X96361569Y-115810713D01*
X96361569Y-115810713D02*
X96266331Y-115858332D01*
X97171093Y-115572618D02*
X97790140Y-115572618D01*
X97790140Y-115572618D02*
X97456807Y-115953570D01*
X97456807Y-115953570D02*
X97599664Y-115953570D01*
X97599664Y-115953570D02*
X97694902Y-116001189D01*
X97694902Y-116001189D02*
X97742521Y-116048808D01*
X97742521Y-116048808D02*
X97790140Y-116144046D01*
X97790140Y-116144046D02*
X97790140Y-116382141D01*
X97790140Y-116382141D02*
X97742521Y-116477379D01*
X97742521Y-116477379D02*
X97694902Y-116524999D01*
X97694902Y-116524999D02*
X97599664Y-116572618D01*
X97599664Y-116572618D02*
X97313950Y-116572618D01*
X97313950Y-116572618D02*
X97218712Y-116524999D01*
X97218712Y-116524999D02*
X97171093Y-116477379D01*
X98637760Y-115667856D02*
X98685379Y-115620237D01*
X98685379Y-115620237D02*
X98780617Y-115572618D01*
X98780617Y-115572618D02*
X99018712Y-115572618D01*
X99018712Y-115572618D02*
X99113950Y-115620237D01*
X99113950Y-115620237D02*
X99161569Y-115667856D01*
X99161569Y-115667856D02*
X99209188Y-115763094D01*
X99209188Y-115763094D02*
X99209188Y-115858332D01*
X99209188Y-115858332D02*
X99161569Y-116001189D01*
X99161569Y-116001189D02*
X98590141Y-116572618D01*
X98590141Y-116572618D02*
X99209188Y-116572618D01*
X99637760Y-116572618D02*
X99637760Y-115572618D01*
X99732998Y-116191665D02*
X100018712Y-116572618D01*
X100018712Y-115905951D02*
X99637760Y-116286903D01*
X95885378Y-120572618D02*
X95552045Y-120096427D01*
X95313950Y-120572618D02*
X95313950Y-119572618D01*
X95313950Y-119572618D02*
X95694902Y-119572618D01*
X95694902Y-119572618D02*
X95790140Y-119620237D01*
X95790140Y-119620237D02*
X95837759Y-119667856D01*
X95837759Y-119667856D02*
X95885378Y-119763094D01*
X95885378Y-119763094D02*
X95885378Y-119905951D01*
X95885378Y-119905951D02*
X95837759Y-120001189D01*
X95837759Y-120001189D02*
X95790140Y-120048808D01*
X95790140Y-120048808D02*
X95694902Y-120096427D01*
X95694902Y-120096427D02*
X95313950Y-120096427D01*
X96837759Y-120572618D02*
X96266331Y-120572618D01*
X96552045Y-120572618D02*
X96552045Y-119572618D01*
X96552045Y-119572618D02*
X96456807Y-119715475D01*
X96456807Y-119715475D02*
X96361569Y-119810713D01*
X96361569Y-119810713D02*
X96266331Y-119858332D01*
X97694902Y-119905951D02*
X97694902Y-120572618D01*
X97456807Y-119524999D02*
X97218712Y-120239284D01*
X97218712Y-120239284D02*
X97837759Y-120239284D01*
X99209188Y-120572618D02*
X98637760Y-120572618D01*
X98923474Y-120572618D02*
X98923474Y-119572618D01*
X98923474Y-119572618D02*
X98828236Y-119715475D01*
X98828236Y-119715475D02*
X98732998Y-119810713D01*
X98732998Y-119810713D02*
X98637760Y-119858332D01*
X99637760Y-120572618D02*
X99637760Y-119572618D01*
X99732998Y-120191665D02*
X100018712Y-120572618D01*
X100018712Y-119905951D02*
X99637760Y-120286903D01*
D13*
X94348236Y-102547799D02*
X100888236Y-102547799D01*
X94348236Y-102877799D02*
X94348236Y-102547799D01*
X94348236Y-104957799D02*
X94348236Y-105287799D01*
X94348236Y-105287799D02*
X100888236Y-105287799D01*
X100888236Y-102547799D02*
X100888236Y-102877799D01*
X100888236Y-105287799D02*
X100888236Y-104957799D01*
X108518236Y-70785299D02*
X108038236Y-70785299D01*
X108518236Y-70785299D02*
X108518236Y-71205299D01*
X108518236Y-73325299D02*
X108518236Y-73745299D01*
X108518236Y-75865299D02*
X108518236Y-76285299D01*
X108518236Y-78405299D02*
X108518236Y-78825299D01*
X108518236Y-80945299D02*
X108518236Y-81365299D01*
X108518236Y-83485299D02*
X108518236Y-83905299D01*
X108518236Y-86025299D02*
X108518236Y-86445299D01*
X108518236Y-88565299D02*
X108518236Y-88985299D01*
X108518236Y-91105299D02*
X108518236Y-91525299D01*
X108518236Y-93645299D02*
X108518236Y-94065299D01*
X108518236Y-96185299D02*
X108518236Y-96605299D01*
X108518236Y-98725299D02*
X108518236Y-99145299D01*
X108518236Y-101265299D02*
X108518236Y-101685299D01*
X108518236Y-103805299D02*
X108518236Y-104225299D01*
X108518236Y-106345299D02*
X108518236Y-106765299D01*
X108518236Y-108885299D02*
X108518236Y-109305299D01*
X108518236Y-111425299D02*
X108518236Y-111845299D01*
X108518236Y-113965299D02*
X108518236Y-114385299D01*
X108518236Y-116505299D02*
X108518236Y-116925299D01*
X108548560Y-68665299D02*
X108038236Y-68665299D01*
X108858236Y-68665362D02*
X108858236Y-68308299D01*
X108858236Y-70785299D02*
X108858236Y-71205299D01*
X108858236Y-73325299D02*
X108858236Y-73745299D01*
X108858236Y-75865299D02*
X108858236Y-76285299D01*
X108858236Y-78405299D02*
X108858236Y-78825299D01*
X108858236Y-80945299D02*
X108858236Y-81365299D01*
X108858236Y-83485299D02*
X108858236Y-83905299D01*
X108858236Y-86025299D02*
X108858236Y-86445299D01*
X108858236Y-88565299D02*
X108858236Y-88985299D01*
X108858236Y-91105299D02*
X108858236Y-91525299D01*
X108858236Y-93645299D02*
X108858236Y-94065299D01*
X108858236Y-96185299D02*
X108858236Y-96605299D01*
X108858236Y-98725299D02*
X108858236Y-99145299D01*
X108858236Y-101265299D02*
X108858236Y-101685299D01*
X108858236Y-103805299D02*
X108858236Y-104225299D01*
X108858236Y-106345299D02*
X108858236Y-106765299D01*
X108858236Y-108885299D02*
X108858236Y-109305299D01*
X108858236Y-111425299D02*
X108858236Y-111845299D01*
X108858236Y-113965299D02*
X108858236Y-114385299D01*
X108858236Y-116505299D02*
X108858236Y-116925299D01*
X108858236Y-119045236D02*
X108858236Y-119402299D01*
X109128236Y-68245299D02*
X111618236Y-68245299D01*
X109128236Y-119465299D02*
X112966175Y-119465299D01*
X111618236Y-68245299D02*
X111618236Y-69158819D01*
X111618236Y-68245299D02*
X112966176Y-68245299D01*
X111618236Y-71551779D02*
X111618236Y-116158819D01*
X111618236Y-118551779D02*
X111618236Y-119465299D01*
X113890297Y-68245299D02*
X114893236Y-68245299D01*
X114893236Y-68245299D02*
X123363236Y-68245299D01*
X115228236Y-68245299D02*
X115228236Y-69161299D01*
X115228236Y-71549299D02*
X115228236Y-72765299D01*
X115228236Y-72765299D02*
X115524326Y-72765299D01*
X115528236Y-119465299D02*
X113890297Y-119465299D01*
X117882146Y-72765299D02*
X120374326Y-72765299D01*
X122728236Y-119465299D02*
X115528236Y-119465299D01*
X122732146Y-72765299D02*
X123028236Y-72765299D01*
X123028236Y-68245299D02*
X123028236Y-69161299D01*
X123028236Y-71549299D02*
X123028236Y-72765299D01*
X123363236Y-68245299D02*
X124366175Y-68245299D01*
X124366175Y-119465299D02*
X122728236Y-119465299D01*
X125290297Y-68245299D02*
X126638236Y-68245299D01*
X125290297Y-119465299D02*
X129128236Y-119465299D01*
X126638236Y-68245299D02*
X126638236Y-69158819D01*
X126638236Y-71551779D02*
X126638236Y-116158819D01*
X126638236Y-118551779D02*
X126638236Y-119465299D01*
X129128236Y-68245299D02*
X126638236Y-68245299D01*
X129398236Y-68665362D02*
X129398236Y-68308299D01*
X129398236Y-70785299D02*
X129398236Y-71205299D01*
X129398236Y-73325299D02*
X129398236Y-73745299D01*
X129398236Y-75865299D02*
X129398236Y-76285299D01*
X129398236Y-78405299D02*
X129398236Y-78825299D01*
X129398236Y-80945299D02*
X129398236Y-81365299D01*
X129398236Y-83485299D02*
X129398236Y-83905299D01*
X129398236Y-86025299D02*
X129398236Y-86445299D01*
X129398236Y-88565299D02*
X129398236Y-88985299D01*
X129398236Y-91105299D02*
X129398236Y-91525299D01*
X129398236Y-93645299D02*
X129398236Y-94065299D01*
X129398236Y-96185299D02*
X129398236Y-96605299D01*
X129398236Y-98725299D02*
X129398236Y-99145299D01*
X129398236Y-101265299D02*
X129398236Y-101685299D01*
X129398236Y-103805299D02*
X129398236Y-104225299D01*
X129398236Y-106345299D02*
X129398236Y-106765299D01*
X129398236Y-108885299D02*
X129398236Y-109305299D01*
X129398236Y-111425299D02*
X129398236Y-111845299D01*
X129398236Y-113965299D02*
X129398236Y-114385299D01*
X129398236Y-116505299D02*
X129398236Y-116925299D01*
X129398236Y-119045236D02*
X129398236Y-119402299D01*
X129738236Y-70785299D02*
X129738236Y-71205299D01*
X129738236Y-73325299D02*
X129738236Y-73745299D01*
X129738236Y-75865299D02*
X129738236Y-76285299D01*
X129738236Y-78405299D02*
X129738236Y-78825299D01*
X129738236Y-80945299D02*
X129738236Y-81365299D01*
X129738236Y-83485299D02*
X129738236Y-83905299D01*
X129738236Y-86025299D02*
X129738236Y-86445299D01*
X129738236Y-88565299D02*
X129738236Y-88985299D01*
X129738236Y-91105299D02*
X129738236Y-91525299D01*
X129738236Y-93645299D02*
X129738236Y-94065299D01*
X129738236Y-96185299D02*
X129738236Y-96605299D01*
X129738236Y-98725299D02*
X129738236Y-99145299D01*
X129738236Y-101265299D02*
X129738236Y-101685299D01*
X129738236Y-103805299D02*
X129738236Y-104225299D01*
X129738236Y-106345299D02*
X129738236Y-106765299D01*
X129738236Y-108885299D02*
X129738236Y-109305299D01*
X129738236Y-111425299D02*
X129738236Y-111845299D01*
X129738236Y-113965299D02*
X129738236Y-114385299D01*
X129738236Y-116505299D02*
X129738236Y-116925299D01*
X108548560Y-68665299D02*
G75*
G02*
X109128236Y-68245299I579692J-190051D01*
G01*
X109128236Y-119465299D02*
G75*
G02*
X108548560Y-119045236I1J610002D01*
G01*
X129128236Y-68245299D02*
G75*
G02*
X129707912Y-68665362I0J-610000D01*
G01*
X129707912Y-119045236D02*
G75*
G02*
X129128236Y-119465368I-579676J189837D01*
G01*
X94348236Y-86347799D02*
X100888236Y-86347799D01*
X94348236Y-86677799D02*
X94348236Y-86347799D01*
X94348236Y-88757799D02*
X94348236Y-89087799D01*
X94348236Y-89087799D02*
X100888236Y-89087799D01*
X100888236Y-86347799D02*
X100888236Y-86677799D01*
X100888236Y-89087799D02*
X100888236Y-88757799D01*
X94348236Y-82297799D02*
X100888236Y-82297799D01*
X94348236Y-82627799D02*
X94348236Y-82297799D01*
X94348236Y-84707799D02*
X94348236Y-85037799D01*
X94348236Y-85037799D02*
X100888236Y-85037799D01*
X100888236Y-82297799D02*
X100888236Y-82627799D01*
X100888236Y-85037799D02*
X100888236Y-84707799D01*
X83818236Y-88007799D02*
X84928236Y-88007799D01*
X83818236Y-89117799D02*
X83818236Y-88007799D01*
X83818236Y-90117799D02*
X83818236Y-98227799D01*
X83818236Y-90117799D02*
X85928236Y-90117799D01*
X83818236Y-98227799D02*
X88038236Y-98227799D01*
X85928236Y-88007799D02*
X88038236Y-88007799D01*
X85928236Y-90117799D02*
X85928236Y-88007799D01*
X88038236Y-88007799D02*
X88038236Y-98227799D01*
X94348236Y-90397799D02*
X100888236Y-90397799D01*
X94348236Y-90727799D02*
X94348236Y-90397799D01*
X94348236Y-92807799D02*
X94348236Y-93137799D01*
X94348236Y-93137799D02*
X100888236Y-93137799D01*
X100888236Y-90397799D02*
X100888236Y-90727799D01*
X100888236Y-93137799D02*
X100888236Y-92807799D01*
X94348236Y-110647799D02*
X100888236Y-110647799D01*
X94348236Y-110977799D02*
X94348236Y-110647799D01*
X94348236Y-113057799D02*
X94348236Y-113387799D01*
X94348236Y-113387799D02*
X100888236Y-113387799D01*
X100888236Y-110647799D02*
X100888236Y-110977799D01*
X100888236Y-113387799D02*
X100888236Y-113057799D01*
X94348236Y-74197799D02*
X100888236Y-74197799D01*
X94348236Y-74527799D02*
X94348236Y-74197799D01*
X94348236Y-76607799D02*
X94348236Y-76937799D01*
X94348236Y-76937799D02*
X100888236Y-76937799D01*
X100888236Y-74197799D02*
X100888236Y-74527799D01*
X100888236Y-76937799D02*
X100888236Y-76607799D01*
X135348236Y-84917799D02*
X136728236Y-84917799D01*
X135348236Y-86297799D02*
X135348236Y-84917799D01*
X135348236Y-87567799D02*
X135348236Y-102917799D01*
X135348236Y-87567799D02*
X138108236Y-87567799D01*
X135348236Y-102917799D02*
X138108236Y-102917799D01*
X138108236Y-87567799D02*
X138108236Y-102917799D01*
X94348236Y-78247799D02*
X100888236Y-78247799D01*
X94348236Y-78577799D02*
X94348236Y-78247799D01*
X94348236Y-80657799D02*
X94348236Y-80987799D01*
X94348236Y-80987799D02*
X100888236Y-80987799D01*
X100888236Y-78247799D02*
X100888236Y-78577799D01*
X100888236Y-80987799D02*
X100888236Y-80657799D01*
X94348236Y-66097799D02*
X100888236Y-66097799D01*
X94348236Y-66427799D02*
X94348236Y-66097799D01*
X94348236Y-68507799D02*
X94348236Y-68837799D01*
X94348236Y-68837799D02*
X100888236Y-68837799D01*
X100888236Y-66097799D02*
X100888236Y-66427799D01*
X100888236Y-68837799D02*
X100888236Y-68507799D01*
X94348236Y-98497799D02*
X100888236Y-98497799D01*
X94348236Y-98827799D02*
X94348236Y-98497799D01*
X94348236Y-100907799D02*
X94348236Y-101237799D01*
X94348236Y-101237799D02*
X100888236Y-101237799D01*
X100888236Y-98497799D02*
X100888236Y-98827799D01*
X100888236Y-101237799D02*
X100888236Y-100907799D01*
X94348236Y-106597799D02*
X100888236Y-106597799D01*
X94348236Y-106927799D02*
X94348236Y-106597799D01*
X94348236Y-109007799D02*
X94348236Y-109337799D01*
X94348236Y-109337799D02*
X100888236Y-109337799D01*
X100888236Y-106597799D02*
X100888236Y-106927799D01*
X100888236Y-109337799D02*
X100888236Y-109007799D01*
X94348236Y-70147799D02*
X100888236Y-70147799D01*
X94348236Y-70477799D02*
X94348236Y-70147799D01*
X94348236Y-72557799D02*
X94348236Y-72887799D01*
X94348236Y-72887799D02*
X100888236Y-72887799D01*
X100888236Y-70147799D02*
X100888236Y-70477799D01*
X100888236Y-72887799D02*
X100888236Y-72557799D01*
X94348236Y-94447799D02*
X100888236Y-94447799D01*
X94348236Y-94777799D02*
X94348236Y-94447799D01*
X94348236Y-96857799D02*
X94348236Y-97187799D01*
X94348236Y-97187799D02*
X100888236Y-97187799D01*
X100888236Y-94447799D02*
X100888236Y-94777799D01*
X100888236Y-97187799D02*
X100888236Y-96857799D01*
X94348236Y-114697799D02*
X100888236Y-114697799D01*
X94348236Y-115027799D02*
X94348236Y-114697799D01*
X94348236Y-117107799D02*
X94348236Y-117437799D01*
X94348236Y-117437799D02*
X100888236Y-117437799D01*
X100888236Y-114697799D02*
X100888236Y-115027799D01*
X100888236Y-117437799D02*
X100888236Y-117107799D01*
X94348236Y-118747799D02*
X100888236Y-118747799D01*
X94348236Y-119077799D02*
X94348236Y-118747799D01*
X94348236Y-121157799D02*
X94348236Y-121487799D01*
X94348236Y-121487799D02*
X100888236Y-121487799D01*
X100888236Y-118747799D02*
X100888236Y-119077799D01*
X100888236Y-121487799D02*
X100888236Y-121157799D01*
M02*
