G04 #@! TF.GenerationSoftware,KiCad,Pcbnew,10.0.1*
G04 #@! TF.CreationDate,2026-06-04T08:24:52-07:00*
G04 #@! TF.ProjectId,Pico_FZ1_OLED_PCB,5069636f-5f46-45a3-915f-4f4c45445f50,rev?*
G04 #@! TF.SameCoordinates,Original*
G04 #@! TF.FileFunction,Copper,L1,Top*
G04 #@! TF.FilePolarity,Positive*
%FSLAX46Y46*%
G04 Gerber Fmt 4.6, Leading zero omitted, Abs format (unit mm)*
G04 Created by KiCad (PCBNEW 10.0.1) date 2026-06-04 08:24:52*
%MOMM*%
%LPD*%
G01*
G04 APERTURE LIST*
G04 Aperture macros list*
%AMRoundRect*
0 Rectangle with rounded corners*
0 $1 Rounding radius*
0 $2 $3 $4 $5 $6 $7 $8 $9 X,Y pos of 4 corners*
0 Add a 4 corners polygon primitive as box body*
4,1,4,$2,$3,$4,$5,$6,$7,$8,$9,$2,$3,0*
0 Add four circle primitives for the rounded corners*
1,1,$1+$1,$2,$3*
1,1,$1+$1,$4,$5*
1,1,$1+$1,$6,$7*
1,1,$1+$1,$8,$9*
0 Add four rect primitives between the rounded corners*
20,1,$1+$1,$2,$3,$4,$5,0*
20,1,$1+$1,$4,$5,$6,$7,0*
20,1,$1+$1,$6,$7,$8,$9,0*
20,1,$1+$1,$8,$9,$2,$3,0*%
%AMFreePoly0*
4,1,37,0.800000,0.796148,0.878414,0.796148,1.032228,0.765552,1.177117,0.705537,1.307515,0.618408,1.418408,0.507515,1.505537,0.377117,1.565552,0.232228,1.596148,0.078414,1.596148,-0.078414,1.565552,-0.232228,1.505537,-0.377117,1.418408,-0.507515,1.307515,-0.618408,1.177117,-0.705537,1.032228,-0.765552,0.878414,-0.796148,0.800000,-0.796148,0.800000,-0.800000,-1.400000,-0.800000,
-1.403843,-0.796157,-1.439018,-0.796157,-1.511114,-0.766294,-1.566294,-0.711114,-1.596157,-0.639018,-1.596157,-0.603843,-1.600000,-0.600000,-1.600000,0.600000,-1.596157,0.603843,-1.596157,0.639018,-1.566294,0.711114,-1.511114,0.766294,-1.439018,0.796157,-1.403843,0.796157,-1.400000,0.800000,0.800000,0.800000,0.800000,0.796148,0.800000,0.796148,$1*%
%AMFreePoly1*
4,1,37,1.403843,0.796157,1.439018,0.796157,1.511114,0.766294,1.566294,0.711114,1.596157,0.639018,1.596157,0.603843,1.600000,0.600000,1.600000,-0.600000,1.596157,-0.603843,1.596157,-0.639018,1.566294,-0.711114,1.511114,-0.766294,1.439018,-0.796157,1.403843,-0.796157,1.400000,-0.800000,-0.800000,-0.800000,-0.800000,-0.796148,-0.878414,-0.796148,-1.032228,-0.765552,-1.177117,-0.705537,
-1.307515,-0.618408,-1.418408,-0.507515,-1.505537,-0.377117,-1.565552,-0.232228,-1.596148,-0.078414,-1.596148,0.078414,-1.565552,0.232228,-1.505537,0.377117,-1.418408,0.507515,-1.307515,0.618408,-1.177117,0.705537,-1.032228,0.765552,-0.878414,0.796148,-0.800000,0.796148,-0.800000,0.800000,1.400000,0.800000,1.403843,0.796157,1.403843,0.796157,$1*%
%AMFreePoly2*
4,1,37,0.603843,0.796157,0.639018,0.796157,0.711114,0.766294,0.766294,0.711114,0.796157,0.639018,0.796157,0.603843,0.800000,0.600000,0.800000,-0.600000,0.796157,-0.603843,0.796157,-0.639018,0.766294,-0.711114,0.711114,-0.766294,0.639018,-0.796157,0.603843,-0.796157,0.600000,-0.800000,0.000000,-0.800000,0.000000,-0.796148,-0.078414,-0.796148,-0.232228,-0.765552,-0.377117,-0.705537,
-0.507515,-0.618408,-0.618408,-0.507515,-0.705537,-0.377117,-0.765552,-0.232228,-0.796148,-0.078414,-0.796148,0.078414,-0.765552,0.232228,-0.705537,0.377117,-0.618408,0.507515,-0.507515,0.618408,-0.377117,0.705537,-0.232228,0.765552,-0.078414,0.796148,0.000000,0.796148,0.000000,0.800000,0.600000,0.800000,0.603843,0.796157,0.603843,0.796157,$1*%
%AMFreePoly3*
4,1,37,0.000000,0.796148,0.078414,0.796148,0.232228,0.765552,0.377117,0.705537,0.507515,0.618408,0.618408,0.507515,0.705537,0.377117,0.765552,0.232228,0.796148,0.078414,0.796148,-0.078414,0.765552,-0.232228,0.705537,-0.377117,0.618408,-0.507515,0.507515,-0.618408,0.377117,-0.705537,0.232228,-0.765552,0.078414,-0.796148,0.000000,-0.796148,0.000000,-0.800000,-0.600000,-0.800000,
-0.603843,-0.796157,-0.639018,-0.796157,-0.711114,-0.766294,-0.766294,-0.711114,-0.796157,-0.639018,-0.796157,-0.603843,-0.800000,-0.600000,-0.800000,0.600000,-0.796157,0.603843,-0.796157,0.639018,-0.766294,0.711114,-0.711114,0.766294,-0.639018,0.796157,-0.603843,0.796157,-0.600000,0.800000,0.000000,0.800000,0.000000,0.796148,0.000000,0.796148,$1*%
G04 Aperture macros list end*
G04 #@! TA.AperFunction,ComponentPad*
%ADD10C,1.600000*%
G04 #@! TD*
G04 #@! TA.AperFunction,SMDPad,CuDef*
%ADD11FreePoly0,0.000000*%
G04 #@! TD*
G04 #@! TA.AperFunction,ComponentPad*
%ADD12RoundRect,0.200000X-0.600000X-0.600000X0.600000X-0.600000X0.600000X0.600000X-0.600000X0.600000X0*%
G04 #@! TD*
G04 #@! TA.AperFunction,SMDPad,CuDef*
%ADD13RoundRect,0.800000X-0.800000X-0.000010X0.800000X-0.000010X0.800000X0.000010X-0.800000X0.000010X0*%
G04 #@! TD*
G04 #@! TA.AperFunction,SMDPad,CuDef*
%ADD14FreePoly1,0.000000*%
G04 #@! TD*
G04 #@! TA.AperFunction,ComponentPad*
%ADD15FreePoly2,0.000000*%
G04 #@! TD*
G04 #@! TA.AperFunction,ComponentPad*
%ADD16FreePoly3,0.000000*%
G04 #@! TD*
G04 #@! TA.AperFunction,ComponentPad*
%ADD17R,1.350000X1.350000*%
G04 #@! TD*
G04 #@! TA.AperFunction,ComponentPad*
%ADD18C,1.350000*%
G04 #@! TD*
G04 #@! TA.AperFunction,ComponentPad*
%ADD19R,1.700000X1.700000*%
G04 #@! TD*
G04 #@! TA.AperFunction,ComponentPad*
%ADD20C,1.700000*%
G04 #@! TD*
G04 #@! TA.AperFunction,Conductor*
%ADD21C,0.250000*%
G04 #@! TD*
G04 APERTURE END LIST*
D10*
X93808236Y-103917799D03*
X101428236Y-103917799D03*
D11*
X109438236Y-69725299D03*
D12*
X110238236Y-69725299D03*
D13*
X109438236Y-72265299D03*
D10*
X110238236Y-72265299D03*
D14*
X109438236Y-74805299D03*
D15*
X110238236Y-74805299D03*
D13*
X109438236Y-77345299D03*
D10*
X110238236Y-77345299D03*
D13*
X109438236Y-79885299D03*
D10*
X110238236Y-79885299D03*
D13*
X109438236Y-82425299D03*
D10*
X110238236Y-82425299D03*
D13*
X109438236Y-84965299D03*
D10*
X110238236Y-84965299D03*
D14*
X109438236Y-87505299D03*
D15*
X110238236Y-87505299D03*
D13*
X109438236Y-90045299D03*
D10*
X110238236Y-90045299D03*
D13*
X109438236Y-92585299D03*
D10*
X110238236Y-92585299D03*
D13*
X109438236Y-95125299D03*
D10*
X110238236Y-95125299D03*
D13*
X109438236Y-97665299D03*
D10*
X110238236Y-97665299D03*
D14*
X109438236Y-100205299D03*
D15*
X110238236Y-100205299D03*
D13*
X109438236Y-102745299D03*
D10*
X110238236Y-102745299D03*
D13*
X109438236Y-105285299D03*
D10*
X110238236Y-105285299D03*
D13*
X109438236Y-107825299D03*
D10*
X110238236Y-107825299D03*
D13*
X109438236Y-110365299D03*
D10*
X110238236Y-110365299D03*
D14*
X109438236Y-112905299D03*
D15*
X110238236Y-112905299D03*
D13*
X109438236Y-115445299D03*
D10*
X110238236Y-115445299D03*
D13*
X109438236Y-117985299D03*
D10*
X110238236Y-117985299D03*
X128018236Y-117985299D03*
D13*
X128818236Y-117985299D03*
D10*
X128018236Y-115445299D03*
D13*
X128818236Y-115445299D03*
D16*
X128018236Y-112905299D03*
D11*
X128818236Y-112905299D03*
D10*
X128018236Y-110365299D03*
D13*
X128818236Y-110365299D03*
D10*
X128018236Y-107825299D03*
D13*
X128818236Y-107825299D03*
D10*
X128018236Y-105285299D03*
D13*
X128818236Y-105285299D03*
D10*
X128018236Y-102745299D03*
D13*
X128818236Y-102745299D03*
D16*
X128018236Y-100205299D03*
D11*
X128818236Y-100205299D03*
D10*
X128018236Y-97665299D03*
D13*
X128818236Y-97665299D03*
D10*
X128018236Y-95125299D03*
D13*
X128818236Y-95125299D03*
D10*
X128018236Y-92585299D03*
D13*
X128818236Y-92585299D03*
D10*
X128018236Y-90045299D03*
D13*
X128818236Y-90045299D03*
D16*
X128018236Y-87505299D03*
D11*
X128818236Y-87505299D03*
D10*
X128018236Y-84965299D03*
D13*
X128818236Y-84965299D03*
D10*
X128018236Y-82425299D03*
D13*
X128818236Y-82425299D03*
D10*
X128018236Y-79885299D03*
D13*
X128818236Y-79885299D03*
D10*
X128018236Y-77345299D03*
D13*
X128818236Y-77345299D03*
D16*
X128018236Y-74805299D03*
D11*
X128818236Y-74805299D03*
D10*
X128018236Y-72265299D03*
D13*
X128818236Y-72265299D03*
D10*
X128018236Y-69725299D03*
D13*
X128818236Y-69725299D03*
D10*
X93808236Y-87717799D03*
X101428236Y-87717799D03*
X93808236Y-83667799D03*
X101428236Y-83667799D03*
D17*
X84928236Y-89117799D03*
D18*
X86928236Y-89117799D03*
X84928236Y-91117799D03*
X86928236Y-91117799D03*
X84928236Y-93117799D03*
X86928236Y-93117799D03*
X84928236Y-95117799D03*
X86928236Y-95117799D03*
X84928236Y-97117799D03*
X86928236Y-97117799D03*
D10*
X93808236Y-91767799D03*
X101428236Y-91767799D03*
X93808236Y-112017799D03*
X101428236Y-112017799D03*
X93808236Y-75567799D03*
X101428236Y-75567799D03*
D19*
X136728236Y-86297799D03*
D20*
X136728236Y-88837799D03*
X136728236Y-91377799D03*
X136728236Y-93917799D03*
X136728236Y-96457799D03*
X136728236Y-98997799D03*
X136728236Y-101537799D03*
D10*
X93808236Y-79617799D03*
X101428236Y-79617799D03*
X93808236Y-67467799D03*
X101428236Y-67467799D03*
X93808236Y-99867799D03*
X101428236Y-99867799D03*
X93808236Y-107967799D03*
X101428236Y-107967799D03*
X93808236Y-71517799D03*
X101428236Y-71517799D03*
X93808236Y-95817799D03*
X101428236Y-95817799D03*
X93808236Y-116067799D03*
X101428236Y-116067799D03*
X93808236Y-120117799D03*
X101428236Y-120117799D03*
D21*
X86928236Y-95117799D02*
X89058236Y-95117799D01*
X93808236Y-99867799D02*
X93808236Y-103917799D01*
X89058236Y-95117799D02*
X93808236Y-99867799D01*
X104528236Y-100817799D02*
X101428236Y-103917799D01*
X104528236Y-84317799D02*
X104528236Y-100817799D01*
X110238236Y-82425299D02*
X106420736Y-82425299D01*
X106420736Y-82425299D02*
X104528236Y-84317799D01*
X103220736Y-69725299D02*
X101428236Y-71517799D01*
X110238236Y-69725299D02*
X103220736Y-69725299D01*
X103528236Y-77517799D02*
X101428236Y-79617799D01*
X110238236Y-72265299D02*
X105780736Y-72265299D01*
X105780736Y-72265299D02*
X103528236Y-74517799D01*
X103528236Y-74517799D02*
X103528236Y-77517799D01*
X102928236Y-80117799D02*
X102928236Y-86217799D01*
X110238236Y-77345299D02*
X105700736Y-77345299D01*
X105700736Y-77345299D02*
X102928236Y-80117799D01*
X102928236Y-86217799D02*
X101428236Y-87717799D01*
X110238236Y-79885299D02*
X105160736Y-79885299D01*
X103728236Y-93517799D02*
X101428236Y-95817799D01*
X105160736Y-79885299D02*
X103728236Y-81317799D01*
X103728236Y-81317799D02*
X103728236Y-93517799D01*
X105328236Y-85517799D02*
X105328236Y-108117799D01*
X105328236Y-108117799D02*
X101428236Y-112017799D01*
X105880736Y-84965299D02*
X105328236Y-85517799D01*
X110238236Y-84965299D02*
X105880736Y-84965299D01*
X106128236Y-90917799D02*
X106128236Y-115417799D01*
X106128236Y-115417799D02*
X101428236Y-120117799D01*
X107000736Y-90045299D02*
X106128236Y-90917799D01*
X110238236Y-90045299D02*
X107000736Y-90045299D01*
X135280736Y-110365299D02*
X140728236Y-104917799D01*
X140728236Y-92517799D02*
X139588236Y-91377799D01*
X140728236Y-104917799D02*
X140728236Y-92517799D01*
X128818236Y-110365299D02*
X135280736Y-110365299D01*
X139588236Y-91377799D02*
X136728236Y-91377799D01*
X138128236Y-93917799D02*
X136728236Y-93917799D01*
X139528236Y-95317799D02*
X138128236Y-93917799D01*
X135820736Y-107825299D02*
X139528236Y-104117799D01*
X128018236Y-107825299D02*
X135820736Y-107825299D01*
X139528236Y-104117799D02*
X139528236Y-95317799D01*
X136728236Y-98997799D02*
X134448236Y-98997799D01*
X134448236Y-98997799D02*
X130700736Y-102745299D01*
X130700736Y-102745299D02*
X128018236Y-102745299D01*
X130695736Y-79885299D02*
X128018236Y-79885299D01*
X132528236Y-81717799D02*
X130695736Y-79885299D01*
X136728236Y-88837799D02*
X133648236Y-88837799D01*
X133648236Y-88837799D02*
X132528236Y-87717799D01*
X132528236Y-87717799D02*
X132528236Y-81717799D01*
X90408236Y-91117799D02*
X93808236Y-87717799D01*
X86928236Y-91117799D02*
X90408236Y-91117799D01*
X93808236Y-83667799D02*
X93808236Y-87717799D01*
X93808236Y-75567799D02*
X93808236Y-79617799D01*
X93808236Y-67467799D02*
X93808236Y-71517799D01*
X86928236Y-89117799D02*
X86928236Y-76317799D01*
X91728236Y-71517799D02*
X93808236Y-71517799D01*
X91728236Y-71517799D02*
X86928236Y-76317799D01*
X93458236Y-92117799D02*
X93808236Y-91767799D01*
X85928236Y-92117799D02*
X93458236Y-92117799D01*
X84928236Y-91117799D02*
X85928236Y-92117799D01*
X93808236Y-91767799D02*
X93808236Y-95817799D01*
X89328236Y-103487799D02*
X89328236Y-97517799D01*
X89328236Y-97517799D02*
X87928236Y-96117799D01*
X85928236Y-96117799D02*
X84928236Y-95117799D01*
X87928236Y-96117799D02*
X85928236Y-96117799D01*
X93808236Y-107967799D02*
X89328236Y-103487799D01*
X93808236Y-107967799D02*
X93808236Y-112017799D01*
X93808236Y-116067799D02*
X93808236Y-120117799D01*
X86928236Y-109187799D02*
X93808236Y-116067799D01*
X86928236Y-97117799D02*
X86928236Y-109187799D01*
M02*
