M48
; DRILL file KiCad 10.0.1 date 2026-06-04T08:24:55
; FORMAT={-:-/ absolute / metric / decimal}
; #@! TF.CreationDate,2026-06-04T08:24:55-07:00
; #@! TF.GenerationSoftware,Kicad,Pcbnew,10.0.1
; #@! TF.FileFunction,NonPlated,1,2,NPTH
FMAT,2
METRIC
; #@! TA.AperFunction,NonPlated,NPTH,ComponentDrill
T1C0.500
; #@! TA.AperFunction,NonPlated,NPTH,ComponentDrill
T2C1.850
; #@! TA.AperFunction,NonPlated,NPTH,ComponentDrill
T3C2.200
; #@! TA.AperFunction,NonPlated,NPTH,ComponentDrill
T4C3.000
; #@! TA.AperFunction,NonPlated,NPTH,ComponentDrill
T5C4.700
%
G90
G05
T1
X82.525Y-56.032
X82.601Y-132.029
X83.375Y-56.032
X83.451Y-132.029
X84.225Y-56.032
X84.301Y-132.029
X85.075Y-56.032
X85.151Y-132.029
X85.925Y-56.032
X86.001Y-132.029
X86.775Y-56.032
X86.851Y-132.029
X87.625Y-56.032
X87.701Y-132.029
X88.475Y-56.032
X88.551Y-132.029
X89.325Y-56.032
X89.401Y-132.029
X90.17Y-56.032
X90.246Y-132.029
X91.02Y-56.032
X91.096Y-132.029
X91.87Y-56.032
X91.946Y-132.029
X92.72Y-56.032
X92.796Y-132.029
X93.57Y-56.032
X93.646Y-132.029
X94.42Y-56.032
X94.496Y-132.029
X95.27Y-56.032
X95.346Y-132.029
X96.12Y-56.032
X96.196Y-132.029
X96.97Y-56.032
X97.046Y-132.029
X97.831Y-56.032
X97.907Y-132.029
X98.681Y-56.032
X98.757Y-132.029
X99.531Y-56.032
X99.607Y-132.029
X100.381Y-56.032
X100.457Y-132.029
X101.231Y-56.032
X101.307Y-132.029
X102.081Y-56.032
X102.157Y-132.029
X102.931Y-56.032
X103.007Y-132.029
X103.781Y-56.032
X103.857Y-132.029
X104.631Y-56.032
X104.707Y-132.029
X105.476Y-56.032
X105.552Y-132.029
X106.326Y-56.032
X106.402Y-132.029
X107.176Y-56.032
X107.252Y-132.029
X108.026Y-56.032
X108.102Y-132.029
X108.876Y-56.032
X108.952Y-132.029
X109.726Y-56.032
X109.802Y-132.029
X110.576Y-56.032
X110.652Y-132.029
X111.426Y-56.032
X111.502Y-132.029
X112.276Y-56.032
X112.352Y-132.029
X113.122Y-56.032
X113.198Y-132.029
X113.972Y-56.032
X114.048Y-132.029
X114.822Y-56.032
X114.898Y-132.029
X115.672Y-56.032
X115.748Y-132.029
X116.522Y-56.032
X116.598Y-132.029
X117.372Y-56.032
X117.448Y-132.029
X118.222Y-56.032
X118.298Y-132.029
X119.072Y-56.032
X119.148Y-132.029
X119.922Y-56.032
X119.998Y-132.029
X120.767Y-56.032
X120.843Y-132.029
X121.617Y-56.032
X121.693Y-132.029
X122.467Y-56.032
X122.543Y-132.029
X123.317Y-56.032
X123.393Y-132.029
X124.167Y-56.032
X124.243Y-132.029
X125.017Y-56.032
X125.093Y-132.029
X125.867Y-56.032
X125.943Y-132.029
X126.717Y-56.032
X126.793Y-132.029
X127.567Y-56.032
X127.643Y-132.029
X128.438Y-56.032
X128.514Y-132.029
X129.288Y-56.032
X129.364Y-132.029
X130.138Y-56.032
X130.214Y-132.029
X130.988Y-56.032
X131.064Y-132.029
X131.838Y-56.032
X131.914Y-132.029
X132.688Y-56.032
X132.764Y-132.029
X133.538Y-56.032
X133.614Y-132.029
X134.388Y-56.032
X134.464Y-132.029
X135.238Y-56.032
X135.314Y-132.029
X136.083Y-56.032
X136.159Y-132.029
X136.933Y-56.032
X137.009Y-132.029
X137.783Y-56.032
X137.859Y-132.029
X138.633Y-56.032
X138.709Y-132.029
X139.483Y-56.032
X139.559Y-132.029
X140.333Y-56.032
X140.409Y-132.029
X141.183Y-56.032
X141.259Y-132.029
X142.033Y-56.032
X142.109Y-132.029
X142.883Y-56.032
X142.959Y-132.029
X143.754Y-56.032
X143.83Y-132.029
X144.604Y-56.032
X144.68Y-132.029
X145.454Y-56.032
X145.53Y-132.029
X146.304Y-56.032
X146.38Y-132.029
X147.154Y-56.032
X147.23Y-132.029
X148.004Y-56.032
X148.08Y-132.029
X148.854Y-56.032
X148.93Y-132.029
X149.704Y-56.032
X149.78Y-132.029
X150.554Y-56.032
X150.63Y-132.029
X151.428Y-56.032
X151.504Y-132.029
X152.278Y-56.032
X152.354Y-132.029
T2
X116.703Y-72.885
X121.553Y-72.885
T3
X116.403Y-69.855
X121.853Y-69.855
T4
X89.328Y-59.918
X89.328Y-127.918
X93.75Y-38.89
X93.75Y-148.89
X132.75Y-38.89
X132.75Y-148.89
X147.328Y-59.918
X147.328Y-127.918
T5
X118.71Y-38.81
X118.71Y-148.93
M30
