G04 #@! TF.GenerationSoftware,KiCad,Pcbnew,10.0.1*
G04 #@! TF.CreationDate,2026-06-28T00:29:43-07:00*
G04 #@! TF.ProjectId,fz1_oled_IDC_adapter,667a315f-6f6c-4656-945f-4944435f6164,rev?*
G04 #@! TF.SameCoordinates,Original*
G04 #@! TF.FileFunction,Legend,Top*
G04 #@! TF.FilePolarity,Positive*
%FSLAX46Y46*%
G04 Gerber Fmt 4.6, Leading zero omitted, Abs format (unit mm)*
G04 Created by KiCad (PCBNEW 10.0.1) date 2026-06-28 00:29:43*
%MOMM*%
%LPD*%
G01*
G04 APERTURE LIST*
%ADD10C,0.150000*%
%ADD11C,0.120000*%
%ADD12C,0.010000*%
G04 APERTURE END LIST*
D10*
X138000000Y-53500000D02*
X137000000Y-52500000D01*
X139000000Y-52500000D01*
X138000000Y-53500000D01*
G36*
X138000000Y-53500000D02*
G01*
X137000000Y-52500000D01*
X139000000Y-52500000D01*
X138000000Y-53500000D01*
G37*
X150000000Y-51500000D02*
X148000000Y-51500000D01*
X149000000Y-50500000D01*
X150000000Y-51500000D01*
G36*
X150000000Y-51500000D02*
G01*
X148000000Y-51500000D01*
X149000000Y-50500000D01*
X150000000Y-51500000D01*
G37*
X159166666Y-47454819D02*
X159166666Y-48169104D01*
X159166666Y-48169104D02*
X159119047Y-48311961D01*
X159119047Y-48311961D02*
X159023809Y-48407200D01*
X159023809Y-48407200D02*
X158880952Y-48454819D01*
X158880952Y-48454819D02*
X158785714Y-48454819D01*
X159595238Y-47550057D02*
X159642857Y-47502438D01*
X159642857Y-47502438D02*
X159738095Y-47454819D01*
X159738095Y-47454819D02*
X159976190Y-47454819D01*
X159976190Y-47454819D02*
X160071428Y-47502438D01*
X160071428Y-47502438D02*
X160119047Y-47550057D01*
X160119047Y-47550057D02*
X160166666Y-47645295D01*
X160166666Y-47645295D02*
X160166666Y-47740533D01*
X160166666Y-47740533D02*
X160119047Y-47883390D01*
X160119047Y-47883390D02*
X159547619Y-48454819D01*
X159547619Y-48454819D02*
X160166666Y-48454819D01*
X137666666Y-50954819D02*
X137666666Y-51669104D01*
X137666666Y-51669104D02*
X137619047Y-51811961D01*
X137619047Y-51811961D02*
X137523809Y-51907200D01*
X137523809Y-51907200D02*
X137380952Y-51954819D01*
X137380952Y-51954819D02*
X137285714Y-51954819D01*
X138047619Y-50954819D02*
X138666666Y-50954819D01*
X138666666Y-50954819D02*
X138333333Y-51335771D01*
X138333333Y-51335771D02*
X138476190Y-51335771D01*
X138476190Y-51335771D02*
X138571428Y-51383390D01*
X138571428Y-51383390D02*
X138619047Y-51431009D01*
X138619047Y-51431009D02*
X138666666Y-51526247D01*
X138666666Y-51526247D02*
X138666666Y-51764342D01*
X138666666Y-51764342D02*
X138619047Y-51859580D01*
X138619047Y-51859580D02*
X138571428Y-51907200D01*
X138571428Y-51907200D02*
X138476190Y-51954819D01*
X138476190Y-51954819D02*
X138190476Y-51954819D01*
X138190476Y-51954819D02*
X138095238Y-51907200D01*
X138095238Y-51907200D02*
X138047619Y-51859580D01*
X146666666Y-52931009D02*
X146333333Y-52931009D01*
X146333333Y-53454819D02*
X146333333Y-52454819D01*
X146333333Y-52454819D02*
X146809523Y-52454819D01*
X147095238Y-52454819D02*
X147761904Y-52454819D01*
X147761904Y-52454819D02*
X147095238Y-53454819D01*
X147095238Y-53454819D02*
X147761904Y-53454819D01*
X148142857Y-53073866D02*
X148904762Y-53073866D01*
X149904761Y-53454819D02*
X149333333Y-53454819D01*
X149619047Y-53454819D02*
X149619047Y-52454819D01*
X149619047Y-52454819D02*
X149523809Y-52597676D01*
X149523809Y-52597676D02*
X149428571Y-52692914D01*
X149428571Y-52692914D02*
X149333333Y-52740533D01*
X151095238Y-52931009D02*
X151428571Y-52931009D01*
X151571428Y-53454819D02*
X151095238Y-53454819D01*
X151095238Y-53454819D02*
X151095238Y-52454819D01*
X151095238Y-52454819D02*
X151571428Y-52454819D01*
X152428571Y-53454819D02*
X152428571Y-52454819D01*
X152428571Y-53407200D02*
X152333333Y-53454819D01*
X152333333Y-53454819D02*
X152142857Y-53454819D01*
X152142857Y-53454819D02*
X152047619Y-53407200D01*
X152047619Y-53407200D02*
X152000000Y-53359580D01*
X152000000Y-53359580D02*
X151952381Y-53264342D01*
X151952381Y-53264342D02*
X151952381Y-52978628D01*
X151952381Y-52978628D02*
X152000000Y-52883390D01*
X152000000Y-52883390D02*
X152047619Y-52835771D01*
X152047619Y-52835771D02*
X152142857Y-52788152D01*
X152142857Y-52788152D02*
X152333333Y-52788152D01*
X152333333Y-52788152D02*
X152428571Y-52835771D01*
X153333333Y-52788152D02*
X153333333Y-53597676D01*
X153333333Y-53597676D02*
X153285714Y-53692914D01*
X153285714Y-53692914D02*
X153238095Y-53740533D01*
X153238095Y-53740533D02*
X153142857Y-53788152D01*
X153142857Y-53788152D02*
X153000000Y-53788152D01*
X153000000Y-53788152D02*
X152904762Y-53740533D01*
X153333333Y-53407200D02*
X153238095Y-53454819D01*
X153238095Y-53454819D02*
X153047619Y-53454819D01*
X153047619Y-53454819D02*
X152952381Y-53407200D01*
X152952381Y-53407200D02*
X152904762Y-53359580D01*
X152904762Y-53359580D02*
X152857143Y-53264342D01*
X152857143Y-53264342D02*
X152857143Y-52978628D01*
X152857143Y-52978628D02*
X152904762Y-52883390D01*
X152904762Y-52883390D02*
X152952381Y-52835771D01*
X152952381Y-52835771D02*
X153047619Y-52788152D01*
X153047619Y-52788152D02*
X153238095Y-52788152D01*
X153238095Y-52788152D02*
X153333333Y-52835771D01*
X154190476Y-53407200D02*
X154095238Y-53454819D01*
X154095238Y-53454819D02*
X153904762Y-53454819D01*
X153904762Y-53454819D02*
X153809524Y-53407200D01*
X153809524Y-53407200D02*
X153761905Y-53311961D01*
X153761905Y-53311961D02*
X153761905Y-52931009D01*
X153761905Y-52931009D02*
X153809524Y-52835771D01*
X153809524Y-52835771D02*
X153904762Y-52788152D01*
X153904762Y-52788152D02*
X154095238Y-52788152D01*
X154095238Y-52788152D02*
X154190476Y-52835771D01*
X154190476Y-52835771D02*
X154238095Y-52931009D01*
X154238095Y-52931009D02*
X154238095Y-53026247D01*
X154238095Y-53026247D02*
X153761905Y-53121485D01*
X156000000Y-53359580D02*
X155952381Y-53407200D01*
X155952381Y-53407200D02*
X155809524Y-53454819D01*
X155809524Y-53454819D02*
X155714286Y-53454819D01*
X155714286Y-53454819D02*
X155571429Y-53407200D01*
X155571429Y-53407200D02*
X155476191Y-53311961D01*
X155476191Y-53311961D02*
X155428572Y-53216723D01*
X155428572Y-53216723D02*
X155380953Y-53026247D01*
X155380953Y-53026247D02*
X155380953Y-52883390D01*
X155380953Y-52883390D02*
X155428572Y-52692914D01*
X155428572Y-52692914D02*
X155476191Y-52597676D01*
X155476191Y-52597676D02*
X155571429Y-52502438D01*
X155571429Y-52502438D02*
X155714286Y-52454819D01*
X155714286Y-52454819D02*
X155809524Y-52454819D01*
X155809524Y-52454819D02*
X155952381Y-52502438D01*
X155952381Y-52502438D02*
X156000000Y-52550057D01*
X156571429Y-53454819D02*
X156476191Y-53407200D01*
X156476191Y-53407200D02*
X156428572Y-53359580D01*
X156428572Y-53359580D02*
X156380953Y-53264342D01*
X156380953Y-53264342D02*
X156380953Y-52978628D01*
X156380953Y-52978628D02*
X156428572Y-52883390D01*
X156428572Y-52883390D02*
X156476191Y-52835771D01*
X156476191Y-52835771D02*
X156571429Y-52788152D01*
X156571429Y-52788152D02*
X156714286Y-52788152D01*
X156714286Y-52788152D02*
X156809524Y-52835771D01*
X156809524Y-52835771D02*
X156857143Y-52883390D01*
X156857143Y-52883390D02*
X156904762Y-52978628D01*
X156904762Y-52978628D02*
X156904762Y-53264342D01*
X156904762Y-53264342D02*
X156857143Y-53359580D01*
X156857143Y-53359580D02*
X156809524Y-53407200D01*
X156809524Y-53407200D02*
X156714286Y-53454819D01*
X156714286Y-53454819D02*
X156571429Y-53454819D01*
X157333334Y-52788152D02*
X157333334Y-53454819D01*
X157333334Y-52883390D02*
X157380953Y-52835771D01*
X157380953Y-52835771D02*
X157476191Y-52788152D01*
X157476191Y-52788152D02*
X157619048Y-52788152D01*
X157619048Y-52788152D02*
X157714286Y-52835771D01*
X157714286Y-52835771D02*
X157761905Y-52931009D01*
X157761905Y-52931009D02*
X157761905Y-53454819D01*
X158238096Y-52788152D02*
X158238096Y-53454819D01*
X158238096Y-52883390D02*
X158285715Y-52835771D01*
X158285715Y-52835771D02*
X158380953Y-52788152D01*
X158380953Y-52788152D02*
X158523810Y-52788152D01*
X158523810Y-52788152D02*
X158619048Y-52835771D01*
X158619048Y-52835771D02*
X158666667Y-52931009D01*
X158666667Y-52931009D02*
X158666667Y-53454819D01*
D11*
X147890000Y-45390000D02*
X158110000Y-45390000D01*
X147890000Y-47500000D02*
X147890000Y-45390000D01*
X147890000Y-49610000D02*
X147890000Y-48500000D01*
X149000000Y-49610000D02*
X147890000Y-49610000D01*
X150000000Y-47500000D02*
X147890000Y-47500000D01*
X150000000Y-49610000D02*
X150000000Y-47500000D01*
X150000000Y-49610000D02*
X158110000Y-49610000D01*
X158110000Y-49610000D02*
X158110000Y-45390000D01*
D12*
X144276600Y-49041400D02*
X144073400Y-49041400D01*
X144073400Y-47822200D01*
X144276600Y-47822200D01*
X144276600Y-49041400D01*
G36*
X144276600Y-49041400D02*
G01*
X144073400Y-49041400D01*
X144073400Y-47822200D01*
X144276600Y-47822200D01*
X144276600Y-49041400D01*
G37*
X144302000Y-47619000D02*
X144073400Y-47619000D01*
X144073400Y-47415800D01*
X144302000Y-47415800D01*
X144302000Y-47619000D01*
G36*
X144302000Y-47619000D02*
G01*
X144073400Y-47619000D01*
X144073400Y-47415800D01*
X144302000Y-47415800D01*
X144302000Y-47619000D01*
G37*
X141816682Y-48274214D02*
X141820779Y-48444194D01*
X141826005Y-48570997D01*
X141833121Y-48662242D01*
X141842889Y-48725552D01*
X141856071Y-48768546D01*
X141868401Y-48791657D01*
X141936094Y-48852270D01*
X142029846Y-48873604D01*
X142143565Y-48855712D01*
X142271162Y-48798647D01*
X142289050Y-48787987D01*
X142371600Y-48737346D01*
X142371600Y-47822200D01*
X142574800Y-47822200D01*
X142574800Y-49041400D01*
X142473200Y-49041400D01*
X142407749Y-49037943D01*
X142378658Y-49021601D01*
X142371638Y-48983411D01*
X142371600Y-48977682D01*
X142371600Y-48913965D01*
X142236196Y-48990382D01*
X142090501Y-49051483D01*
X141954442Y-49063780D01*
X141824558Y-49027555D01*
X141817685Y-49024240D01*
X141759884Y-48990299D01*
X141715499Y-48948153D01*
X141682827Y-48891095D01*
X141660162Y-48812421D01*
X141645800Y-48705428D01*
X141638036Y-48563409D01*
X141635164Y-48379662D01*
X141635000Y-48305811D01*
X141635000Y-47822200D01*
X141807865Y-47822200D01*
X141816682Y-48274214D01*
G36*
X141816682Y-48274214D02*
G01*
X141820779Y-48444194D01*
X141826005Y-48570997D01*
X141833121Y-48662242D01*
X141842889Y-48725552D01*
X141856071Y-48768546D01*
X141868401Y-48791657D01*
X141936094Y-48852270D01*
X142029846Y-48873604D01*
X142143565Y-48855712D01*
X142271162Y-48798647D01*
X142289050Y-48787987D01*
X142371600Y-48737346D01*
X142371600Y-47822200D01*
X142574800Y-47822200D01*
X142574800Y-49041400D01*
X142473200Y-49041400D01*
X142407749Y-49037943D01*
X142378658Y-49021601D01*
X142371638Y-48983411D01*
X142371600Y-48977682D01*
X142371600Y-48913965D01*
X142236196Y-48990382D01*
X142090501Y-49051483D01*
X141954442Y-49063780D01*
X141824558Y-49027555D01*
X141817685Y-49024240D01*
X141759884Y-48990299D01*
X141715499Y-48948153D01*
X141682827Y-48891095D01*
X141660162Y-48812421D01*
X141645800Y-48705428D01*
X141638036Y-48563409D01*
X141635164Y-48379662D01*
X141635000Y-48305811D01*
X141635000Y-47822200D01*
X141807865Y-47822200D01*
X141816682Y-48274214D01*
G37*
X145118780Y-47808291D02*
X145267331Y-47853590D01*
X145391138Y-47938245D01*
X145483641Y-48058569D01*
X145512565Y-48121409D01*
X145541100Y-48234104D01*
X145555832Y-48373606D01*
X145556332Y-48519294D01*
X145542172Y-48650549D01*
X145524960Y-48718195D01*
X145451640Y-48856400D01*
X145344009Y-48963065D01*
X145210483Y-49034121D01*
X145059483Y-49065500D01*
X144899425Y-49053135D01*
X144855500Y-49041694D01*
X144720887Y-48976563D01*
X144618284Y-48872530D01*
X144548265Y-48730600D01*
X144511407Y-48551778D01*
X144505515Y-48431799D01*
X144708400Y-48431799D01*
X144719380Y-48591936D01*
X144754089Y-48713468D01*
X144815181Y-48804016D01*
X144848447Y-48833935D01*
X144940873Y-48877519D01*
X145052527Y-48887777D01*
X145163399Y-48863646D01*
X145188836Y-48852018D01*
X145270806Y-48781206D01*
X145324931Y-48668046D01*
X145351137Y-48512729D01*
X145353804Y-48431800D01*
X145340167Y-48259572D01*
X145298615Y-48129092D01*
X145228180Y-48039044D01*
X145127897Y-47988115D01*
X145017886Y-47974600D01*
X144901522Y-47996302D01*
X144811700Y-48060574D01*
X144749269Y-48166157D01*
X144715082Y-48311796D01*
X144708400Y-48431799D01*
X144505515Y-48431799D01*
X144505448Y-48430437D01*
X144507910Y-48312028D01*
X144517986Y-48225470D01*
X144539230Y-48151973D01*
X144571821Y-48079481D01*
X144662296Y-47946959D01*
X144780447Y-47857031D01*
X144926342Y-47809649D01*
X144952040Y-47806039D01*
X145118780Y-47808291D01*
G36*
X145118780Y-47808291D02*
G01*
X145267331Y-47853590D01*
X145391138Y-47938245D01*
X145483641Y-48058569D01*
X145512565Y-48121409D01*
X145541100Y-48234104D01*
X145555832Y-48373606D01*
X145556332Y-48519294D01*
X145542172Y-48650549D01*
X145524960Y-48718195D01*
X145451640Y-48856400D01*
X145344009Y-48963065D01*
X145210483Y-49034121D01*
X145059483Y-49065500D01*
X144899425Y-49053135D01*
X144855500Y-49041694D01*
X144720887Y-48976563D01*
X144618284Y-48872530D01*
X144548265Y-48730600D01*
X144511407Y-48551778D01*
X144505515Y-48431799D01*
X144708400Y-48431799D01*
X144719380Y-48591936D01*
X144754089Y-48713468D01*
X144815181Y-48804016D01*
X144848447Y-48833935D01*
X144940873Y-48877519D01*
X145052527Y-48887777D01*
X145163399Y-48863646D01*
X145188836Y-48852018D01*
X145270806Y-48781206D01*
X145324931Y-48668046D01*
X145351137Y-48512729D01*
X145353804Y-48431800D01*
X145340167Y-48259572D01*
X145298615Y-48129092D01*
X145228180Y-48039044D01*
X145127897Y-47988115D01*
X145017886Y-47974600D01*
X144901522Y-47996302D01*
X144811700Y-48060574D01*
X144749269Y-48166157D01*
X144715082Y-48311796D01*
X144708400Y-48431799D01*
X144505515Y-48431799D01*
X144505448Y-48430437D01*
X144507910Y-48312028D01*
X144517986Y-48225470D01*
X144539230Y-48151973D01*
X144571821Y-48079481D01*
X144662296Y-47946959D01*
X144780447Y-47857031D01*
X144926342Y-47809649D01*
X144952040Y-47806039D01*
X145118780Y-47808291D01*
G37*
X138425716Y-47354898D02*
X138558734Y-47402956D01*
X138661356Y-47491690D01*
X138733509Y-47621032D01*
X138775121Y-47790914D01*
X138779704Y-47829088D01*
X138797215Y-48000000D01*
X137945311Y-48000000D01*
X137959495Y-48105750D01*
X137998609Y-48234555D01*
X138073294Y-48332182D01*
X138177361Y-48396384D01*
X138304623Y-48424913D01*
X138448893Y-48415521D01*
X138603983Y-48365961D01*
X138635312Y-48351250D01*
X138764800Y-48287167D01*
X138764800Y-48394825D01*
X138761342Y-48463032D01*
X138742189Y-48501939D01*
X138694168Y-48530273D01*
X138659413Y-48544651D01*
X138555789Y-48574186D01*
X138429622Y-48593322D01*
X138302166Y-48600210D01*
X138194672Y-48593003D01*
X138167900Y-48587402D01*
X138009171Y-48524046D01*
X137888584Y-48427590D01*
X137805907Y-48297667D01*
X137760909Y-48133909D01*
X137753359Y-47935947D01*
X137753815Y-47927609D01*
X137766244Y-47847600D01*
X137945650Y-47847600D01*
X138266325Y-47847600D01*
X138398730Y-47847202D01*
X138488572Y-47845097D01*
X138544085Y-47839916D01*
X138573502Y-47830289D01*
X138585061Y-47814848D01*
X138587000Y-47794288D01*
X138575706Y-47734651D01*
X138548024Y-47660535D01*
X138513252Y-47592883D01*
X138480687Y-47552637D01*
X138479315Y-47551739D01*
X138404426Y-47524124D01*
X138307450Y-47510975D01*
X138215816Y-47515409D01*
X138196955Y-47519632D01*
X138099824Y-47568580D01*
X138017924Y-47649365D01*
X137967213Y-47745257D01*
X137961976Y-47765968D01*
X137945650Y-47847600D01*
X137766244Y-47847600D01*
X137783347Y-47737516D01*
X137847290Y-47583703D01*
X137944776Y-47467164D01*
X138074931Y-47388892D01*
X138236886Y-47349880D01*
X138262375Y-47347583D01*
X138425716Y-47354898D01*
G36*
X138425716Y-47354898D02*
G01*
X138558734Y-47402956D01*
X138661356Y-47491690D01*
X138733509Y-47621032D01*
X138775121Y-47790914D01*
X138779704Y-47829088D01*
X138797215Y-48000000D01*
X137945311Y-48000000D01*
X137959495Y-48105750D01*
X137998609Y-48234555D01*
X138073294Y-48332182D01*
X138177361Y-48396384D01*
X138304623Y-48424913D01*
X138448893Y-48415521D01*
X138603983Y-48365961D01*
X138635312Y-48351250D01*
X138764800Y-48287167D01*
X138764800Y-48394825D01*
X138761342Y-48463032D01*
X138742189Y-48501939D01*
X138694168Y-48530273D01*
X138659413Y-48544651D01*
X138555789Y-48574186D01*
X138429622Y-48593322D01*
X138302166Y-48600210D01*
X138194672Y-48593003D01*
X138167900Y-48587402D01*
X138009171Y-48524046D01*
X137888584Y-48427590D01*
X137805907Y-48297667D01*
X137760909Y-48133909D01*
X137753359Y-47935947D01*
X137753815Y-47927609D01*
X137766244Y-47847600D01*
X137945650Y-47847600D01*
X138266325Y-47847600D01*
X138398730Y-47847202D01*
X138488572Y-47845097D01*
X138544085Y-47839916D01*
X138573502Y-47830289D01*
X138585061Y-47814848D01*
X138587000Y-47794288D01*
X138575706Y-47734651D01*
X138548024Y-47660535D01*
X138513252Y-47592883D01*
X138480687Y-47552637D01*
X138479315Y-47551739D01*
X138404426Y-47524124D01*
X138307450Y-47510975D01*
X138215816Y-47515409D01*
X138196955Y-47519632D01*
X138099824Y-47568580D01*
X138017924Y-47649365D01*
X137967213Y-47745257D01*
X137961976Y-47765968D01*
X137945650Y-47847600D01*
X137766244Y-47847600D01*
X137783347Y-47737516D01*
X137847290Y-47583703D01*
X137944776Y-47467164D01*
X138074931Y-47388892D01*
X138236886Y-47349880D01*
X138262375Y-47347583D01*
X138425716Y-47354898D01*
G37*
X137545600Y-48584200D02*
X137444000Y-48584200D01*
X137378677Y-48580897D01*
X137349637Y-48564618D01*
X137342477Y-48525802D01*
X137342400Y-48516763D01*
X137339333Y-48470779D01*
X137322638Y-48469006D01*
X137297020Y-48490394D01*
X137183152Y-48562468D01*
X137048716Y-48599682D01*
X136910218Y-48599814D01*
X136784165Y-48560639D01*
X136782392Y-48559708D01*
X136691153Y-48484751D01*
X136617598Y-48371638D01*
X136564783Y-48230858D01*
X136535762Y-48072903D01*
X136534633Y-47987300D01*
X136745854Y-47987300D01*
X136755750Y-48145172D01*
X136786542Y-48261784D01*
X136840828Y-48343265D01*
X136918593Y-48394623D01*
X136982587Y-48419991D01*
X137030908Y-48427006D01*
X137086438Y-48415705D01*
X137147231Y-48395000D01*
X137221501Y-48366349D01*
X137274064Y-48336101D01*
X137308666Y-48295398D01*
X137329051Y-48235382D01*
X137338965Y-48147195D01*
X137342155Y-48021980D01*
X137342400Y-47933456D01*
X137341798Y-47787644D01*
X137337208Y-47684516D01*
X137324452Y-47615957D01*
X137299353Y-47573852D01*
X137257733Y-47550085D01*
X137195415Y-47536542D01*
X137133874Y-47528375D01*
X137004487Y-47535780D01*
X136891619Y-47589003D01*
X136804164Y-47683637D01*
X136797164Y-47695200D01*
X136768394Y-47758424D01*
X136752329Y-47834615D01*
X136746179Y-47939661D01*
X136745854Y-47987300D01*
X136534633Y-47987300D01*
X136533589Y-47908265D01*
X136554034Y-47775422D01*
X136612564Y-47620309D01*
X136702473Y-47495309D01*
X136816725Y-47404552D01*
X136948280Y-47352165D01*
X137090101Y-47342278D01*
X137232017Y-47377699D01*
X137292512Y-47402044D01*
X137329294Y-47415099D01*
X137332801Y-47415799D01*
X137336831Y-47392193D01*
X137340027Y-47328540D01*
X137341984Y-47235596D01*
X137342400Y-47161800D01*
X137342400Y-46907800D01*
X137545600Y-46907800D01*
X137545600Y-48584200D01*
G36*
X137545600Y-48584200D02*
G01*
X137444000Y-48584200D01*
X137378677Y-48580897D01*
X137349637Y-48564618D01*
X137342477Y-48525802D01*
X137342400Y-48516763D01*
X137339333Y-48470779D01*
X137322638Y-48469006D01*
X137297020Y-48490394D01*
X137183152Y-48562468D01*
X137048716Y-48599682D01*
X136910218Y-48599814D01*
X136784165Y-48560639D01*
X136782392Y-48559708D01*
X136691153Y-48484751D01*
X136617598Y-48371638D01*
X136564783Y-48230858D01*
X136535762Y-48072903D01*
X136534633Y-47987300D01*
X136745854Y-47987300D01*
X136755750Y-48145172D01*
X136786542Y-48261784D01*
X136840828Y-48343265D01*
X136918593Y-48394623D01*
X136982587Y-48419991D01*
X137030908Y-48427006D01*
X137086438Y-48415705D01*
X137147231Y-48395000D01*
X137221501Y-48366349D01*
X137274064Y-48336101D01*
X137308666Y-48295398D01*
X137329051Y-48235382D01*
X137338965Y-48147195D01*
X137342155Y-48021980D01*
X137342400Y-47933456D01*
X137341798Y-47787644D01*
X137337208Y-47684516D01*
X137324452Y-47615957D01*
X137299353Y-47573852D01*
X137257733Y-47550085D01*
X137195415Y-47536542D01*
X137133874Y-47528375D01*
X137004487Y-47535780D01*
X136891619Y-47589003D01*
X136804164Y-47683637D01*
X136797164Y-47695200D01*
X136768394Y-47758424D01*
X136752329Y-47834615D01*
X136746179Y-47939661D01*
X136745854Y-47987300D01*
X136534633Y-47987300D01*
X136533589Y-47908265D01*
X136554034Y-47775422D01*
X136612564Y-47620309D01*
X136702473Y-47495309D01*
X136816725Y-47404552D01*
X136948280Y-47352165D01*
X137090101Y-47342278D01*
X137232017Y-47377699D01*
X137292512Y-47402044D01*
X137329294Y-47415099D01*
X137332801Y-47415799D01*
X137336831Y-47392193D01*
X137340027Y-47328540D01*
X137341984Y-47235596D01*
X137342400Y-47161800D01*
X137342400Y-46907800D01*
X137545600Y-46907800D01*
X137545600Y-48584200D01*
G37*
X143768600Y-49041400D02*
X143679700Y-49041400D01*
X143618428Y-49035717D01*
X143593705Y-49013533D01*
X143590800Y-48990600D01*
X143589329Y-48957256D01*
X143578040Y-48944452D01*
X143546616Y-48953108D01*
X143484742Y-48984147D01*
X143448660Y-49003300D01*
X143304498Y-49055993D01*
X143163229Y-49061659D01*
X143032247Y-49020007D01*
X143031603Y-49019665D01*
X142966700Y-48970143D01*
X142899100Y-48895925D01*
X142866900Y-48850228D01*
X142832661Y-48792167D01*
X142810575Y-48741169D01*
X142797992Y-48683635D01*
X142792262Y-48605966D01*
X142790735Y-48494562D01*
X142790700Y-48459212D01*
X142791467Y-48397759D01*
X142979563Y-48397759D01*
X142982886Y-48528900D01*
X143008448Y-48652101D01*
X143055203Y-48757190D01*
X143122103Y-48833995D01*
X143197100Y-48870178D01*
X143290468Y-48871512D01*
X143412271Y-48841917D01*
X143438353Y-48832712D01*
X143496771Y-48808385D01*
X143538005Y-48779884D01*
X143565035Y-48738540D01*
X143580840Y-48675685D01*
X143588398Y-48582650D01*
X143590690Y-48450768D01*
X143590800Y-48389134D01*
X143590800Y-48049542D01*
X143520950Y-48020065D01*
X143453800Y-48002280D01*
X143363448Y-47990894D01*
X143319417Y-47988944D01*
X143232028Y-47992828D01*
X143172148Y-48012293D01*
X143117108Y-48054988D01*
X143113510Y-48058412D01*
X143043828Y-48152343D01*
X142999528Y-48268849D01*
X142979563Y-48397759D01*
X142791467Y-48397759D01*
X142792311Y-48330146D01*
X142798449Y-48238588D01*
X142811064Y-48171312D01*
X142832111Y-48115092D01*
X142845378Y-48088900D01*
X142941495Y-47955554D01*
X143061568Y-47860917D01*
X143198097Y-47807986D01*
X143343580Y-47799763D01*
X143480417Y-47834899D01*
X143540912Y-47859244D01*
X143577694Y-47872299D01*
X143581201Y-47873000D01*
X143585231Y-47849393D01*
X143588427Y-47785740D01*
X143590384Y-47692796D01*
X143590800Y-47619000D01*
X143590800Y-47365000D01*
X143768600Y-47365000D01*
X143768600Y-49041400D01*
G36*
X143768600Y-49041400D02*
G01*
X143679700Y-49041400D01*
X143618428Y-49035717D01*
X143593705Y-49013533D01*
X143590800Y-48990600D01*
X143589329Y-48957256D01*
X143578040Y-48944452D01*
X143546616Y-48953108D01*
X143484742Y-48984147D01*
X143448660Y-49003300D01*
X143304498Y-49055993D01*
X143163229Y-49061659D01*
X143032247Y-49020007D01*
X143031603Y-49019665D01*
X142966700Y-48970143D01*
X142899100Y-48895925D01*
X142866900Y-48850228D01*
X142832661Y-48792167D01*
X142810575Y-48741169D01*
X142797992Y-48683635D01*
X142792262Y-48605966D01*
X142790735Y-48494562D01*
X142790700Y-48459212D01*
X142791467Y-48397759D01*
X142979563Y-48397759D01*
X142982886Y-48528900D01*
X143008448Y-48652101D01*
X143055203Y-48757190D01*
X143122103Y-48833995D01*
X143197100Y-48870178D01*
X143290468Y-48871512D01*
X143412271Y-48841917D01*
X143438353Y-48832712D01*
X143496771Y-48808385D01*
X143538005Y-48779884D01*
X143565035Y-48738540D01*
X143580840Y-48675685D01*
X143588398Y-48582650D01*
X143590690Y-48450768D01*
X143590800Y-48389134D01*
X143590800Y-48049542D01*
X143520950Y-48020065D01*
X143453800Y-48002280D01*
X143363448Y-47990894D01*
X143319417Y-47988944D01*
X143232028Y-47992828D01*
X143172148Y-48012293D01*
X143117108Y-48054988D01*
X143113510Y-48058412D01*
X143043828Y-48152343D01*
X142999528Y-48268849D01*
X142979563Y-48397759D01*
X142791467Y-48397759D01*
X142792311Y-48330146D01*
X142798449Y-48238588D01*
X142811064Y-48171312D01*
X142832111Y-48115092D01*
X142845378Y-48088900D01*
X142941495Y-47955554D01*
X143061568Y-47860917D01*
X143198097Y-47807986D01*
X143343580Y-47799763D01*
X143480417Y-47834899D01*
X143540912Y-47859244D01*
X143577694Y-47872299D01*
X143581201Y-47873000D01*
X143585231Y-47849393D01*
X143588427Y-47785740D01*
X143590384Y-47692796D01*
X143590800Y-47619000D01*
X143590800Y-47365000D01*
X143768600Y-47365000D01*
X143768600Y-49041400D01*
G37*
X139504852Y-46895574D02*
X139578528Y-46907691D01*
X139614915Y-46924894D01*
X139627157Y-46958360D01*
X139628400Y-47000639D01*
X139628400Y-47088712D01*
X139513749Y-47071519D01*
X139388328Y-47069170D01*
X139293485Y-47102900D01*
X139232970Y-47171133D01*
X139223648Y-47193388D01*
X139199824Y-47267403D01*
X139194473Y-47316339D01*
X139214453Y-47345380D01*
X139266620Y-47359714D01*
X139357833Y-47364523D01*
X139450600Y-47365000D01*
X139704600Y-47365000D01*
X139704600Y-47034800D01*
X139907800Y-47034800D01*
X139907800Y-47365000D01*
X140263400Y-47365000D01*
X140263400Y-47542800D01*
X139907800Y-47542800D01*
X139907800Y-48166769D01*
X139908851Y-48364046D01*
X139911864Y-48534533D01*
X139916628Y-48672714D01*
X139922932Y-48773070D01*
X139930564Y-48830085D01*
X139933508Y-48838776D01*
X139981405Y-48880738D01*
X140058537Y-48903645D01*
X140145659Y-48903613D01*
X140193814Y-48891313D01*
X140238397Y-48877163D01*
X140258180Y-48887791D01*
X140263240Y-48933986D01*
X140263400Y-48965828D01*
X140258765Y-49032582D01*
X140240849Y-49061817D01*
X140215775Y-49066800D01*
X140154779Y-49070584D01*
X140095125Y-49077801D01*
X140016240Y-49079362D01*
X139939706Y-49068341D01*
X139875073Y-49049212D01*
X139823443Y-49023744D01*
X139783371Y-48986464D01*
X139753408Y-48931895D01*
X139732109Y-48854563D01*
X139718026Y-48748992D01*
X139709713Y-48609707D01*
X139705723Y-48431232D01*
X139704609Y-48208094D01*
X139704600Y-48178615D01*
X139704600Y-47542800D01*
X139196600Y-47542800D01*
X139196600Y-49066800D01*
X139018800Y-49066800D01*
X139018800Y-47542800D01*
X138942600Y-47542800D01*
X138891404Y-47537844D01*
X138870405Y-47512707D01*
X138866400Y-47453900D01*
X138870647Y-47394171D01*
X138892193Y-47369673D01*
X138942600Y-47365000D01*
X138994129Y-47359896D01*
X139015009Y-47334241D01*
X139018800Y-47277753D01*
X139039961Y-47135461D01*
X139100566Y-47022361D01*
X139196292Y-46941851D01*
X139322819Y-46897329D01*
X139475826Y-46892191D01*
X139504852Y-46895574D01*
G36*
X139504852Y-46895574D02*
G01*
X139578528Y-46907691D01*
X139614915Y-46924894D01*
X139627157Y-46958360D01*
X139628400Y-47000639D01*
X139628400Y-47088712D01*
X139513749Y-47071519D01*
X139388328Y-47069170D01*
X139293485Y-47102900D01*
X139232970Y-47171133D01*
X139223648Y-47193388D01*
X139199824Y-47267403D01*
X139194473Y-47316339D01*
X139214453Y-47345380D01*
X139266620Y-47359714D01*
X139357833Y-47364523D01*
X139450600Y-47365000D01*
X139704600Y-47365000D01*
X139704600Y-47034800D01*
X139907800Y-47034800D01*
X139907800Y-47365000D01*
X140263400Y-47365000D01*
X140263400Y-47542800D01*
X139907800Y-47542800D01*
X139907800Y-48166769D01*
X139908851Y-48364046D01*
X139911864Y-48534533D01*
X139916628Y-48672714D01*
X139922932Y-48773070D01*
X139930564Y-48830085D01*
X139933508Y-48838776D01*
X139981405Y-48880738D01*
X140058537Y-48903645D01*
X140145659Y-48903613D01*
X140193814Y-48891313D01*
X140238397Y-48877163D01*
X140258180Y-48887791D01*
X140263240Y-48933986D01*
X140263400Y-48965828D01*
X140258765Y-49032582D01*
X140240849Y-49061817D01*
X140215775Y-49066800D01*
X140154779Y-49070584D01*
X140095125Y-49077801D01*
X140016240Y-49079362D01*
X139939706Y-49068341D01*
X139875073Y-49049212D01*
X139823443Y-49023744D01*
X139783371Y-48986464D01*
X139753408Y-48931895D01*
X139732109Y-48854563D01*
X139718026Y-48748992D01*
X139709713Y-48609707D01*
X139705723Y-48431232D01*
X139704609Y-48208094D01*
X139704600Y-48178615D01*
X139704600Y-47542800D01*
X139196600Y-47542800D01*
X139196600Y-49066800D01*
X139018800Y-49066800D01*
X139018800Y-47542800D01*
X138942600Y-47542800D01*
X138891404Y-47537844D01*
X138870405Y-47512707D01*
X138866400Y-47453900D01*
X138870647Y-47394171D01*
X138892193Y-47369673D01*
X138942600Y-47365000D01*
X138994129Y-47359896D01*
X139015009Y-47334241D01*
X139018800Y-47277753D01*
X139039961Y-47135461D01*
X139100566Y-47022361D01*
X139196292Y-46941851D01*
X139322819Y-46897329D01*
X139475826Y-46892191D01*
X139504852Y-46895574D01*
G37*
X140981474Y-47818282D02*
X141095841Y-47837180D01*
X141159868Y-47858686D01*
X141217479Y-47890158D01*
X141261692Y-47926424D01*
X141294414Y-47974405D01*
X141317554Y-48041020D01*
X141333021Y-48133188D01*
X141342722Y-48257828D01*
X141348565Y-48421860D01*
X141351192Y-48552450D01*
X141359484Y-49041400D01*
X141255942Y-49041400D01*
X141189699Y-49038093D01*
X141159937Y-49022356D01*
X141152473Y-48985460D01*
X141152400Y-48977682D01*
X141152400Y-48913965D01*
X141016996Y-48990382D01*
X140868908Y-49052469D01*
X140731168Y-49066575D01*
X140606178Y-49032600D01*
X140565606Y-49009143D01*
X140465301Y-48914326D01*
X140408891Y-48794791D01*
X140398113Y-48655548D01*
X140600208Y-48655548D01*
X140604559Y-48723557D01*
X140642987Y-48811130D01*
X140714628Y-48865539D01*
X140812159Y-48884238D01*
X140928260Y-48864683D01*
X140968136Y-48849931D01*
X141061412Y-48804875D01*
X141116921Y-48756343D01*
X141144058Y-48689769D01*
X141152218Y-48590589D01*
X141152400Y-48564282D01*
X141152400Y-48399838D01*
X140994741Y-48417675D01*
X140826737Y-48448517D01*
X140705462Y-48498066D01*
X140630193Y-48566888D01*
X140600208Y-48655548D01*
X140398113Y-48655548D01*
X140397992Y-48653986D01*
X140398146Y-48652157D01*
X140429556Y-48521837D01*
X140500054Y-48418562D01*
X140611333Y-48341104D01*
X140765087Y-48288232D01*
X140936500Y-48261101D01*
X141038551Y-48249753D01*
X141100410Y-48237742D01*
X141132594Y-48221380D01*
X141145622Y-48196979D01*
X141147421Y-48187161D01*
X141136828Y-48132046D01*
X141100682Y-48069925D01*
X141095783Y-48064012D01*
X141012563Y-48005053D01*
X140897055Y-47979513D01*
X140755946Y-47988228D01*
X140663261Y-48009816D01*
X140584513Y-48032003D01*
X140527042Y-48046886D01*
X140507140Y-48050800D01*
X140497611Y-48028261D01*
X140492357Y-47972037D01*
X140492000Y-47950350D01*
X140495641Y-47884747D01*
X140515978Y-47852065D01*
X140567134Y-47834490D01*
X140587250Y-47830192D01*
X140710202Y-47813943D01*
X140847268Y-47810255D01*
X140981474Y-47818282D01*
G36*
X140981474Y-47818282D02*
G01*
X141095841Y-47837180D01*
X141159868Y-47858686D01*
X141217479Y-47890158D01*
X141261692Y-47926424D01*
X141294414Y-47974405D01*
X141317554Y-48041020D01*
X141333021Y-48133188D01*
X141342722Y-48257828D01*
X141348565Y-48421860D01*
X141351192Y-48552450D01*
X141359484Y-49041400D01*
X141255942Y-49041400D01*
X141189699Y-49038093D01*
X141159937Y-49022356D01*
X141152473Y-48985460D01*
X141152400Y-48977682D01*
X141152400Y-48913965D01*
X141016996Y-48990382D01*
X140868908Y-49052469D01*
X140731168Y-49066575D01*
X140606178Y-49032600D01*
X140565606Y-49009143D01*
X140465301Y-48914326D01*
X140408891Y-48794791D01*
X140398113Y-48655548D01*
X140600208Y-48655548D01*
X140604559Y-48723557D01*
X140642987Y-48811130D01*
X140714628Y-48865539D01*
X140812159Y-48884238D01*
X140928260Y-48864683D01*
X140968136Y-48849931D01*
X141061412Y-48804875D01*
X141116921Y-48756343D01*
X141144058Y-48689769D01*
X141152218Y-48590589D01*
X141152400Y-48564282D01*
X141152400Y-48399838D01*
X140994741Y-48417675D01*
X140826737Y-48448517D01*
X140705462Y-48498066D01*
X140630193Y-48566888D01*
X140600208Y-48655548D01*
X140398113Y-48655548D01*
X140397992Y-48653986D01*
X140398146Y-48652157D01*
X140429556Y-48521837D01*
X140500054Y-48418562D01*
X140611333Y-48341104D01*
X140765087Y-48288232D01*
X140936500Y-48261101D01*
X141038551Y-48249753D01*
X141100410Y-48237742D01*
X141132594Y-48221380D01*
X141145622Y-48196979D01*
X141147421Y-48187161D01*
X141136828Y-48132046D01*
X141100682Y-48069925D01*
X141095783Y-48064012D01*
X141012563Y-48005053D01*
X140897055Y-47979513D01*
X140755946Y-47988228D01*
X140663261Y-48009816D01*
X140584513Y-48032003D01*
X140527042Y-48046886D01*
X140507140Y-48050800D01*
X140497611Y-48028261D01*
X140492357Y-47972037D01*
X140492000Y-47950350D01*
X140495641Y-47884747D01*
X140515978Y-47852065D01*
X140567134Y-47834490D01*
X140587250Y-47830192D01*
X140710202Y-47813943D01*
X140847268Y-47810255D01*
X140981474Y-47818282D01*
G37*
M02*
