G04 #@! TF.GenerationSoftware,KiCad,Pcbnew,10.0.1*
G04 #@! TF.CreationDate,2026-06-28T00:29:43-07:00*
G04 #@! TF.ProjectId,fz1_oled_IDC_adapter,667a315f-6f6c-4656-945f-4944435f6164,rev?*
G04 #@! TF.SameCoordinates,Original*
G04 #@! TF.FileFunction,Copper,L1,Top*
G04 #@! TF.FilePolarity,Positive*
%FSLAX46Y46*%
G04 Gerber Fmt 4.6, Leading zero omitted, Abs format (unit mm)*
G04 Created by KiCad (PCBNEW 10.0.1) date 2026-06-28 00:29:43*
%MOMM*%
%LPD*%
G01*
G04 APERTURE LIST*
G04 #@! TA.AperFunction,ComponentPad*
%ADD10R,1.350000X1.350000*%
G04 #@! TD*
G04 #@! TA.AperFunction,ComponentPad*
%ADD11C,1.350000*%
G04 #@! TD*
G04 #@! TA.AperFunction,ConnectorPad*
%ADD12R,1.500000X7.620000*%
G04 #@! TD*
G04 #@! TA.AperFunction,Conductor*
%ADD13C,0.250000*%
G04 #@! TD*
G04 APERTURE END LIST*
D10*
X149000000Y-48500000D03*
D11*
X149000000Y-46500000D03*
X151000000Y-48500000D03*
X151000000Y-46500000D03*
X153000000Y-48500000D03*
X153000000Y-46500000D03*
X155000000Y-48500000D03*
X155000000Y-46500000D03*
X157000000Y-48500000D03*
X157000000Y-46500000D03*
D12*
X138000000Y-58000000D03*
X140500000Y-58000000D03*
X143000000Y-58000000D03*
X145500000Y-58000000D03*
X148000000Y-58000000D03*
X150500000Y-58000000D03*
X153000000Y-58000000D03*
X155500000Y-58000000D03*
X158000000Y-58000000D03*
X160500000Y-57992000D03*
X163000000Y-58000000D03*
X165500000Y-58000000D03*
D13*
X146940000Y-48500000D02*
X149000000Y-48500000D01*
X140500000Y-58000000D02*
X140500000Y-54940000D01*
X140500000Y-54940000D02*
X146940000Y-48500000D01*
X145500000Y-46500000D02*
X149000000Y-46500000D01*
X138000000Y-54000000D02*
X145500000Y-46500000D01*
X138000000Y-58000000D02*
X138000000Y-54000000D01*
X149500000Y-52500000D02*
X151000000Y-51000000D01*
X145500000Y-58000000D02*
X145500000Y-54940000D01*
X151000000Y-51000000D02*
X151000000Y-48500000D01*
X147940000Y-52500000D02*
X149500000Y-52500000D01*
X145500000Y-54940000D02*
X147940000Y-52500000D01*
X143000000Y-58000000D02*
X143000000Y-54940000D01*
X149500000Y-51000000D02*
X150000000Y-50500000D01*
X150000000Y-50500000D02*
X150000000Y-47500000D01*
X146940000Y-51000000D02*
X149500000Y-51000000D01*
X143000000Y-54940000D02*
X146940000Y-51000000D01*
X150000000Y-47500000D02*
X151000000Y-46500000D01*
X153000000Y-51000000D02*
X153000000Y-48500000D01*
X150500000Y-58000000D02*
X150500000Y-53500000D01*
X150500000Y-53500000D02*
X153000000Y-51000000D01*
X152000000Y-51000000D02*
X152000000Y-47500000D01*
X148000000Y-54500000D02*
X149000000Y-53500000D01*
X149500000Y-53500000D02*
X152000000Y-51000000D01*
X149000000Y-53500000D02*
X149500000Y-53500000D01*
X148000000Y-58000000D02*
X148000000Y-54500000D01*
X152000000Y-47500000D02*
X153000000Y-46500000D01*
X163000000Y-58000000D02*
X163000000Y-54000000D01*
X159500000Y-53000000D02*
X155000000Y-48500000D01*
X162000000Y-53000000D02*
X159500000Y-53000000D01*
X163000000Y-54000000D02*
X162000000Y-53000000D01*
X158000000Y-58000000D02*
X158000000Y-53500000D01*
X154000000Y-49500000D02*
X154000000Y-47500000D01*
X158000000Y-53500000D02*
X154000000Y-49500000D01*
X154000000Y-47500000D02*
X155000000Y-46500000D01*
X165500000Y-58000000D02*
X165500000Y-53500000D01*
X165500000Y-53500000D02*
X158500000Y-46500000D01*
X158500000Y-46500000D02*
X157000000Y-46500000D01*
M02*
